SplineFontDB: 3.0
FontName: NovaFlatSlim-BoldOblique
FullName: Nova Flat Slim Bold Oblique
FamilyName: Nova Flat Slim
Weight: Bold
Copyright: Copyright (c) 2020-2024 by Wojciech Kalinowski "wmk69" with Reserved Font Name "NovaFlatSlim-BoldOblique".\nThis Font Software is licensed under the SIL Open Font License, Version 1.1.
Version: 3.1.0; 2021-05-23
ItalicAngle: -12
UnderlinePosition: -80
UnderlineWidth: 320
Ascent: 1638
Descent: 410
InvalidEm: 0
LayerCount: 2
Layer: 0 1 "Warstwa t+AUIA-a" 1
Layer: 1 1 "Plan pierwszy" 0
XUID: [1021 783 23647091 8360855]
StyleMap: 0x0021
FSType: 0
OS2Version: 3
OS2_WeightWidthSlopeOnly: 0
OS2_UseTypoMetrics: 1
CreationTime: 1260698820
ModificationTime: 1621761673
PfmFamily: 33
TTFWeight: 700
TTFWidth: 5
LineGap: 200
VLineGap: 0
Panose: 2 12 8 4 5 5 3 13 2 4
OS2TypoAscent: 2000
OS2TypoAOffset: 0
OS2TypoDescent: -500
OS2TypoDOffset: 0
OS2TypoLinegap: 200
OS2WinAscent: 2000
OS2WinAOffset: 0
OS2WinDescent: 500
OS2WinDOffset: 0
HheadAscent: 2000
HheadAOffset: 0
HheadDescent: -500
HheadDOffset: 0
OS2SubXSize: 1434
OS2SubYSize: 1331
OS2SubXOff: 0
OS2SubYOff: 287
OS2SupXSize: 1434
OS2SupYSize: 1331
OS2SupXOff: 0
OS2SupYOff: 977
OS2StrikeYSize: 102
OS2StrikeYPos: 512
OS2CapHeight: 1530
OS2XHeight: 1120
OS2Vendor: '    '
OS2CodePages: 20000093.00000000
OS2UnicodeRanges: 8000002f.4000204b.00000000.00000000
Lookup: 258 0 0 "'kern' Horizontal Kerning lookup 0" { "'kern' Horizontal Kerning lookup 0-1 subtable" [307,0,4] } ['kern' ('DFLT' <'dflt' > 'grek' <'dflt' > 'latn' <'dflt' > ) ]
MarkAttachClasses: 1
DEI: 91125
KernClass2: 65 55 "'kern' Horizontal Kerning lookup 0-1 subtable"
 134 A M N Agrave Aacute Acircumflex Atilde Adieresis Aring Ntilde Amacron Abreve Aogonek Nacute Ncommaaccent Ncaron Eng Aringacute uni1E40
 28 B germandbls uni1E02 uni1E9E
 47 C Ccedilla Cacute Ccircumflex Cdotaccent Ccaron
 122 D O Q Eth Ograve Oacute Ocircumflex Otilde Odieresis Oslash Dcaron Dcroat Omacron Obreve Ohungarumlaut Oslashacute uni1E0A

StartChar: .notdef
Encoding: 65536 -1 0
Width: 1034
Flags: W
HStem: 0 118<323 761> 1392 118<594 1032>
VStem: 110 814<0 814> 431 814<696 1510>
DStem2: 110 0 297.918 0 0.207912 0.978148<159.707 1462.21> 735.918 0 924 0 0.207912 0.978148<120.636 1423.14>
LayerCount: 2
Fore
SplineSet
110 0 m 1,0,-1
 431 1510 l 1,1,-1
 1245 1510 l 1,2,-1
 924 0 l 1,3,-1
 110 0 l 1,0,-1
323 118 m 1,4,-1
 761 118 l 1,5,-1
 1032 1392 l 1,6,-1
 594 1392 l 1,7,-1
 323 118 l 1,4,-1
EndSplineSet
Validated: 1
EndChar

StartChar: exclam
Encoding: 33 33 4
Width: 640
GlyphClass: 2
Flags: W
HStem: -20 365<266.097 442.323> 1510 20G<748.605 805>
VStem: 170 635
DStem2: 155.789 -20 475.543 -20 0.207912 0.978148<641.036 1434.34>
LayerCount: 2
Fore
SplineSet
316 -20 m 0,0,1
 240 -20 240 -20 200 34 c 0,2,3
 170 73 170 73 170 123 c 0,4,5
 170 142 170 142 174 162 c 0,6,7
 190 238 190 238 254 291 c 0,8,9
 318 345 318 345 393 345 c 0,10,11
 469 345 469 345 510 292 c 0,12,13
 539 254 539 254 539 203 c 0,14,15
 539 184 539 184 535 163 c 0,16,17
 519 88 519 88 454.5 34 c 128,-1,18
 390 -20 390 -20 316 -20 c 0,0,1
795 1530 m 1,19,-1
 805 1530 l 1,20,-1
 595 542 l 1,21,-1
 254 395 l 1,22,-1
 244 395 l 1,23,-1
 454 1383 l 1,24,-1
 795 1530 l 1,19,-1
EndSplineSet
Validated: 1
EndChar

StartChar: quotedbl
Encoding: 34 34 5
Width: 510
GlyphClass: 2
Flags: W
HStem: 1100 480
VStem: 264 552
DStem2: 264 1100 443.783 1100 0.207912 0.978148<120.189 407.953> 534 1100 713.783 1100 0.207912 0.978148<120.189 407.953>
LayerCount: 2
Fore
SplineSet
806 1580 m 1,0,-1
 816 1580 l 1,1,-1
 731 1181 l 1,2,-1
 544 1100 l 1,3,-1
 534 1100 l 1,4,-1
 619 1499 l 1,5,-1
 806 1580 l 1,0,-1
536 1580 m 1,6,-1
 546 1580 l 1,7,-1
 461 1181 l 1,8,-1
 274 1100 l 1,9,-1
 264 1100 l 1,10,-1
 349 1499 l 1,11,-1
 536 1580 l 1,6,-1
EndSplineSet
Validated: 1
EndChar

StartChar: numbersign
Encoding: 35 35 6
Width: 1408
GlyphClass: 2
Flags: W
HStem: 460 180<326 506 724 918 1136 1316> 872 180<414 593 812 1005 1224 1403>
DStem2: 442 161 621.783 161 0.207912 0.978148<120.189 305.772 527.164 726.858 948.457 1132.85> 854 161 1033.78 161 0.207912 0.978148<120.189 305.772 527.164 726.858 948.457 1132.85>
LayerCount: 2
Fore
SplineSet
865 1350 m 1,0,-1
 875 1350 l 1,1,-1
 812 1052 l 1,2,-1
 1044 1052 l 1,3,-1
 1090 1269 l 1,4,-1
 1277 1350 l 1,5,-1
 1287 1350 l 1,6,-1
 1224 1052 l 1,7,-1
 1522 1052 l 1,8,-1
 1519 1042 l 1,9,-1
 1403 872 l 1,10,-1
 1185 872 l 1,11,-1
 1136 640 l 1,12,-1
 1434 640 l 1,13,-1
 1432 630 l 1,14,-1
 1316 460 l 1,15,-1
 1098 460 l 1,16,-1
 1051 242 l 1,17,-1
 864 161 l 1,18,-1
 854 161 l 1,19,-1
 918 460 l 1,20,-1
 686 460 l 1,21,-1
 639 242 l 1,22,-1
 452 161 l 1,23,-1
 442 161 l 1,24,-1
 506 460 l 1,25,-1
 208 460 l 1,26,-1
 210 470 l 1,27,-1
 326 640 l 1,28,-1
 544 640 l 1,29,-1
 593 872 l 1,30,-1
 295 872 l 1,31,-1
 297 882 l 1,32,-1
 414 1052 l 1,33,-1
 632 1052 l 1,34,-1
 678 1269 l 1,35,-1
 865 1350 l 1,0,-1
956 640 m 1,36,-1
 1005 872 l 1,37,-1
 773 872 l 1,38,-1
 724 640 l 1,39,-1
 956 640 l 1,36,-1
EndSplineSet
Validated: 1
EndChar

StartChar: dollar
Encoding: 36 36 7
Width: 1150
GlyphClass: 2
Flags: W
HStem: -17 130<430.188 511>
VStem: 106 299<155.597 389.516> 336 307<935.793 1093.98> 912 315<535.257 712.306> 988 298<1191.26 1372.52>
DStem2: 489 -120 609.16 -120 0.207912 0.978148<77.122 105.323 266.188 893.573 1084.05 1536.69 1706.77 1737.14>
LayerCount: 2
Fore
SplineSet
620 -69 m 1,0,-1
 499 -120 l 1,1,-1
 489 -120 l 1,2,-1
 511 -17 l 1,3,4
 343 -2 343 -2 226 79 c 0,5,6
 106 162 106 162 106 323 c 0,7,8
 106 352 106 352 111 383 c 1,9,-1
 458 533 l 1,10,-1
 468 533 l 1,11,-1
 410 261 l 2,12,13
 405 238 405 238 405 221 c 0,14,15
 405 169 405 169 444 147 c 0,16,17
 487 121 487 121 539 113 c 1,18,-1
 675 754 l 1,19,20
 537 767 537 767 428 844 c 0,21,22
 336 909 336 909 336 1033 c 0,23,24
 336 1077 336 1077 348 1130 c 2,25,-1
 367 1214 l 2,26,27
 402 1370 402 1370 526 1440 c 0,28,29
 676 1523 676 1523 840 1529 c 1,30,-1
 851 1579 l 1,31,-1
 971 1630 l 1,32,-1
 981 1630 l 1,33,-1
 959 1525 l 1,34,35
 1090 1509 1090 1509 1179 1446 c 0,36,37
 1286 1370 1286 1370 1286 1236 c 0,38,39
 1286 1218 1286 1218 1283 1199 c 1,40,-1
 947 1054 l 1,41,-1
 937 1054 l 1,42,-1
 984 1277 l 2,43,44
 988 1296 988 1296 988 1310 c 0,45,46
 988 1346 988 1346 965 1361 c 0,47,48
 947 1373 947 1373 928 1380 c 1,49,-1
 829 916 l 1,50,51
 1007 904 1007 904 1121 820 c 0,52,53
 1227 741 1227 741 1227 596 c 0,54,55
 1227 546 1227 546 1214 487 c 2,56,-1
 1183 347 l 2,57,58
 1143 165 1143 165 988 82 c 0,59,60
 817 -10 817 -10 631 -19 c 1,61,-1
 620 -69 l 1,0,-1
712 925 m 1,62,-1
 809 1383 l 1,63,64
 779 1376 779 1376 753 1361 c 0,65,66
 712 1338 712 1338 699 1277 c 2,67,-1
 647 1031 l 2,68,69
 643 1012 643 1012 643 997 c 0,70,71
 643 961 643 961 665 947 c 0,72,73
 687 932 687 932 712 925 c 1,62,-1
793 746 m 1,74,-1
 659 116 l 1,75,76
 707 125 707 125 753 147 c 0,77,78
 817 178 817 178 835 261 c 2,79,-1
 907 598 l 2,80,81
 912 621 912 621 912 641 c 0,82,83
 912 691 912 691 878 713 c 0,84,85
 840 737 840 737 793 746 c 1,74,-1
EndSplineSet
Validated: 1
EndChar

StartChar: percent
Encoding: 37 37 8
Width: 1846
GlyphClass: 2
Flags: W
HStem: -20 108<1291.11 1502.83> 612 108<1388.53 1600.43> 790 108<567.108 778.831> 1422 108<664.528 876.427>
VStem: 331 223<916.53 1187.5> 889 224<1132.5 1403.32> 1055 223<106.53 377.5> 1613 224<322.5 593.322>
DStem2: 105.628 -20 341.893 -20 0.207912 0.978148<1058.04 1478.01> 484 93 707 -20 0.561853 0.827237<31.8155 1737.11> 599.474 -20 835.628 -20 0.207912 0.978148<981.515 1402.83> 1001.8 -20 1238.06 -20 0.207912 0.978148<229.947 649.912> 1495.64 -20 1731.8 -20 0.207912 0.978148<153.42 574.729>
LayerCount: 2
Fore
SplineSet
1390.5 88 m 128,-1,1
 1449 88 1449 88 1493 113 c 0,2,3
 1528 134 1528 134 1539 182 c 2,4,-1
 1610 518 l 2,5,6
 1613 531 1613 531 1613 543 c 0,7,8
 1613 572 1613 572 1594 587 c 0,9,10
 1560 612 1560 612 1501 612 c 128,-1,11
 1442 612 1442 612 1398 587 c 0,12,13
 1363 566 1363 566 1352 518 c 2,14,-1
 1281 182 l 2,15,16
 1278 168 1278 168 1278 156 c 0,17,18
 1278 127 1278 127 1297 113 c 0,19,0
 1332 88 1332 88 1390.5 88 c 128,-1,1
777 1422 m 128,-1,21
 718 1422 718 1422 674 1397 c 0,22,23
 639 1376 639 1376 628 1328 c 2,24,-1
 557 992 l 2,25,26
 554 978 554 978 554 966 c 0,27,28
 554 937 554 937 573 923 c 0,29,30
 608 898 608 898 666.5 898 c 128,-1,31
 725 898 725 898 769 923 c 0,32,33
 804 944 804 944 815 992 c 2,34,-1
 886 1328 l 2,35,36
 889 1341 889 1341 889 1353 c 0,37,38
 889 1382 889 1382 870 1397 c 0,39,20
 836 1422 836 1422 777 1422 c 128,-1,21
1382 -20 m 0,40,41
 1230 -20 1230 -20 1134 48 c 0,42,43
 1055 103 1055 103 1055 200 c 0,44,45
 1055 227 1055 227 1061 258 c 2,46,-1
 1100 442 l 2,47,48
 1132 594 1132 594 1240 652 c 0,49,50
 1364 720 1364 720 1509 720 c 128,-1,51
 1654 720 1654 720 1758 652 c 0,52,53
 1837 600 1837 600 1837 503 c 0,54,55
 1837 474 1837 474 1830 442 c 2,56,-1
 1791 258 l 2,57,58
 1760 106 1760 106 1652 48 c 0,59,60
 1528 -20 1528 -20 1382 -20 c 0,40,41
785 1530 m 128,-1,62
 930 1530 930 1530 1034 1462 c 0,63,64
 1113 1410 1113 1410 1113 1313 c 0,65,66
 1113 1284 1113 1284 1106 1252 c 2,67,-1
 1067 1068 l 2,68,69
 1036 916 1036 916 928 858 c 0,70,71
 804 790 804 790 658 790 c 0,72,73
 506 790 506 790 410 858 c 0,74,75
 331 913 331 913 331 1010 c 0,76,77
 331 1037 331 1037 337 1068 c 2,78,-1
 376 1252 l 2,79,80
 408 1404 408 1404 516 1462 c 0,81,61
 640 1530 640 1530 785 1530 c 128,-1,62
697 -20 m 1,82,-1
 484 93 l 1,83,-1
 1460 1530 l 1,84,-1
 1470 1530 l 1,85,-1
 1682 1417 l 1,86,-1
 707 -20 l 1,87,-1
 697 -20 l 1,82,-1
EndSplineSet
Validated: 1
EndChar

StartChar: ampersand
Encoding: 38 38 9
Width: 1692
GlyphClass: 2
Flags: W
HStem: -20 150<528.338 948.087> 1395 135<814.83 1088.01>
VStem: 186 308<165.491 465.125> 1108 288<1178.37 1373.07>
DStem2: 105.601 -20 435.933 -20 0.207912 0.978148<347.638 778.118> 1042 902 752 751 0.56117 -0.8277<0 450.147 706.627 895.015>
LayerCount: 2
Fore
SplineSet
752 751 m 1,0,1
 696 742 696 742 652 720 c 0,2,3
 586 689 586 689 570 613 c 2,4,-1
 498 272 l 2,5,6
 494 253 494 253 494 237 c 0,7,8
 494 187 494 187 533 165 c 0,9,10
 597 130 597 130 712 130 c 0,11,12
 951 130 951 130 1087 260 c 1,13,-1
 752 751 l 1,0,1
686 -20 m 0,14,15
 461 -20 461 -20 311 82 c 0,16,17
 186 167 186 167 186 317 c 0,18,19
 186 359 186 359 197 410 c 2,20,-1
 225 539 l 2,21,22
 272 757 272 757 459 855 c 1,23,24
 417 911 417 911 417 987 c 0,25,26
 417 1024 417 1024 425 1060 c 2,27,-1
 455 1196 l 2,28,29
 489 1350 489 1350 625 1445 c 0,30,31
 746 1530 746 1530 970 1530 c 24,32,33
 1177 1530 1177 1530 1294 1445 c 0,34,35
 1396 1372 1396 1372 1396 1232 c 0,36,37
 1396 1209 1396 1209 1392 1185 c 1,38,-1
 1062 1043 l 1,39,-1
 1052 1043 l 1,40,-1
 1106 1299 l 2,41,42
 1108 1308 1108 1308 1108 1318 c 0,43,44
 1108 1350 1108 1350 1081 1369 c 0,45,46
 1045 1395 1045 1395 961 1395 c 0,47,48
 897 1395 897 1395 841 1369 c 0,49,50
 796 1348 796 1348 786 1299 c 2,51,-1
 722 998 l 2,52,53
 720 989 720 989 720 978 c 0,54,55
 720 950 720 950 747 928 c 0,56,57
 780 902 780 902 867 902 c 2,58,-1
 1042 902 l 1,59,-1
 1294 529 l 1,60,61
 1347 636 1347 636 1375 751 c 0,62,63
 1385 786 1385 786 1391 851 c 1,64,-1
 1738 1000 l 1,65,-1
 1748 1000 l 1,66,67
 1664 609 1664 609 1422 340 c 1,68,-1
 1581 107 l 1,69,-1
 1287 -20 l 1,70,-1
 1277 -20 l 1,71,-1
 1171 134 l 1,72,73
 937 -20 937 -20 686 -20 c 0,14,15
EndSplineSet
Validated: 1
EndChar

StartChar: quotesingle
Encoding: 39 39 10
Width: 240
GlyphClass: 2
Flags: W
HStem: 1100 480
VStem: 264 282
DStem2: 264 1100 443.783 1100 0.207912 0.978148<120.189 407.953>
LayerCount: 2
Fore
SplineSet
536 1580 m 1,0,-1
 546 1580 l 1,1,-1
 461 1181 l 1,2,-1
 274 1100 l 1,3,-1
 264 1100 l 1,4,-1
 349 1499 l 1,5,-1
 536 1580 l 1,0,-1
EndSplineSet
Validated: 1
EndChar

StartChar: parenleft
Encoding: 40 40 11
Width: 756
GlyphClass: 2
Flags: W
HStem: -240 151<530.074 675> 1599 151<863.097 1066>
VStem: 189 301<-47.2427 141.994>
DStem2: 109.388 -240 428.832 -240 0.207912 0.978148<343.847 1837.85>
LayerCount: 2
Fore
SplineSet
675 -240 m 1,0,1
 446 -240 446 -240 298 -138 c 0,2,3
 189 -63 189 -63 189 85 c 0,4,5
 189 134 189 134 201 191 c 2,6,-1
 440 1319 l 2,7,8
 492 1564 492 1564 648 1648 c 0,9,10
 838 1750 838 1750 1098 1750 c 1,11,-1
 1066 1599 l 1,12,13
 953 1599 953 1599 869 1558 c 0,14,15
 805 1526 805 1526 785 1434 c 2,16,-1
 496 76 l 2,17,18
 490 50 490 50 490 30 c 0,19,20
 490 -24 490 -24 528 -48 c 0,21,22
 594 -89 594 -89 707 -89 c 1,23,-1
 675 -240 l 1,0,1
EndSplineSet
Validated: 1
EndChar

StartChar: parenright
Encoding: 41 41 12
Width: 756
GlyphClass: 2
Flags: W
HStem: -240 151<11 213.903> 1599 151<402 546.926>
VStem: 587 301<1265.19 1559.2>
DStem2: 225.18 -240 544.624 -240 0.207912 0.978148<263.02 1757.03>
LayerCount: 2
Fore
SplineSet
-21 -240 m 1,0,1
 11 -89 l 1,2,3
 124 -89 124 -89 208 -48 c 0,4,5
 272 -16 272 -16 292 76 c 2,6,-1
 581 1434 l 2,7,8
 587 1460 587 1460 587 1480 c 0,9,10
 587 1534 587 1534 549 1558 c 0,11,12
 483 1599 483 1599 370 1599 c 1,13,-1
 402 1750 l 1,14,15
 632 1750 632 1750 778 1648 c 0,16,17
 888 1572 888 1572 888 1425 c 0,18,19
 888 1376 888 1376 876 1319 c 2,20,-1
 637 191 l 2,21,22
 585 -54 585 -54 429 -138 c 0,23,24
 239 -240 239 -240 -21 -240 c 1,0,1
EndSplineSet
Validated: 1
EndChar

StartChar: asterisk
Encoding: 42 42 13
Width: 790
GlyphClass: 2
Flags: W
DStem2: 264 1103 400 988 0.889369 0.457191<68.3772 213.28 574.709 719.612>
LayerCount: 2
Fore
SplineSet
811 1580 m 1,0,-1
 821 1580 l 1,1,-1
 775 1366 l 1,2,-1
 904 1432 l 1,3,-1
 1037 1326 l 1,4,-1
 1040 1317 l 1,5,-1
 832 1210 l 1,6,-1
 994 1103 l 1,7,-1
 988 1094 l 1,8,-1
 810 988 l 1,9,-1
 709 1054 l 1,10,-1
 681 921 l 1,11,-1
 494 840 l 1,12,-1
 484 840 l 1,13,-1
 529 1054 l 1,14,-1
 400 988 l 1,15,-1
 268 1094 l 1,16,-1
 264 1103 l 1,17,-1
 472 1210 l 1,18,-1
 310 1317 l 1,19,-1
 317 1326 l 1,20,-1
 494 1432 l 1,21,-1
 595 1366 l 1,22,-1
 624 1499 l 1,23,-1
 811 1580 l 1,0,-1
EndSplineSet
Validated: 1
EndChar

StartChar: plus
Encoding: 43 43 14
Width: 1240
GlyphClass: 2
Flags: W
HStem: 620 270<424 617 944 1137>
DStem2: 537 245 807.43 245 0.207912 0.978148<184.018 383.438 715.525 914.945>
LayerCount: 2
Fore
SplineSet
1014 1265 m 1,0,-1
 1024 1265 l 1,1,-1
 944 890 l 1,2,-1
 1319 890 l 1,3,-1
 1317 880 l 1,4,-1
 1137 620 l 1,5,-1
 887 620 l 1,6,-1
 834 370 l 1,7,-1
 547 245 l 1,8,-1
 537 245 l 1,9,-1
 617 620 l 1,10,-1
 242 620 l 1,11,-1
 244 630 l 1,12,-1
 424 890 l 1,13,-1
 674 890 l 1,14,-1
 727 1140 l 1,15,-1
 1014 1265 l 1,0,-1
EndSplineSet
Validated: 1
EndChar

StartChar: comma
Encoding: 44 44 15
Width: 496
GlyphClass: 2
Flags: W
HStem: -328 666
VStem: 203 283<-42.5039 147.058>
LayerCount: 2
Fore
SplineSet
75 212 m 1,0,-1
 371 338 l 1,1,-1
 381 338 l 1,2,3
 486 259 486 259 486 132 c 0,4,5
 486 95 486 95 477 54 c 0,6,7
 422 -203 422 -203 60 -328 c 1,8,-1
 55 -321 l 1,9,10
 166 -172 166 -172 197 -24 c 0,11,12
 203 3 203 3 203 28 c 0,13,14
 203 146 203 146 75 212 c 1,0,-1
EndSplineSet
Validated: 1
EndChar

StartChar: hyphen
Encoding: 45 45 16
Width: 1240
GlyphClass: 2
Flags: W
HStem: 620 270<424 1137>
LayerCount: 2
Fore
SplineSet
424 890 m 1,0,-1
 1319 890 l 1,1,-1
 1317 880 l 1,2,-1
 1137 620 l 1,3,-1
 242 620 l 1,4,-1
 244 630 l 1,5,-1
 424 890 l 1,0,-1
EndSplineSet
Validated: 1
EndChar

StartChar: period
Encoding: 46 46 17
Width: 420
GlyphClass: 2
Flags: W
HStem: -20 365<156.097 332.323>
VStem: 60 369<75.75 249.936>
LayerCount: 2
Fore
SplineSet
206 -20 m 0,0,1
 130 -20 130 -20 90 34 c 0,2,3
 60 73 60 73 60 123 c 0,4,5
 60 142 60 142 64 162 c 0,6,7
 80 238 80 238 144 291 c 0,8,9
 208 345 208 345 283 345 c 0,10,11
 359 345 359 345 400 292 c 0,12,13
 429 254 429 254 429 203 c 0,14,15
 429 184 429 184 425 163 c 0,16,17
 409 88 409 88 344.5 34 c 128,-1,18
 280 -20 280 -20 206 -20 c 0,0,1
EndSplineSet
Validated: 1
EndChar

StartChar: slash
Encoding: 47 47 18
Width: 1105
GlyphClass: 2
Flags: W
DStem2: -8 -87 214 -200 0.561693 0.827346<31.2057 2172.01>
LayerCount: 2
Fore
SplineSet
204 -200 m 1,0,-1
 -8 -87 l 1,1,-1
 1212 1710 l 1,2,-1
 1222 1710 l 1,3,-1
 1434 1597 l 1,4,-1
 214 -200 l 1,5,-1
 204 -200 l 1,0,-1
EndSplineSet
Validated: 1
EndChar

StartChar: zero
Encoding: 48 48 19
Width: 1370
GlyphClass: 2
Flags: W
HStem: -20 150<543.637 903.953> 1380 150<787.389 1146.49>
VStem: 197 310<170.367 471.5> 1184 311<1038.5 1339.85>
DStem2: 115.388 -20 446.045 -20 0.207912 0.978148<348.929 1383.62> 915.493 -20 1246.15 -20 0.207912 0.978148<265.679 1309.17>
LayerCount: 2
Fore
SplineSet
713 130 m 128,-1,1
 815 130 815 130 898 171 c 0,2,3
 963 203 963 203 983 295 c 2,4,-1
 1178 1215 l 2,5,6
 1184 1241 1184 1241 1184 1262 c 0,7,8
 1184 1316 1184 1316 1147 1339 c 0,9,10
 1081 1380 1081 1380 978.5 1380 c 128,-1,11
 876 1380 876 1380 793 1339 c 0,12,13
 728 1307 728 1307 708 1215 c 2,14,-1
 513 295 l 2,15,16
 507 269 507 269 507 248 c 0,17,18
 507 194 507 194 544 171 c 0,19,0
 611 130 611 130 713 130 c 128,-1,1
711 -20 m 0,20,21
 466 -20 466 -20 320 82 c 0,22,23
 197 167 197 167 197 318 c 0,24,25
 197 362 197 362 207 411 c 2,26,-1
 354 1099 l 2,27,28
 408 1345 408 1345 562 1428 c 0,29,30
 752 1530 752 1530 980 1530 c 128,-1,31
 1208 1530 1208 1530 1370 1428 c 0,32,33
 1495 1349 1495 1349 1495 1197 c 0,34,35
 1495 1151 1495 1151 1484 1099 c 2,36,-1
 1337 411 l 2,37,38
 1286 166 1286 166 1130 82 c 0,39,40
 940 -20 940 -20 711 -20 c 0,20,21
EndSplineSet
Validated: 1
EndChar

StartChar: one
Encoding: 49 49 20
Width: 794
GlyphClass: 2
Flags: W
HStem: -20 21G<260 316.395> 1510 20G<852.612 909>
VStem: 260 649
DStem2: 260 -20 579.754 -20 0.207912 0.978148<216.765 1269.75> 289 1267 257 1117 0.918286 0.395917<0 197.981>
LayerCount: 2
Fore
SplineSet
270 -20 m 1,0,-1
 260 -20 l 1,1,-1
 524 1222 l 1,2,-1
 257 1117 l 1,3,-1
 289 1267 l 1,4,-1
 899 1530 l 1,5,-1
 909 1530 l 1,6,-1
 611 127 l 1,7,-1
 270 -20 l 1,0,-1
EndSplineSet
Validated: 1
EndChar

StartChar: two
Encoding: 50 50 21
Width: 1273
GlyphClass: 2
Flags: W
HStem: 0 300<529 1047> 1380 150<725.585 1061.7>
VStem: 1098 313<1026.68 1339.9>
DStem2: 256 323 529 300 0.867136 0.498072<225.272 820.996>
LayerCount: 2
Fore
SplineSet
40 0 m 1,0,-1
 42 10 l 1,1,-1
 256 323 l 1,2,-1
 787 628 l 2,3,4
 994 747 994 747 1049 1007 c 2,5,-1
 1093 1215 l 2,6,7
 1098 1239 1098 1239 1098 1260 c 0,8,9
 1098 1313 1098 1313 1062 1339 c 0,10,11
 1005 1380 1005 1380 904.5 1380 c 128,-1,12
 804 1380 804 1380 730 1339 c 0,13,14
 663 1303 663 1303 645 1215 c 2,15,-1
 621 1099 l 1,16,-1
 277 952 l 1,17,-1
 267 952 l 1,18,-1
 299 1099 l 2,19,20
 353 1345 353 1345 506 1428 c 0,21,22
 696 1530 696 1530 910 1530 c 128,-1,23
 1124 1530 1124 1530 1286 1428 c 0,24,25
 1411 1349 1411 1349 1411 1198 c 0,26,27
 1411 1153 1411 1153 1399 1099 c 2,28,-1
 1381 1018 l 2,29,30
 1312 708 1312 708 976 533 c 2,31,-1
 529 300 l 1,32,-1
 1247 300 l 1,33,-1
 1245 290 l 1,34,-1
 1047 0 l 1,35,-1
 40 0 l 1,0,-1
EndSplineSet
Validated: 1
EndChar

StartChar: three
Encoding: 51 51 22
Width: 1240
GlyphClass: 2
Flags: W
HStem: -20 150<488.962 808.94> 1360 150<560 985>
VStem: 146 307<169.612 399.11> 980 313<494.469 808.647>
DStem2: 825.573 -20 1156.23 -20 0.207912 0.978148<269.881 761.223>
LayerCount: 2
Fore
SplineSet
636 -20 m 0,0,1
 405 -20 405 -20 260 82 c 0,2,3
 146 162 146 162 146 322 c 0,4,5
 146 355 146 355 152 392 c 1,6,-1
 500 543 l 1,7,-1
 510 543 l 1,8,-1
 458 295 l 2,9,10
 453 271 453 271 453 253 c 0,11,12
 453 200 453 200 489 171 c 0,13,14
 539 130 539 130 638 130 c 0,15,16
 731 130 731 130 808 171 c 0,17,18
 874 207 874 207 893 295 c 2,19,-1
 975 683 l 2,20,21
 980 707 980 707 980 726 c 0,22,23
 980 780 980 780 944 807 c 0,24,25
 890 848 890 848 793 848 c 0,26,27
 718 848 718 848 678 834 c 1,28,-1
 633 902 l 1,29,-1
 985 1360 l 1,30,-1
 461 1360 l 1,31,-1
 463 1370 l 1,32,-1
 560 1510 l 1,33,-1
 1460 1510 l 1,34,-1
 1023 956 l 1,35,36
 1118 941 1118 941 1182 896 c 0,37,38
 1293 818 1293 818 1293 671 c 0,39,40
 1293 622 1293 622 1281 567 c 2,41,-1
 1247 411 l 2,42,43
 1193 165 1193 165 1040 82 c 0,44,45
 850 -20 850 -20 636 -20 c 0,0,1
EndSplineSet
Validated: 1
EndChar

StartChar: four
Encoding: 52 52 23
Width: 1317
GlyphClass: 2
Flags: W
HStem: -20 21G<783 839.395> 304 150<407 852 1204 1255> 1510 20G<1375.51 1432>
DStem2: 77 314 407 454 0.680769 0.732499<327.203 1235.03> 783 -20 1102.75 -20 0.207912 0.978148<216.765 331.266 551.173 1164.42>
LayerCount: 2
Fore
SplineSet
407 454 m 1,0,-1
 884 454 l 1,1,-1
 1025 1119 l 1,2,-1
 407 454 l 1,0,-1
793 -20 m 1,3,-1
 783 -20 l 1,4,-1
 852 304 l 1,5,-1
 75 304 l 1,6,-1
 77 314 l 1,7,-1
 1064 1376 l 1,8,-1
 1422 1530 l 1,9,-1
 1432 1530 l 1,10,-1
 1204 454 l 1,11,-1
 1354 454 l 1,12,-1
 1351 444 l 1,13,-1
 1255 304 l 1,14,-1
 1172 304 l 1,15,-1
 1134 127 l 1,16,-1
 793 -20 l 1,3,-1
EndSplineSet
Validated: 1
EndChar

StartChar: five
Encoding: 53 53 24
Width: 1240
GlyphClass: 2
Flags: W
HStem: -20 150<489.459 809.079> 848 150<703.595 945.074> 1360 150<892 1320>
VStem: 146 307<169.351 399.11> 980 312<494.469 808.854>
DStem2: 336 904 702 982 0.423131 0.906069<225.539 648.428> 825.573 -20 1156.23 -20 0.207912 0.978148<269.803 760.799>
LayerCount: 2
Fore
SplineSet
636 -20 m 0,0,1
 407 -20 407 -20 260 82 c 0,2,3
 146 161 146 161 146 322 c 0,4,5
 146 355 146 355 152 392 c 1,6,-1
 500 543 l 1,7,-1
 510 543 l 1,8,-1
 458 295 l 2,9,10
 453 271 453 271 453 252 c 0,11,12
 453 199 453 199 489 171 c 0,13,14
 542 130 542 130 636 130 c 0,15,16
 740 130 740 130 808 171 c 0,17,18
 875 211 875 211 893 295 c 2,19,-1
 975 683 l 2,20,21
 980 707 980 707 980 726 c 0,22,23
 980 780 980 780 944 807 c 0,24,25
 889 848 889 848 793 848 c 0,26,27
 675 848 675 848 574 788 c 1,28,-1
 336 904 l 1,29,-1
 619 1510 l 1,30,-1
 1419 1510 l 1,31,-1
 1417 1500 l 1,32,-1
 1320 1360 l 1,33,-1
 892 1360 l 1,34,-1
 702 982 l 1,35,36
 759 998 759 998 822 998 c 0,37,38
 1023 998 1023 998 1168 896 c 0,39,40
 1292 809 1292 809 1292 660 c 0,41,42
 1292 617 1292 617 1281 567 c 2,43,-1
 1247 411 l 2,44,45
 1193 165 1193 165 1040 82 c 0,46,47
 850 -20 850 -20 636 -20 c 0,0,1
EndSplineSet
Validated: 1
EndChar

StartChar: six
Encoding: 54 54 25
Width: 1310
GlyphClass: 2
Flags: W
HStem: -20 150<533.712 872.81> 865 150<667.419 1007.51> 1380 150<776.453 1128.16>
VStem: 196 301<170.154 477.008> 1045 310<636.89 823.243> 1163 290<1176 1338.27>
DStem2: 115.388 -20 436.045 -20 0.207912 0.978148<343.891 931.1 1080.85 1387.95> 886.045 -20 1215.39 -20 0.207912 0.978148<269.639 777.923>
LayerCount: 2
Fore
SplineSet
965 1530 m 0,0,1
 1194 1530 1194 1530 1341 1428 c 0,2,3
 1453 1350 1453 1350 1453 1208 c 0,4,5
 1453 1192 1453 1192 1452 1176 c 1,6,-1
 1129 1029 l 1,7,-1
 1119 1029 l 1,8,-1
 1158 1215 l 2,9,10
 1163 1240 1163 1240 1163 1261 c 0,11,12
 1163 1316 1163 1316 1127 1339 c 0,13,14
 1061 1380 1061 1380 963.5 1380 c 128,-1,15
 866 1380 866 1380 783 1339 c 0,16,17
 717 1307 717 1307 698 1215 c 2,18,-1
 647 972 l 1,19,20
 758 1015 758 1015 871 1015 c 0,21,22
 1085 1015 1085 1015 1231 913 c 0,23,24
 1355 827 1355 827 1355 677 c 0,25,26
 1355 633 1355 633 1344 584 c 2,27,-1
 1307 411 l 2,28,29
 1253 165 1253 165 1099 82 c 0,30,31
 909 -20 909 -20 696 -20 c 128,-1,32
 483 -20 483 -20 321 82 c 0,33,34
 196 161 196 161 196 313 c 0,35,36
 196 359 196 359 207 411 c 2,37,-1
 354 1099 l 2,38,39
 405 1344 405 1344 561 1428 c 0,40,41
 751 1530 751 1530 965 1530 c 0,0,1
849 865 m 128,-1,43
 757 865 757 865 673 824 c 0,44,45
 608 792 608 792 589 700 c 2,46,-1
 503 295 l 2,47,48
 497 269 497 269 497 248 c 0,49,50
 497 194 497 194 534 171 c 0,51,52
 600 130 600 130 692.5 130 c 128,-1,53
 785 130 785 130 868 171 c 0,54,55
 933 203 933 203 953 295 c 2,56,-1
 1039 700 l 2,57,58
 1045 726 1045 726 1045 746 c 0,59,60
 1045 800 1045 800 1007 824 c 0,61,42
 941 865 941 865 849 865 c 128,-1,43
EndSplineSet
Validated: 1
EndChar

StartChar: seven
Encoding: 55 55 26
Width: 1098
GlyphClass: 2
Flags: W
HStem: -20 21G<128 184.633> 1360 150<398 975>
DStem2: 128 -20 602 179 0.523098 0.852273<417.551 1619.2>
LayerCount: 2
Fore
SplineSet
138 -20 m 1,0,-1
 128 -20 l 1,1,-1
 975 1360 l 1,2,-1
 299 1360 l 1,3,-1
 301 1370 l 1,4,-1
 398 1510 l 1,5,-1
 1409 1510 l 1,6,-1
 1407 1500 l 1,7,-1
 602 179 l 1,8,-1
 138 -20 l 1,0,-1
EndSplineSet
Validated: 1
EndChar

StartChar: eight
Encoding: 56 56 27
Width: 1250
GlyphClass: 2
Flags: W
HStem: -20 150<477.835 855.768> 761 150<695.384 952.867> 1380 150<754.579 1052.43>
VStem: 137 307<164.374 463.094> 369 298<933.917 1206.22> 996 319<428.688 726.02 937.499 1062.15> 1071 284<1088.03 1357.05>
LayerCount: 2
Fore
SplineSet
653 130 m 152,-1,1
 755 130 755 130 837 165 c 0,2,3
 901 192 901 192 918 272 c 2,4,-1
 992 619 l 2,5,6
 996 638 996 638 996 654 c 0,7,8
 996 705 996 705 955 726 c 0,9,10
 887 761 887 761 786.5 761 c 152,-1,11
 686 761 686 761 603 726 c 0,12,13
 538 698 538 698 522 619 c 2,14,-1
 448 272 l 2,15,16
 444 252 444 252 444 236 c 0,17,18
 444 186 444 186 483 165 c 0,19,0
 551 130 551 130 653 130 c 152,-1,1
916.5 1380 m 152,-1,21
 843 1380 843 1380 783 1354 c 0,22,23
 739 1335 739 1335 728 1284 c 2,24,-1
 669 1007 l 2,25,26
 667 996 667 996 667 987 c 0,27,28
 667 954 667 954 694 937 c 0,29,30
 738 911 738 911 818.5 911 c 152,-1,31
 899 911 899 911 954 937 c 0,32,33
 998 958 998 958 1009 1007 c 2,34,-1
 1068 1284 l 2,35,36
 1071 1296 1071 1296 1071 1306 c 0,37,38
 1071 1340 1071 1340 1043 1354 c 0,39,20
 990 1380 990 1380 916.5 1380 c 152,-1,21
651 -20 m 24,40,41
 410 -20 410 -20 262 82 c 0,42,43
 137 169 137 169 137 319 c 0,44,45
 137 362 137 362 147 410 c 2,46,-1
 175 539 l 2,47,48
 229 787 229 787 440 856 c 1,49,50
 369 916 369 916 369 1005 c 0,51,52
 369 1031 369 1031 375 1060 c 2,53,-1
 397 1161 l 2,54,55
 438 1348 438 1348 575 1445 c 24,56,57
 695 1530 695 1530 920 1530 c 24,58,59
 1129 1530 1129 1530 1244 1445 c 0,60,61
 1355 1362 1355 1362 1355 1234 c 0,62,63
 1355 1199 1355 1199 1347 1161 c 2,64,-1
 1325 1060 l 2,65,66
 1296 926 1296 926 1175 851 c 1,67,68
 1315 775 1315 775 1315 624 c 0,69,70
 1315 584 1315 584 1305 539 c 2,71,-1
 1277 410 l 2,72,73
 1224 166 1224 166 1068 82 c 0,74,75
 878 -20 878 -20 651 -20 c 24,40,41
EndSplineSet
Validated: 1
EndChar

StartChar: nine
Encoding: 57 57 28
Width: 1310
GlyphClass: 2
Flags: W
HStem: -20 150<502.838 854.547> 495 150<623.49 963.581> 1380 150<758.357 1097.46>
VStem: 178 290<171.727 334> 276 310<686.757 873.11> 1134 301<1032.99 1339.85>
DStem2: 85.9215 -20 415.578 -20 0.207912 0.978148<875.226 1383.51> 865.393 -20 1185.39 -20 0.207912 0.978148<263.369 570.466 720.217 1307.43>
LayerCount: 2
Fore
SplineSet
666 -20 m 0,0,1
 437 -20 437 -20 290 82 c 0,2,3
 178 160 178 160 178 302 c 0,4,5
 178 318 178 318 179 334 c 1,6,-1
 502 481 l 1,7,-1
 512 481 l 1,8,-1
 473 295 l 2,9,10
 468 270 468 270 468 249 c 0,11,12
 468 194 468 194 504 171 c 0,13,14
 570 130 570 130 667.5 130 c 128,-1,15
 765 130 765 130 848 171 c 0,16,17
 914 203 914 203 933 295 c 2,18,-1
 984 538 l 1,19,20
 873 495 873 495 760 495 c 0,21,22
 546 495 546 495 400 597 c 0,23,24
 276 683 276 683 276 833 c 0,25,26
 276 877 276 877 287 926 c 2,27,-1
 324 1099 l 2,28,29
 378 1345 378 1345 532 1428 c 0,30,31
 722 1530 722 1530 936 1530 c 0,32,33
 1148 1530 1148 1530 1310 1428 c 0,34,35
 1435 1349 1435 1349 1435 1197 c 0,36,37
 1435 1151 1435 1151 1424 1099 c 2,38,-1
 1277 411 l 2,39,40
 1226 166 1226 166 1070 82 c 0,41,42
 880 -20 880 -20 666 -20 c 0,0,1
782 645 m 128,-1,44
 874 645 874 645 958 686 c 0,45,46
 1023 718 1023 718 1042 810 c 2,47,-1
 1128 1215 l 2,48,49
 1134 1241 1134 1241 1134 1262 c 0,50,51
 1134 1316 1134 1316 1097 1339 c 0,52,53
 1031 1380 1031 1380 938.5 1380 c 128,-1,54
 846 1380 846 1380 763 1339 c 0,55,56
 698 1307 698 1307 678 1215 c 2,57,-1
 592 810 l 2,58,59
 586 784 586 784 586 764 c 0,60,61
 586 710 586 710 624 686 c 0,62,43
 690 645 690 645 782 645 c 128,-1,44
EndSplineSet
Validated: 1
EndChar

StartChar: colon
Encoding: 58 58 29
Width: 420
GlyphClass: 2
Flags: W
HStem: -20 365<156.097 332.323> 573 365<282.097 458.323>
VStem: 60 495
LayerCount: 2
Fore
SplineSet
206 -20 m 0,0,1
 130 -20 130 -20 90 34 c 0,2,3
 60 73 60 73 60 123 c 0,4,5
 60 142 60 142 64 162 c 0,6,7
 80 238 80 238 144 291 c 0,8,9
 208 345 208 345 283 345 c 0,10,11
 359 345 359 345 400 292 c 0,12,13
 429 254 429 254 429 203 c 0,14,15
 429 184 429 184 425 163 c 0,16,17
 409 88 409 88 344.5 34 c 128,-1,18
 280 -20 280 -20 206 -20 c 0,0,1
409 938 m 0,19,20
 485 938 485 938 526 885 c 0,21,22
 555 847 555 847 555 796 c 0,23,24
 555 777 555 777 551 756 c 0,25,26
 535 681 535 681 470.5 627 c 128,-1,27
 406 573 406 573 332 573 c 0,28,29
 256 573 256 573 216 627 c 0,30,31
 186 666 186 666 186 716 c 0,32,33
 186 735 186 735 190 755 c 0,34,35
 206 831 206 831 270 884 c 0,36,37
 334 938 334 938 409 938 c 0,19,20
EndSplineSet
Validated: 1
EndChar

StartChar: semicolon
Encoding: 59 59 30
Width: 496
GlyphClass: 2
Flags: W
HStem: 573 365<320.097 496.323>
VStem: 203 283<-42.5039 147.058>
LayerCount: 2
Fore
SplineSet
75 212 m 1,0,-1
 371 338 l 1,1,-1
 381 338 l 1,2,3
 486 259 486 259 486 132 c 0,4,5
 486 95 486 95 477 54 c 0,6,7
 422 -203 422 -203 60 -328 c 1,8,-1
 55 -321 l 1,9,10
 166 -172 166 -172 197 -24 c 0,11,12
 203 3 203 3 203 28 c 0,13,14
 203 146 203 146 75 212 c 1,0,-1
447 938 m 0,15,16
 523 938 523 938 564 885 c 0,17,18
 593 847 593 847 593 796 c 0,19,20
 593 777 593 777 589 756 c 0,21,22
 573 681 573 681 508.5 627 c 128,-1,23
 444 573 444 573 370 573 c 0,24,25
 294 573 294 573 254 627 c 0,26,27
 224 666 224 666 224 716 c 0,28,29
 224 735 224 735 228 755 c 0,30,31
 244 831 244 831 308 884 c 0,32,33
 372 938 372 938 447 938 c 0,15,16
EndSplineSet
Validated: 1
EndChar

StartChar: less
Encoding: 60 60 31
Width: 1355
GlyphClass: 2
Flags: W
DStem2: 611 800 246 638 0.933479 -0.358631<0 679.37> 416 891 611 800 0.945835 0.324646<154.895 1017.63>
LayerCount: 2
Fore
SplineSet
416 891 m 1,0,-1
 1392 1226 l 1,1,-1
 1428 1093 l 1,2,-1
 1426 1083 l 1,3,-1
 611 800 l 1,4,-1
 1310 539 l 1,5,-1
 1307 529 l 1,6,-1
 1144 293 l 1,7,-1
 246 638 l 1,8,-1
 248 648 l 1,9,-1
 416 891 l 1,0,-1
EndSplineSet
Validated: 1
EndChar

StartChar: equal
Encoding: 61 61 32
Width: 1240
GlyphClass: 2
Flags: W
HStem: 390 270<375 1088> 850 270<473 1186>
LayerCount: 2
Fore
SplineSet
375 660 m 1,0,-1
 1270 660 l 1,1,-1
 1268 650 l 1,2,-1
 1088 390 l 1,3,-1
 193 390 l 1,4,-1
 195 400 l 1,5,-1
 375 660 l 1,0,-1
473 1120 m 1,6,-1
 1368 1120 l 1,7,-1
 1366 1110 l 1,8,-1
 1186 850 l 1,9,-1
 291 850 l 1,10,-1
 293 860 l 1,11,-1
 473 1120 l 1,6,-1
EndSplineSet
Validated: 1
EndChar

StartChar: greater
Encoding: 62 62 33
Width: 1355
GlyphClass: 2
Flags: W
DStem2: 250 427 284 284 0.945835 0.324646<0 862.731> 532 1217 366 971 0.933479 -0.358631<0 679.37>
LayerCount: 2
Fore
SplineSet
1260 619 m 1,0,-1
 284 284 l 1,1,-1
 248 417 l 1,2,-1
 250 427 l 1,3,-1
 1065 710 l 1,4,-1
 366 971 l 1,5,-1
 369 981 l 1,6,-1
 532 1217 l 1,7,-1
 1430 872 l 1,8,-1
 1428 862 l 1,9,-1
 1260 619 l 1,0,-1
EndSplineSet
Validated: 1
EndChar

StartChar: question
Encoding: 63 63 34
Width: 1320
GlyphClass: 2
Flags: W
HStem: -20 365<571.097 747.323> 1380 150<770.927 1106.39>
VStem: 1143 313<1030.59 1341.49>
LayerCount: 2
Fore
SplineSet
955 1530 m 128,-1,1
 1168 1530 1168 1530 1330 1428 c 0,2,3
 1456 1348 1456 1348 1456 1199 c 0,4,5
 1456 1152 1456 1152 1444 1099 c 2,6,-1
 1434 1056 l 2,7,8
 1370 782 1370 782 1022 658 c 0,9,10
 924 623 924 623 899 506 c 1,11,-1
 554 359 l 1,12,-1
 544 359 l 1,13,14
 598 612 598 612 864 721 c 0,15,16
 1051 798 1051 798 1101 1038 c 2,17,-1
 1138 1215 l 2,18,19
 1143 1239 1143 1239 1143 1259 c 0,20,21
 1143 1313 1143 1313 1107 1339 c 0,22,23
 1050 1380 1050 1380 949.5 1380 c 128,-1,24
 849 1380 849 1380 775 1339 c 0,25,26
 708 1303 708 1303 690 1215 c 2,27,-1
 666 1099 l 1,28,-1
 322 952 l 1,29,-1
 312 952 l 1,30,-1
 344 1099 l 2,31,32
 398 1345 398 1345 552 1428 c 0,33,0
 742 1530 742 1530 955 1530 c 128,-1,1
621 -20 m 0,34,35
 545 -20 545 -20 505 34 c 0,36,37
 475 73 475 73 475 123 c 0,38,39
 475 142 475 142 479 162 c 0,40,41
 495 238 495 238 559 291 c 0,42,43
 623 345 623 345 698 345 c 0,44,45
 774 345 774 345 815 292 c 0,46,47
 844 254 844 254 844 203 c 0,48,49
 844 184 844 184 840 163 c 0,50,51
 824 88 824 88 759.5 34 c 128,-1,52
 695 -20 695 -20 621 -20 c 0,34,35
EndSplineSet
Validated: 1
EndChar

StartChar: at
Encoding: 64 64 35
Width: 1420
GlyphClass: 2
Flags: W
HStem: -430 140<446.925 615> -20 140<866.536 986> 549 140<921.968 1097> 980 140<707.878 1107.79>
VStem: 129 277<-250.866 43.4375> 602 237<149.474 289.966> 1153 281<690.546 925.72>
DStem2: 48.8374 -430 348.296 -430 0.207912 0.978148<332.337 1371.88> 452.983 -430 702.35 -430 0.207912 0.978148<696.858 1034.29> 889.094 -430 1188.52 -430 0.207912 0.978148<622.497 1000.83 1142.97 1282.82>
LayerCount: 2
Fore
SplineSet
950 -20 m 2,0,1
 767 -20 767 -20 672 76 c 0,2,3
 602 147 602 147 602 242 c 0,4,5
 602 272 602 272 609 304 c 2,6,-1
 637 435 l 2,7,8
 664 563 664 563 759 618 c 0,9,10
 880 689 880 689 1070 689 c 2,11,-1
 1122 689 l 1,12,-1
 1149 814 l 2,13,14
 1153 834 1153 834 1153 851 c 0,15,16
 1153 902 1153 902 1116 930 c 0,17,18
 1050 980 1050 980 916.5 980 c 128,-1,19
 783 980 783 980 696 930 c 0,20,21
 630 892 630 892 613 814 c 2,22,-1
 411 -135 l 2,23,24
 406 -156 406 -156 406 -174 c 0,25,26
 406 -226 406 -226 445 -251 c 0,27,28
 506 -290 506 -290 643 -290 c 2,29,-1
 706 -290 l 1,30,-1
 704 -300 l 1,31,-1
 615 -430 l 1,32,33
 388 -430 388 -430 237 -332 c 0,34,35
 129 -262 129 -262 129 -109 c 0,36,37
 129 -54 129 -54 143 13 c 2,38,-1
 283 673 l 2,39,40
 333 910 333 910 494 1014 c 0,41,42
 657 1120 657 1120 919 1120 c 0,43,44
 1164 1120 1164 1120 1310 1010 c 0,45,46
 1434 917 1434 917 1434 767 c 0,47,48
 1434 724 1434 724 1424 677 c 2,49,-1
 1305 118 l 1,50,-1
 986 -20 l 1,51,-1
 950 -20 l 2,0,1
1006 120 m 1,52,-1
 1097 549 l 1,53,-1
 1073 549 l 2,54,55
 1004 549 1004 549 953 525 c 0,56,57
 901 501 901 501 890 451 c 2,58,-1
 842 227 l 2,59,60
 839 212 839 212 839 200 c 0,61,62
 839 164 839 164 865 149 c 8,63,64
 914 120 914 120 982 120 c 2,65,-1
 1006 120 l 1,52,-1
EndSplineSet
Validated: 1
EndChar

StartChar: A
Encoding: 65 65 36
Width: 1410
GlyphClass: 2
Flags: W
HStem: -20 21G<136 192.395 946 1002.39> 680 150<636 1095> 1380 150<799.091 1177.78>
VStem: 1214 301<1152.28 1338.27>
DStem2: 136 -20 455.754 -20 0.207912 0.978148<216.765 782.214 935.381 1382.81> 946 -20 1265.75 -20 0.207912 0.978148<216.765 715.682 868.85 1307.3>
LayerCount: 2
Fore
SplineSet
146 -20 m 1,0,-1
 136 -20 l 1,1,-1
 374 1099 l 2,2,3
 426 1344 426 1344 582 1428 c 0,4,5
 772 1530 772 1530 1000 1530 c 128,-1,6
 1228 1530 1228 1530 1390 1428 c 0,7,8
 1515 1349 1515 1349 1515 1197 c 0,9,10
 1515 1151 1515 1151 1504 1099 c 2,11,-1
 1297 127 l 1,12,-1
 956 -20 l 1,13,-1
 946 -20 l 1,14,-1
 1095 680 l 1,15,-1
 605 680 l 1,16,-1
 487 127 l 1,17,-1
 146 -20 l 1,0,-1
636 830 m 1,18,-1
 1126 830 l 1,19,-1
 1208 1215 l 2,20,21
 1214 1241 1214 1241 1214 1262 c 0,22,23
 1214 1316 1214 1316 1177 1339 c 0,24,25
 1111 1380 1111 1380 998.5 1380 c 128,-1,26
 886 1380 886 1380 803 1339 c 0,27,28
 738 1307 738 1307 718 1215 c 2,29,-1
 636 830 l 1,18,-1
EndSplineSet
Validated: 1
EndChar

StartChar: B
Encoding: 66 66 37
Width: 1290
GlyphClass: 2
Flags: W
HStem: 0 150<512 888.43> 748 150<671 1000.86> 1360 150<769 1082.46>
VStem: 1043 322<414.781 713.001 944.174 1052.65> 1112 290<1069.4 1336.15>
DStem2: 160 0 480.117 0 0.207912 0.978148<219.907 831.244 984.619 1414.88>
LayerCount: 2
Fore
SplineSet
639 748 m 1,0,-1
 512 150 l 1,1,-1
 697 150 l 2,2,3
 809 150 809 150 891 185 c 0,4,5
 955 212 955 212 972 292 c 2,6,-1
 1039 606 l 2,7,8
 1043 625 1043 625 1043 641 c 0,9,10
 1043 691 1043 691 1003 713 c 0,11,12
 935 748 935 748 824 748 c 2,13,-1
 639 748 l 1,0,-1
769 1360 m 1,14,-1
 671 898 l 1,15,-1
 856 898 l 2,16,17
 941 898 941 898 996 924 c 24,18,19
 1040 944 1040 944 1051 994 c 2,20,-1
 1109 1264 l 2,21,22
 1112 1276 1112 1276 1112 1286 c 0,23,24
 1112 1320 1112 1320 1084 1334 c 0,25,26
 1035 1360 1035 1360 954 1360 c 2,27,-1
 769 1360 l 1,14,-1
160 0 m 1,28,-1
 454 1384 l 1,29,-1
 749 1510 l 1,30,-1
 966 1510 l 2,31,32
 1175 1510 1175 1510 1290 1425 c 16,33,34
 1402 1344 1402 1344 1402 1216 c 0,35,36
 1402 1180 1402 1180 1393 1141 c 2,37,-1
 1375 1060 l 2,38,39
 1350 950 1350 950 1239 855 c 1,40,41
 1365 770 1365 770 1365 625 c 0,42,43
 1365 584 1365 584 1355 539 c 2,44,-1
 1331 430 l 2,45,46
 1276 186 1276 186 1122 102 c 0,47,48
 932 0 932 0 705 0 c 2,49,-1
 160 0 l 1,28,-1
EndSplineSet
Validated: 1
EndChar

StartChar: C
Encoding: 67 67 38
Width: 1260
GlyphClass: 2
Flags: W
HStem: -20 150<544.333 867.544> 1380 150<792.377 1111.11>
VStem: 196 312<171.788 360.946> 1148 307<1110.91 1341.07>
DStem2: 115.388 -20 446.045 -20 0.207912 0.978148<346.371 1382.94>
LayerCount: 2
Fore
SplineSet
696 -20 m 128,-1,1
 482 -20 482 -20 320 82 c 0,2,3
 196 160 196 160 196 313 c 0,4,5
 196 360 196 360 207 411 c 2,6,-1
 354 1099 l 2,7,8
 406 1344 406 1344 562 1428 c 0,9,10
 752 1530 752 1530 965 1530 c 0,11,12
 1192 1530 1192 1530 1341 1428 c 0,13,14
 1455 1350 1455 1350 1455 1190 c 0,15,16
 1455 1156 1455 1156 1448 1118 c 1,17,-1
 1101 967 l 1,18,-1
 1091 967 l 1,19,-1
 1143 1215 l 2,20,21
 1148 1239 1148 1239 1148 1257 c 0,22,23
 1148 1310 1148 1310 1112 1339 c 0,24,25
 1060 1380 1060 1380 964.5 1380 c 128,-1,26
 869 1380 869 1380 793 1339 c 0,27,28
 727 1303 727 1303 708 1215 c 2,29,-1
 513 295 l 2,30,31
 508 271 508 271 508 250 c 0,32,33
 508 196 508 196 544 171 c 0,34,35
 603 130 603 130 698.5 130 c 128,-1,36
 794 130 794 130 863 171 c 0,37,38
 930 211 930 211 948 295 c 2,39,-1
 971 405 l 1,40,-1
 1329 558 l 1,41,-1
 1339 558 l 1,42,-1
 1307 411 l 2,43,44
 1253 165 1253 165 1100 82 c 0,45,0
 910 -20 910 -20 696 -20 c 128,-1,1
EndSplineSet
Validated: 1
EndChar

StartChar: D
Encoding: 68 68 39
Width: 1390
GlyphClass: 2
Flags: W
HStem: 0 150<512 927.91> 1360 150<769 1159.93>
VStem: 1200 310<1017.25 1320.08>
DStem2: 160 0 480.117 0 0.207912 0.978148<219.907 1413.9> 939.995 0 1269.65 0 0.207912 0.978148<265.689 1267.33>
LayerCount: 2
Fore
SplineSet
512 150 m 1,0,-1
 727 150 l 2,1,2
 840 150 840 150 923 191 c 0,3,4
 988 223 988 223 1007 315 c 2,5,-1
 1194 1195 l 2,6,7
 1200 1221 1200 1221 1200 1241 c 0,8,9
 1200 1295 1200 1295 1162 1319 c 0,10,11
 1096 1360 1096 1360 984 1360 c 2,12,-1
 769 1360 l 1,13,-1
 512 150 l 1,0,-1
160 0 m 1,14,-1
 454 1383 l 1,15,-1
 749 1510 l 1,16,-1
 996 1510 l 2,17,18
 1224 1510 1224 1510 1386 1408 c 0,19,20
 1510 1330 1510 1330 1510 1177 c 0,21,22
 1510 1131 1510 1131 1499 1079 c 2,23,-1
 1362 431 l 2,24,25
 1310 186 1310 186 1154 102 c 0,26,27
 964 0 964 0 735 0 c 2,28,-1
 160 0 l 1,14,-1
EndSplineSet
Validated: 1
EndChar

StartChar: E
Encoding: 69 69 40
Width: 1100
GlyphClass: 2
Flags: W
HStem: 0 150<512 1023> 680 150<656 1118> 1360 150<769 1262>
DStem2: 160 0 480.117 0 0.207912 0.978148<219.907 761.819 914.987 1414.88>
CounterMasks: 1 e0
LayerCount: 2
Fore
SplineSet
160 0 m 1,0,-1
 454 1384 l 1,1,-1
 749 1510 l 1,2,-1
 1361 1510 l 1,3,-1
 1359 1500 l 1,4,-1
 1262 1360 l 1,5,-1
 769 1360 l 1,6,-1
 656 830 l 1,7,-1
 1216 830 l 1,8,-1
 1214 820 l 1,9,-1
 1118 680 l 1,10,-1
 625 680 l 1,11,-1
 512 150 l 1,12,-1
 1122 150 l 1,13,-1
 1120 140 l 1,14,-1
 1023 0 l 1,15,-1
 160 0 l 1,0,-1
EndSplineSet
Validated: 1
EndChar

StartChar: F
Encoding: 70 70 41
Width: 1050
GlyphClass: 2
Flags: W
HStem: -20 21G<156 212.395> 680 150<656 1118> 1360 150<769 1262>
DStem2: 156 -20 475.754 -20 0.207912 0.978148<216.765 782.214 935.381 1435.28>
LayerCount: 2
Fore
SplineSet
166 -20 m 1,0,-1
 156 -20 l 1,1,-1
 454 1384 l 1,2,-1
 749 1510 l 1,3,-1
 1361 1510 l 1,4,-1
 1359 1500 l 1,5,-1
 1262 1360 l 1,6,-1
 769 1360 l 1,7,-1
 656 830 l 1,8,-1
 1216 830 l 1,9,-1
 1214 820 l 1,10,-1
 1118 680 l 1,11,-1
 625 680 l 1,12,-1
 507 127 l 1,13,-1
 166 -20 l 1,0,-1
EndSplineSet
Validated: 1
EndChar

StartChar: G
Encoding: 71 71 42
Width: 1340
GlyphClass: 2
Flags: W
HStem: -20 150<555.375 881.415> 680 150<810 1045> 1380 150<799.51 1113.07>
VStem: 196 322<171.85 360.946> 1148 307<1110.91 1341.81>
DStem2: 115.388 -20 456.045 -20 0.207912 0.978148<350.346 1382.94> 896.21 -20 1215.33 -20 0.207912 0.978148<262.398 715.638>
CounterMasks: 1 e0
LayerCount: 2
Fore
SplineSet
696 -20 m 128,-1,1
 482 -20 482 -20 320 82 c 0,2,3
 196 160 196 160 196 313 c 0,4,5
 196 360 196 360 207 411 c 2,6,-1
 354 1099 l 2,7,8
 406 1344 406 1344 562 1428 c 0,9,10
 752 1530 752 1530 965 1530 c 0,11,12
 1187 1530 1187 1530 1341 1428 c 0,13,14
 1455 1353 1455 1353 1455 1190 c 0,15,16
 1455 1156 1455 1156 1448 1118 c 1,17,-1
 1101 967 l 1,18,-1
 1091 967 l 1,19,-1
 1143 1215 l 2,20,21
 1148 1239 1148 1239 1148 1257 c 0,22,23
 1148 1310 1148 1310 1112 1339 c 0,24,25
 1060 1380 1060 1380 965 1380 c 0,26,27
 879 1380 879 1380 803 1339 c 0,28,29
 737 1303 737 1303 718 1215 c 2,30,-1
 523 295 l 2,31,32
 518 271 518 271 518 252 c 0,33,34
 518 198 518 198 554 171 c 0,35,36
 609 130 609 130 709.5 130 c 128,-1,37
 810 130 810 130 878 171 c 0,38,39
 945 211 945 211 963 295 c 2,40,-1
 1045 680 l 1,41,-1
 712 680 l 1,42,-1
 714 690 l 1,43,-1
 810 830 l 1,44,-1
 1396 830 l 1,45,-1
 1307 411 l 2,46,47
 1255 165 1255 165 1100 82 c 0,48,0
 910 -20 910 -20 696 -20 c 128,-1,1
EndSplineSet
Validated: 1
EndChar

StartChar: H
Encoding: 72 72 43
Width: 1440
GlyphClass: 2
Flags: W
HStem: -20 21G<156 212.395 956 1012.39> 680 150<656 1105> 1510 20G<748.605 805 1548.61 1605>
DStem2: 156 -20 475.754 -20 0.207912 0.978148<216.765 782.214 935.381 1434.3> 956 -20 1275.75 -20 0.207912 0.978148<216.765 715.682 868.85 1434.3>
LayerCount: 2
Fore
SplineSet
166 -20 m 1,0,-1
 156 -20 l 1,1,-1
 454 1383 l 1,2,-1
 795 1530 l 1,3,-1
 805 1530 l 1,4,-1
 656 830 l 1,5,-1
 1136 830 l 1,6,-1
 1254 1383 l 1,7,-1
 1595 1530 l 1,8,-1
 1605 1530 l 1,9,-1
 1307 127 l 1,10,-1
 966 -20 l 1,11,-1
 956 -20 l 1,12,-1
 1105 680 l 1,13,-1
 625 680 l 1,14,-1
 507 127 l 1,15,-1
 166 -20 l 1,0,-1
EndSplineSet
Validated: 1
EndChar

StartChar: I
Encoding: 73 73 44
Width: 640
GlyphClass: 2
Flags: W
HStem: -20 21G<156 212.395> 1510 20G<748.605 805>
VStem: 156 649
DStem2: 156 -20 475.754 -20 0.207912 0.978148<216.765 1434.3>
LayerCount: 2
Fore
SplineSet
166 -20 m 1,0,-1
 156 -20 l 1,1,-1
 454 1383 l 1,2,-1
 795 1530 l 1,3,-1
 805 1530 l 1,4,-1
 507 127 l 1,5,-1
 166 -20 l 1,0,-1
EndSplineSet
Validated: 1
EndChar

StartChar: J
Encoding: 74 74 45
Width: 1191
GlyphClass: 2
Flags: W
HStem: -20 150<430.861 734.743> 1360 150<494 1040>
VStem: 88 306<168.862 399.383>
DStem2: 746.672 -20 1066.79 -20 0.207912 0.978148<267.908 1410.83>
LayerCount: 2
Fore
SplineSet
562 -20 m 0,0,1
 350 -20 350 -20 201 82 c 0,2,3
 88 159 88 159 88 323 c 0,4,5
 88 356 88 356 94 393 c 1,6,-1
 441 542 l 1,7,-1
 451 542 l 1,8,-1
 399 295 l 2,9,10
 394 271 394 271 394 249 c 0,11,12
 394 193 394 193 430 171 c 0,13,14
 496 130 496 130 571 130 c 128,-1,15
 646 130 646 130 729 171 c 0,16,17
 795 203 795 203 814 295 c 2,18,-1
 1040 1360 l 1,19,-1
 395 1360 l 1,20,-1
 397 1370 l 1,21,-1
 494 1510 l 1,22,-1
 1392 1510 l 1,23,-1
 1158 411 l 2,24,25
 1106 165 1106 165 951 82 c 0,26,27
 761 -20 761 -20 562 -20 c 0,0,1
EndSplineSet
Validated: 1
EndChar

StartChar: K
Encoding: 75 75 46
Width: 1380
GlyphClass: 2
Flags: W
HStem: -20 21G<156 212.395 936 992.395> 1510 20G<748.605 805 1365.71 1442.5>
VStem: 1116 300<732.851 921.243>
DStem2: 156 -20 475.754 -20 0.207912 0.978148<216.765 1029.66 1150.15 1434.3> 701 1040 1048 1101 0.81651 0.577331<318.546 848.734> 936 -20 1255.75 -20 0.207912 0.978148<216.765 877.116>
LayerCount: 2
Fore
SplineSet
166 -20 m 1,0,-1
 156 -20 l 1,1,-1
 454 1383 l 1,2,-1
 795 1530 l 1,3,-1
 805 1530 l 1,4,-1
 701 1040 l 1,5,-1
 1394 1530 l 1,6,-1
 1404 1530 l 1,7,-1
 1558 1450 l 1,8,-1
 1048 1101 l 1,9,10
 1183 1088 1183 1088 1294 1011 c 0,11,12
 1416 926 1416 926 1416 776 c 0,13,14
 1416 734 1416 734 1405 682 c 2,15,-1
 1287 127 l 1,16,-1
 946 -20 l 1,17,-1
 936 -20 l 1,18,-1
 1110 798 l 2,19,20
 1116 826 1116 826 1116 844 c 0,21,22
 1116 898 1116 898 1078 922 c 0,23,24
 1012 963 1012 963 915 963 c 128,-1,25
 818 963 818 963 734 922 c 0,26,27
 670 890 670 890 650 798 c 2,28,-1
 507 127 l 1,29,-1
 166 -20 l 1,0,-1
EndSplineSet
Validated: 1
EndChar

StartChar: L
Encoding: 76 76 47
Width: 1100
GlyphClass: 2
Flags: W
HStem: 0 150<512 1023> 1510 20G<748.288 805>
DStem2: 160 0 480.117 0 0.207912 0.978148<219.907 1414.88>
LayerCount: 2
Fore
SplineSet
160 0 m 1,0,-1
 454 1384 l 1,1,-1
 795 1530 l 1,2,-1
 805 1530 l 1,3,-1
 512 150 l 1,4,-1
 1122 150 l 1,5,-1
 1120 140 l 1,6,-1
 1023 0 l 1,7,-1
 160 0 l 1,0,-1
EndSplineSet
Validated: 1
EndChar

StartChar: M
Encoding: 77 77 48
Width: 2220
GlyphClass: 2
Flags: W
HStem: -20 21G<136 192.395 946 1002.39 1756 1812.39> 1380 150<799.465 1178.7 1607.17 1987.61>
VStem: 2024 301<1148.94 1338.27>
DStem2: 136 -20 455.754 -20 0.207912 0.978148<216.765 1382.81> 946 -20 1265.75 -20 0.207912 0.978148<216.765 1309.06> 1756 -20 2075.75 -20 0.207912 0.978148<216.765 1307.3>
LayerCount: 2
Fore
SplineSet
146 -20 m 1,0,-1
 136 -20 l 1,1,-1
 374 1099 l 2,2,3
 426 1344 426 1344 582 1428 c 0,4,5
 772 1530 772 1530 1002.5 1530 c 128,-1,6
 1233 1530 1233 1530 1382 1423 c 1,7,8
 1579 1530 1579 1530 1809 1530 c 0,9,10
 2038 1530 2038 1530 2200 1428 c 0,11,12
 2325 1349 2325 1349 2325 1197 c 0,13,14
 2325 1151 2325 1151 2314 1099 c 2,15,-1
 2107 127 l 1,16,-1
 1766 -20 l 1,17,-1
 1756 -20 l 1,18,-1
 2018 1215 l 2,19,20
 2024 1241 2024 1241 2024 1262 c 0,21,22
 2024 1316 2024 1316 1987 1339 c 0,23,24
 1921 1380 1921 1380 1808.5 1380 c 128,-1,25
 1696 1380 1696 1380 1613 1339 c 0,26,27
 1548 1307 1548 1307 1528 1215 c 2,28,-1
 1297 127 l 1,29,-1
 956 -20 l 1,30,-1
 946 -20 l 1,31,-1
 1208 1215 l 2,32,33
 1214 1241 1214 1241 1214 1262 c 0,34,35
 1214 1316 1214 1316 1177 1339 c 0,36,37
 1111 1380 1111 1380 998.5 1380 c 128,-1,38
 886 1380 886 1380 803 1339 c 0,39,40
 738 1307 738 1307 718 1215 c 2,41,-1
 487 127 l 1,42,-1
 146 -20 l 1,0,-1
EndSplineSet
Validated: 1
EndChar

StartChar: N
Encoding: 78 78 49
Width: 1410
GlyphClass: 2
Flags: W
HStem: -20 21G<136 192.395 946 1002.39> 1380 150<799.091 1177.78>
VStem: 1214 301<1148.94 1338.27>
DStem2: 136 -20 455.754 -20 0.207912 0.978148<216.765 1382.81> 946 -20 1265.75 -20 0.207912 0.978148<216.765 1307.3>
LayerCount: 2
Fore
SplineSet
146 -20 m 1,0,-1
 136 -20 l 1,1,-1
 374 1099 l 2,2,3
 426 1344 426 1344 582 1428 c 0,4,5
 772 1530 772 1530 1000 1530 c 128,-1,6
 1228 1530 1228 1530 1390 1428 c 0,7,8
 1515 1349 1515 1349 1515 1197 c 0,9,10
 1515 1151 1515 1151 1504 1099 c 2,11,-1
 1297 127 l 1,12,-1
 956 -20 l 1,13,-1
 946 -20 l 1,14,-1
 1208 1215 l 2,15,16
 1214 1241 1214 1241 1214 1262 c 0,17,18
 1214 1316 1214 1316 1177 1339 c 0,19,20
 1111 1380 1111 1380 998.5 1380 c 128,-1,21
 886 1380 886 1380 803 1339 c 0,22,23
 738 1307 738 1307 718 1215 c 2,24,-1
 487 127 l 1,25,-1
 146 -20 l 1,0,-1
EndSplineSet
Validated: 1
EndChar

StartChar: O
Encoding: 79 79 50
Width: 1370
GlyphClass: 2
Flags: W
HStem: -20 150<543.637 903.953> 1380 150<787.389 1146.49>
VStem: 197 310<170.367 471.5> 1184 311<1038.5 1339.85>
DStem2: 115.388 -20 446.045 -20 0.207912 0.978148<348.929 1383.62> 915.493 -20 1246.15 -20 0.207912 0.978148<265.679 1309.17>
LayerCount: 2
Fore
SplineSet
713 130 m 128,-1,1
 815 130 815 130 898 171 c 0,2,3
 963 203 963 203 983 295 c 2,4,-1
 1178 1215 l 2,5,6
 1184 1241 1184 1241 1184 1262 c 0,7,8
 1184 1316 1184 1316 1147 1339 c 0,9,10
 1081 1380 1081 1380 978.5 1380 c 128,-1,11
 876 1380 876 1380 793 1339 c 0,12,13
 728 1307 728 1307 708 1215 c 2,14,-1
 513 295 l 2,15,16
 507 269 507 269 507 248 c 0,17,18
 507 194 507 194 544 171 c 0,19,0
 611 130 611 130 713 130 c 128,-1,1
711 -20 m 0,20,21
 466 -20 466 -20 320 82 c 0,22,23
 197 167 197 167 197 318 c 0,24,25
 197 362 197 362 207 411 c 2,26,-1
 354 1099 l 2,27,28
 408 1345 408 1345 562 1428 c 0,29,30
 752 1530 752 1530 980 1530 c 128,-1,31
 1208 1530 1208 1530 1370 1428 c 0,32,33
 1495 1349 1495 1349 1495 1197 c 0,34,35
 1495 1151 1495 1151 1484 1099 c 2,36,-1
 1337 411 l 2,37,38
 1286 166 1286 166 1130 82 c 0,39,40
 940 -20 940 -20 711 -20 c 0,20,21
EndSplineSet
Validated: 1
EndChar

StartChar: P
Encoding: 80 80 51
Width: 1270
GlyphClass: 2
Flags: W
HStem: -20 21G<156 212.395> 440 150<605 991.91> 1360 150<769 1129.93>
VStem: 1170 310<1015.12 1320.08>
DStem2: 156 -20 475.754 -20 0.207912 0.978148<216.765 536.855 690.022 1434.3> 905.744 -20 1235.4 -20 0.207912 0.978148<735.476 1287.77>
LayerCount: 2
Fore
SplineSet
769 1360 m 1,0,-1
 605 590 l 1,1,-1
 790 590 l 2,2,3
 903 590 903 590 986 631 c 0,4,5
 1051 663 1051 663 1070 755 c 2,6,-1
 1164 1195 l 2,7,8
 1170 1221 1170 1221 1170 1241 c 0,9,10
 1170 1295 1170 1295 1132 1319 c 0,11,12
 1066 1360 1066 1360 954 1360 c 2,13,-1
 769 1360 l 1,0,-1
166 -20 m 1,14,-1
 156 -20 l 1,15,-1
 454 1383 l 1,16,-1
 749 1510 l 1,17,-1
 966 1510 l 2,18,19
 1194 1510 1194 1510 1356 1408 c 0,20,21
 1480 1330 1480 1330 1480 1177 c 0,22,23
 1480 1131 1480 1131 1469 1079 c 2,24,-1
 1425 871 l 2,25,26
 1374 626 1374 626 1218 542 c 0,27,28
 1028 440 1028 440 799 440 c 2,29,-1
 574 440 l 1,30,-1
 507 127 l 1,31,-1
 166 -20 l 1,14,-1
EndSplineSet
Validated: 1
EndChar

StartChar: Q
Encoding: 81 81 52
Width: 1370
GlyphClass: 2
Flags: W
HStem: -40 21G<880.744 964.505> -20 150<532.602 797.983> 1380 150<779.091 1157.78>
VStem: 197 300<170.367 471.5> 1194 301<1037.8 1339.85>
DStem2: 111.137 -40 431.794 -40 0.207912 0.978148<369.375 1403.62> 921.224 -40 1241.14 -40 0.207912 0.978148<471.763 1327.86>
LayerCount: 2
Fore
SplineSet
603 512 m 1,0,-1
 910 609 l 1,1,-1
 920 609 l 1,2,-1
 1019 420 l 1,3,-1
 1188 1215 l 2,4,5
 1194 1241 1194 1241 1194 1262 c 0,6,7
 1194 1316 1194 1316 1157 1339 c 0,8,9
 1091 1380 1091 1380 978.5 1380 c 128,-1,10
 866 1380 866 1380 783 1339 c 0,11,12
 718 1307 718 1307 698 1215 c 2,13,-1
 503 295 l 2,14,15
 497 269 497 269 497 248 c 0,16,17
 497 194 497 194 534 171 c 0,18,19
 600 130 600 130 713 130 c 0,20,21
 759 130 759 130 799 137 c 1,22,-1
 603 512 l 1,0,-1
696 -20 m 0,23,24
 466 -20 466 -20 320 82 c 0,25,26
 197 167 197 167 197 318 c 0,27,28
 197 362 197 362 207 411 c 2,29,-1
 354 1099 l 2,30,31
 408 1345 408 1345 562 1428 c 0,32,33
 752 1530 752 1530 980 1530 c 128,-1,34
 1208 1530 1208 1530 1370 1428 c 0,35,36
 1495 1349 1495 1349 1495 1197 c 0,37,38
 1495 1151 1495 1151 1484 1099 c 2,39,-1
 1337 411 l 2,40,41
 1299 232 1299 232 1171 129 c 1,42,-1
 1209 57 l 1,43,-1
 901 -40 l 1,44,-1
 891 -40 l 1,45,-1
 871 -1 l 1,46,47
 780 -20 780 -20 696 -20 c 0,23,24
EndSplineSet
Validated: 1
EndChar

StartChar: R
Encoding: 82 82 53
Width: 1369
GlyphClass: 2
Flags: W
HStem: -20 21G<156 212.395 1044.09 1114.52> 440 150<605 782> 1360 150<769 1129.93>
VStem: 1170 309<1015.12 1319.37>
DStem2: 156 -20 475.754 -20 0.207912 0.978148<216.765 536.855 690.022 1434.3> 1108 504 782 440 0.511747 -0.859136<0 423.577> 905.744 -20 1235.4 -20 0.207912 0.978148<738.3 1283.79>
LayerCount: 2
Fore
SplineSet
769 1360 m 1,0,-1
 605 590 l 1,1,-1
 790 590 l 2,2,3
 903 590 903 590 986 631 c 0,4,5
 1051 663 1051 663 1070 755 c 2,6,-1
 1164 1195 l 2,7,8
 1170 1221 1170 1221 1170 1241 c 0,9,10
 1170 1295 1170 1295 1132 1319 c 0,11,12
 1066 1360 1066 1360 954 1360 c 2,13,-1
 769 1360 l 1,0,-1
166 -20 m 1,14,-1
 156 -20 l 1,15,-1
 454 1383 l 1,16,-1
 749 1510 l 1,17,-1
 966 1510 l 2,18,19
 1210 1510 1210 1510 1356 1408 c 0,20,21
 1479 1322 1479 1322 1479 1172 c 0,22,23
 1479 1128 1479 1128 1469 1079 c 2,24,-1
 1425 871 l 2,25,26
 1374 630 1374 630 1217 542 c 0,27,28
 1169 515 1169 515 1108 504 c 1,29,-1
 1362 102 l 1,30,-1
 1066 -20 l 1,31,-1
 1056 -20 l 1,32,-1
 782 440 l 1,33,-1
 574 440 l 1,34,-1
 507 127 l 1,35,-1
 166 -20 l 1,14,-1
EndSplineSet
Validated: 1
EndChar

StartChar: T
Encoding: 84 84 54
Width: 1190
GlyphClass: 2
Flags: W
HStem: -20 21G<431 487.712> 1360 150<398 724 1044 1402>
DStem2: 431 -20 750.967 -20 0.207912 0.978148<215.787 1410.76>
LayerCount: 2
Fore
SplineSet
441 -20 m 1,0,-1
 431 -20 l 1,1,-1
 724 1360 l 1,2,-1
 299 1360 l 1,3,-1
 301 1370 l 1,4,-1
 398 1510 l 1,5,-1
 1501 1510 l 1,6,-1
 1499 1500 l 1,7,-1
 1402 1360 l 1,8,-1
 1044 1360 l 1,9,-1
 782 126 l 1,10,-1
 441 -20 l 1,0,-1
EndSplineSet
Validated: 1
EndChar

StartChar: U
Encoding: 85 85 55
Width: 1410
GlyphClass: 2
Flags: W
HStem: -20 150<552.89 932.259> 1510 20G<728.605 785 1538.61 1595>
VStem: 216 301<171.726 361.063>
DStem2: 135.388 -20 456.045 -20 0.207912 0.978148<343.891 1434.43> 945.783 -20 1265.54 -20 0.207912 0.978148<263.194 1434.34>
LayerCount: 2
Fore
SplineSet
731 -20 m 128,-1,1
 502 -20 502 -20 340 82 c 0,2,3
 216 160 216 160 216 313 c 0,4,5
 216 359 216 359 227 411 c 2,6,-1
 434 1383 l 1,7,-1
 775 1530 l 1,8,-1
 785 1530 l 1,9,-1
 523 295 l 2,10,11
 517 269 517 269 517 248 c 0,12,13
 517 194 517 194 554 171 c 0,14,15
 620 130 620 130 732.5 130 c 128,-1,16
 845 130 845 130 928 171 c 0,17,18
 993 203 993 203 1013 295 c 2,19,-1
 1244 1383 l 1,20,-1
 1585 1530 l 1,21,-1
 1595 1530 l 1,22,-1
 1357 411 l 2,23,24
 1306 166 1306 166 1150 82 c 0,25,0
 960 -20 960 -20 731 -20 c 128,-1,1
EndSplineSet
Validated: 1
EndChar

StartChar: V
Encoding: 86 86 56
Width: 1378
GlyphClass: 2
Flags: W
HStem: -20 21G<544.578 604.508> 1510 20G<544.71 604.418 1525.56 1585.5>
DStem2: 601 1530 304 1406 0.168657 -0.985675<72.1326 1199.14> 803 348 851 106 0.524097 0.851658<0 1391.87>
LayerCount: 2
Fore
SplineSet
558 -20 m 1,0,-1
 548 -20 l 1,1,-1
 304 1406 l 1,2,-1
 591 1530 l 1,3,-1
 601 1530 l 1,4,-1
 803 348 l 1,5,-1
 1538 1530 l 1,6,-1
 1548 1530 l 1,7,-1
 1683 1458 l 1,8,-1
 851 106 l 1,9,-1
 558 -20 l 1,0,-1
EndSplineSet
Validated: 1
EndChar

StartChar: W
Encoding: 87 87 57
Width: 2220
GlyphClass: 2
Flags: W
HStem: -20 150<553.057 933.726 1362.29 1741.96> 1510 20G<728.605 785 1538.61 1595 2348.61 2405>
VStem: 216 301<171.726 361.063>
DStem2: 135.388 -20 456.045 -20 0.207912 0.978148<343.891 1434.43> 946.045 -20 1266.04 -20 0.207912 0.978148<341.992 1434.29> 1755.78 -20 2075.54 -20 0.207912 0.978148<263.194 1434.34>
LayerCount: 2
Fore
SplineSet
732 -20 m 128,-1,1
 502 -20 502 -20 340 82 c 0,2,3
 216 160 216 160 216 313 c 0,4,5
 216 359 216 359 227 411 c 2,6,-1
 434 1383 l 1,7,-1
 775 1530 l 1,8,-1
 785 1530 l 1,9,-1
 523 295 l 2,10,11
 517 269 517 269 517 248 c 0,12,13
 517 194 517 194 554 171 c 0,14,15
 620 130 620 130 732.5 130 c 128,-1,16
 845 130 845 130 928 171 c 0,17,18
 993 203 993 203 1013 295 c 2,19,-1
 1244 1383 l 1,20,-1
 1585 1530 l 1,21,-1
 1595 1530 l 1,22,-1
 1333 295 l 2,23,24
 1327 269 1327 269 1327 248 c 0,25,26
 1327 194 1327 194 1364 171 c 0,27,28
 1430 130 1430 130 1542.5 130 c 128,-1,29
 1655 130 1655 130 1738 171 c 0,30,31
 1803 203 1803 203 1823 295 c 2,32,-1
 2054 1383 l 1,33,-1
 2395 1530 l 1,34,-1
 2405 1530 l 1,35,-1
 2167 411 l 2,36,37
 2116 166 2116 166 1960 82 c 0,38,39
 1770 -20 1770 -20 1539 -20 c 128,-1,40
 1308 -20 1308 -20 1158 87 c 1,41,0
 962 -20 962 -20 732 -20 c 128,-1,1
EndSplineSet
Validated: 1
EndChar

StartChar: X
Encoding: 88 88 58
Width: 1254
GlyphClass: 2
Flags: W
HStem: -20 21G<120.944 187.754 973.588 1039.5> 1510 20G<535.898 601.396 1388.24 1454.53>
DStem2: 22 52 169 -20 0.683777 0.729691<47.9774 840.346 1231.73 2025.51> 592 1530 310 1412 0.425097 -0.905148<0 639.707 930.39 1569.19>
LayerCount: 2
Fore
SplineSet
169 -20 m 1,0,-1
 159 -20 l 1,1,-1
 22 52 l 1,2,-1
 639 711 l 1,3,-1
 310 1412 l 1,4,-1
 582 1530 l 1,5,-1
 592 1530 l 1,6,-1
 864 951 l 1,7,-1
 1407 1530 l 1,8,-1
 1417 1530 l 1,9,-1
 1554 1457 l 1,10,-1
 936 798 l 1,11,-1
 1265 97 l 1,12,-1
 993 -20 l 1,13,-1
 983 -20 l 1,14,-1
 711 558 l 1,15,-1
 169 -20 l 1,0,-1
EndSplineSet
Validated: 1
EndChar

StartChar: Y
Encoding: 89 89 59
Width: 1270
GlyphClass: 2
Flags: W
HStem: -20 21G<471 527.395> 1510 20G<668.605 725 1458.61 1515>
VStem: 243 299<574.757 763.178>
DStem2: 75.7278 -20 395.384 -20 0.207912 0.978148<760.932 1434.36> 865.783 -20 1185.54 -20 0.207912 0.978148<675.085 1434.34>
LayerCount: 2
Fore
SplineSet
481 -20 m 1,0,-1
 471 -20 l 1,1,-1
 560 398 l 1,2,3
 463 418 463 418 366 485 c 0,4,5
 243 571 243 571 243 721 c 0,6,7
 243 765 243 765 253 814 c 2,8,-1
 374 1383 l 1,9,-1
 715 1530 l 1,10,-1
 725 1530 l 1,11,-1
 548 698 l 2,12,13
 542 672 542 672 542 652 c 0,14,15
 542 598 542 598 580 574 c 0,16,17
 646 533 646 533 748 533 c 128,-1,18
 850 533 850 533 934 574 c 0,19,20
 998 606 998 606 1018 698 c 2,21,-1
 1164 1383 l 1,22,-1
 1505 1530 l 1,23,-1
 1515 1530 l 1,24,-1
 1363 814 l 2,25,26
 1311 567 1311 567 1155 485 c 0,27,28
 1030 418 1030 418 880 398 c 1,29,-1
 822 127 l 1,30,-1
 481 -20 l 1,0,-1
EndSplineSet
Validated: 1
EndChar

StartChar: Z
Encoding: 90 90 60
Width: 1138
GlyphClass: 2
Flags: W
HStem: 0 150<475 1061> 1360 150<429 984>
DStem2: 12 10 475 150 0.584305 0.811534<384.148 1663.52>
LayerCount: 2
Fore
SplineSet
10 0 m 1,0,-1
 12 10 l 1,1,-1
 984 1360 l 1,2,-1
 330 1360 l 1,3,-1
 332 1370 l 1,4,-1
 429 1510 l 1,5,-1
 1449 1510 l 1,6,-1
 1447 1500 l 1,7,-1
 475 150 l 1,8,-1
 1160 150 l 1,9,-1
 1158 140 l 1,10,-1
 1061 0 l 1,11,-1
 10 0 l 1,0,-1
EndSplineSet
Validated: 1
EndChar

StartChar: bracketleft
Encoding: 91 91 61
Width: 920
GlyphClass: 2
Flags: W
HStem: -240 150<461 792> 1600 150<820 1183>
DStem2: 109 -240 429.117 -240 0.207912 0.978148<219.907 1905.6>
LayerCount: 2
Fore
SplineSet
109 -240 m 1,0,-1
 505 1624 l 1,1,-1
 800 1750 l 1,2,-1
 1282 1750 l 1,3,-1
 1280 1740 l 1,4,-1
 1183 1600 l 1,5,-1
 820 1600 l 1,6,-1
 461 -90 l 1,7,-1
 891 -90 l 1,8,-1
 889 -100 l 1,9,-1
 792 -240 l 1,10,-1
 109 -240 l 1,0,-1
EndSplineSet
Validated: 1
EndChar

StartChar: backslash
Encoding: 92 92 62
Width: 1069
GlyphClass: 2
Flags: W
DStem2: 601 1710 351 1606 0.235692 -0.971828<42.147 1858.35>
LayerCount: 2
Fore
SplineSet
797 -200 m 1,0,-1
 787 -200 l 1,1,-1
 351 1606 l 1,2,-1
 591 1710 l 1,3,-1
 601 1710 l 1,4,-1
 1039 -96 l 1,5,-1
 797 -200 l 1,0,-1
EndSplineSet
Validated: 1
EndChar

StartChar: bracketright
Encoding: 93 93 63
Width: 920
GlyphClass: 2
Flags: W
HStem: -240 150<58 421> 1600 150<449 780>
DStem2: 389.117 -240 709.218 -240 0.207912 0.978148<195.368 1881.06>
LayerCount: 2
Fore
SplineSet
441 -240 m 1,0,-1
 -41 -240 l 1,1,-1
 -39 -230 l 1,2,-1
 58 -90 l 1,3,-1
 421 -90 l 1,4,-1
 780 1600 l 1,5,-1
 350 1600 l 1,6,-1
 352 1610 l 1,7,-1
 449 1750 l 1,8,-1
 1132 1750 l 1,9,-1
 736 -114 l 1,10,-1
 441 -240 l 1,0,-1
EndSplineSet
Validated: 1
EndChar

StartChar: asciicircum
Encoding: 94 94 64
Width: 1062
GlyphClass: 2
Flags: W
HStem: 1039 531
LayerCount: 2
Fore
SplineSet
657 1442 m 1,0,-1
 953 1570 l 1,1,-1
 963 1570 l 1,2,-1
 1279 1161 l 1,3,-1
 997 1039 l 1,4,-1
 987 1039 l 1,5,-1
 763 1329 l 1,6,-1
 426 1039 l 1,7,-1
 416 1039 l 1,8,-1
 268 1118 l 1,9,-1
 657 1442 l 1,0,-1
EndSplineSet
Validated: 1
EndChar

StartChar: underscore
Encoding: 95 95 65
Width: 1404
GlyphClass: 2
Flags: W
HStem: -410 200<156 1116>
LayerCount: 2
Fore
SplineSet
23 -410 m 1,0,-1
 25 -400 l 1,1,-1
 156 -210 l 1,2,-1
 1249 -210 l 1,3,-1
 1247 -220 l 1,4,-1
 1116 -410 l 1,5,-1
 23 -410 l 1,0,-1
EndSplineSet
Validated: 1
EndChar

StartChar: grave
Encoding: 96 96 66
Width: 405
GlyphClass: 2
Flags: W
HStem: 1160 410
VStem: 346 293
DStem2: 554 1570 346 1485 0.252301 -0.967649<29.7715 336.899>
LayerCount: 2
Fore
SplineSet
544 1570 m 1,0,-1
 554 1570 l 1,1,-1
 639 1244 l 1,2,-1
 444 1160 l 1,3,-1
 434 1160 l 1,4,-1
 346 1485 l 1,5,-1
 544 1570 l 1,0,-1
EndSplineSet
Validated: 1
EndChar

StartChar: a
Encoding: 97 97 67
Width: 1100
GlyphClass: 2
Flags: W
HStem: -20 140<418.75 666> 574 140<490.58 743.419> 960 140<496 814.582>
VStem: 103 294<153.66 303.44> 841 285<683.516 932.545>
DStem2: 660.673 -20 956.244 -20 0.207912 0.978148<202.416 511.106 716.459 907.584>
LayerCount: 2
Fore
SplineSet
511 -20 m 0,0,1
 327 -20 327 -20 216 61 c 16,2,3
 103 144 103 144 103 266 c 0,4,5
 103 296 103 296 110 328 c 2,6,-1
 127 410 l 2,7,8
 158 562 158 562 286 630 c 0,9,10
 446 714 446 714 622 714 c 0,11,12
 750 714 750 714 804 682 c 1,13,-1
 837 838 l 2,14,15
 841 855 841 855 841 870 c 0,16,17
 841 908 841 908 816 927 c 0,18,19
 771 960 771 960 677 960 c 2,20,-1
 404 960 l 1,21,-1
 406 970 l 1,22,-1
 496 1100 l 1,23,-1
 689 1100 l 2,24,25
 896 1100 896 1100 1013 1017 c 16,26,27
 1126 938 1126 938 1126 811 c 0,28,29
 1126 778 1126 778 1118 741 c 2,30,-1
 985 118 l 1,31,-1
 666 -20 l 1,32,-1
 656 -20 l 1,33,-1
 663 16 l 1,34,35
 594 -20 594 -20 511 -20 c 0,0,1
529 120 m 0,36,37
 603 120 603 120 658 153 c 0,38,39
 704 179 704 179 716 242 c 2,40,-1
 761 452 l 2,41,42
 764 467 764 467 764 481 c 0,43,44
 764 518 764 518 740 541 c 0,45,46
 706 574 706 574 624 574 c 0,47,48
 555 574 555 574 505 541 c 0,49,50
 459 512 459 512 446 452 c 2,51,-1
 401 242 l 2,52,53
 397 226 397 226 397 212 c 0,54,55
 397 174 397 174 423 153 c 0,56,57
 462 120 462 120 529 120 c 0,36,37
EndSplineSet
Validated: 1
EndChar

StartChar: b
Encoding: 98 98 68
Width: 1210
GlyphClass: 2
Flags: W
HStem: -20 140<509.02 780.562> 980 140<678.067 944.961> 1510 20G<708.768 765>
VStem: 204 283<148.239 428.344> 966 294<666.812 952.007>
DStem2: 135.48 -20 435.31 -20 0.207912 0.978148<299.466 1058.19 1196.11 1443.63> 775.375 -20 1086.21 -20 0.207912 0.978148<216.495 929.288>
LayerCount: 2
Fore
SplineSet
636 120 m 128,-1,1
 715 120 715 120 773 153 c 0,2,3
 819 179 819 179 831 242 c 2,4,-1
 962 858 l 2,5,6
 966 875 966 875 966 890 c 0,7,8
 966 928 966 928 941 947 c 0,9,10
 897 980 897 980 818 980 c 128,-1,11
 739 980 739 980 681 947 c 0,12,13
 635 921 635 921 622 858 c 2,14,-1
 491 242 l 2,15,16
 487 225 487 225 487 211 c 0,17,18
 487 172 487 172 513 153 c 0,19,0
 557 120 557 120 636 120 c 128,-1,1
641 -20 m 0,20,21
 435 -20 435 -20 312 67 c 0,22,23
 204 143 204 143 204 268 c 0,24,25
 204 302 204 302 212 340 c 2,26,-1
 436 1392 l 1,27,-1
 755 1530 l 1,28,-1
 765 1530 l 1,29,-1
 671 1089 l 1,30,31
 745 1120 745 1120 838 1120 c 0,32,33
 1028 1120 1028 1120 1152 1033 c 0,34,35
 1260 958 1260 958 1260 832 c 0,36,37
 1260 798 1260 798 1252 760 c 2,38,-1
 1162 340 l 2,39,40
 1118 136 1118 136 991 67 c 0,41,42
 830 -20 830 -20 641 -20 c 0,20,21
EndSplineSet
Validated: 1
EndChar

StartChar: c
Encoding: 99 99 69
Width: 1080
GlyphClass: 2
Flags: W
HStem: -20 140<499.864 730.953> 980 140<657.119 888.827>
VStem: 183 294<153.629 307.415> 911 289<779.797 952.593>
DStem2: 115.48 -20 425.31 -20 0.207912 0.978148<301.485 1013.6>
LayerCount: 2
Fore
SplineSet
606 -20 m 128,-1,1
 432 -20 432 -20 292 67 c 0,2,3
 183 135 183 135 183 263 c 0,4,5
 183 298 183 298 192 340 c 2,6,-1
 282 760 l 2,7,8
 326 964 326 964 453 1033 c 0,9,10
 614 1120 614 1120 788 1120 c 0,11,12
 973 1120 973 1120 1102 1033 c 0,13,14
 1200 967 1200 967 1200 831 c 0,15,16
 1200 810 1200 810 1197 787 c 1,17,-1
 872 646 l 1,18,-1
 862 646 l 1,19,-1
 907 858 l 2,20,21
 911 877 911 877 911 889 c 0,22,23
 911 927 911 927 886 947 c 0,24,25
 846 980 846 980 786 980 c 0,26,27
 723 980 723 980 671 947 c 0,28,29
 625 918 625 918 612 858 c 2,30,-1
 481 242 l 2,31,32
 477 223 477 223 477 211 c 0,33,34
 477 173 477 173 503 153 c 0,35,36
 543 120 543 120 604 120 c 0,37,38
 668 120 668 120 718 153 c 0,39,40
 763 183 763 183 776 242 c 2,41,-1
 793 320 l 1,42,-1
 1129 465 l 1,43,-1
 1139 465 l 1,44,-1
 1112 340 l 2,45,46
 1068 136 1068 136 941 67 c 0,47,0
 780 -20 780 -20 606 -20 c 128,-1,1
EndSplineSet
Validated: 1
EndChar

StartChar: d
Encoding: 100 100 70
Width: 1210
GlyphClass: 2
Flags: W
HStem: -20 140<497.934 768.334> 980 140<663.438 935.716> 1510 20G<1338.77 1395>
VStem: 183 294<148.766 433.188>
DStem2: 115.48 -20 425.31 -20 0.207912 0.978148<301.545 1013.6> 765.375 -20 1065.48 -20 0.207912 0.978148<214.514 929.288 1133.75 1443.65>
LayerCount: 2
Fore
SplineSet
626 120 m 128,-1,1
 705 120 705 120 763 153 c 0,2,3
 809 179 809 179 821 242 c 2,4,-1
 952 858 l 2,5,6
 956 875 956 875 956 890 c 0,7,8
 956 928 956 928 931 947 c 0,9,10
 887 980 887 980 808 980 c 128,-1,11
 729 980 729 980 671 947 c 0,12,13
 625 921 625 921 612 858 c 2,14,-1
 481 242 l 2,15,16
 477 225 477 225 477 211 c 0,17,18
 477 172 477 172 503 153 c 0,19,0
 547 120 547 120 626 120 c 128,-1,1
621 -20 m 128,-1,21
 432 -20 432 -20 292 67 c 0,22,23
 183 135 183 135 183 263 c 0,24,25
 183 299 183 299 192 340 c 2,26,-1
 282 760 l 2,27,28
 326 964 326 964 453 1033 c 0,29,30
 614 1120 614 1120 803 1120 c 0,31,32
 928 1120 928 1120 1001 1089 c 1,33,-1
 1066 1392 l 1,34,-1
 1385 1530 l 1,35,-1
 1395 1530 l 1,36,-1
 1142 340 l 2,37,38
 1099 136 1099 136 971 67 c 0,39,20
 810 -20 810 -20 621 -20 c 128,-1,21
EndSplineSet
Validated: 1
EndChar

StartChar: e
Encoding: 101 101 71
Width: 1170
GlyphClass: 2
Flags: W
HStem: -20 140<500.096 742.621> 980 140<655.406 905.66>
VStem: 184 294<146.54 349.734> 925 296<671.844 954.027>
DStem2: 115.48 -20 425.31 -20 0.207912 0.978148<304.657 440.736 619.605 1013.6> 541 523 504 348 0.918796 0.394732<0 371.335>
LayerCount: 2
Fore
SplineSet
611 -20 m 0,0,1
 416 -20 416 -20 292 67 c 0,2,3
 184 142 184 142 184 268 c 0,4,5
 184 302 184 302 192 340 c 2,6,-1
 282 760 l 2,7,8
 326 964 326 964 453 1033 c 0,9,10
 614 1120 614 1120 793 1120 c 128,-1,11
 972 1120 972 1120 1112 1033 c 0,12,13
 1221 964 1221 964 1221 838 c 0,14,15
 1221 802 1221 802 1212 760 c 2,16,-1
 1186 641 l 1,17,-1
 504 348 l 1,18,-1
 481 242 l 2,19,20
 478 227 478 227 478 214 c 0,21,22
 478 176 478 176 503 153 c 0,23,24
 539 120 539 120 608.5 120 c 128,-1,25
 678 120 678 120 728 153 c 0,26,27
 773 183 773 183 786 242 c 2,28,-1
 803 320 l 1,29,-1
 1139 465 l 1,30,-1
 1149 465 l 1,31,-1
 1122 340 l 2,32,33
 1078 136 1078 136 951 67 c 0,34,35
 790 -20 790 -20 611 -20 c 0,0,1
541 523 m 1,36,-1
 882 670 l 1,37,-1
 922 858 l 2,38,39
 925 873 925 873 925 887 c 0,40,41
 925 926 925 926 901 947 c 0,42,43
 865 980 865 980 793 980 c 0,44,45
 722 980 722 980 671 947 c 0,46,47
 625 919 625 919 612 858 c 2,48,-1
 541 523 l 1,36,-1
EndSplineSet
Validated: 1
EndChar

StartChar: f
Encoding: 102 102 72
Width: 860
GlyphClass: 2
Flags: W
HStem: -20 21G<136 192.232> 802 140<640 919> 1370 140<765.822 1079>
DStem2: 136 -20 435.667 -20 0.207912 0.978148<203.387 902.587 1045.77 1412.45>
LayerCount: 2
Fore
SplineSet
146 -20 m 1,0,-1
 136 -20 l 1,1,-1
 384 1150 l 2,2,3
 425 1346 425 1346 556 1423 c 0,4,5
 703 1510 703 1510 906 1510 c 2,6,-1
 1171 1510 l 1,7,-1
 1169 1500 l 1,8,-1
 1079 1370 l 1,9,-1
 917 1370 l 2,10,11
 822 1370 822 1370 764 1337 c 0,12,13
 718 1311 718 1311 705 1248 c 2,14,-1
 640 942 l 1,15,-1
 1011 942 l 1,16,-1
 1009 932 l 1,17,-1
 919 802 l 1,18,-1
 610 802 l 1,19,-1
 465 118 l 1,20,-1
 146 -20 l 1,0,-1
EndSplineSet
Validated: 1
EndChar

StartChar: g
Encoding: 103 103 73
Width: 1210
GlyphClass: 2
Flags: W
HStem: -410 140<265 678.178> -20 140<499.039 765.294> 980 140<663.438 933.738>
VStem: 184 293<147.993 433.188> 956 285<668.453 952.729>
DStem2: 32.5826 -410 342.413 -410 0.207912 0.978148<700.258 1412.31> 682.514 -410 982.48 -410 0.207912 0.978148<219.167 430.405 568.532 1327.99>
LayerCount: 2
Fore
SplineSet
626 120 m 128,-1,1
 705 120 705 120 763 153 c 0,2,3
 809 179 809 179 821 242 c 2,4,-1
 952 858 l 2,5,6
 956 875 956 875 956 890 c 0,7,8
 956 928 956 928 931 947 c 0,9,10
 887 980 887 980 808 980 c 128,-1,11
 729 980 729 980 671 947 c 0,12,13
 625 921 625 921 612 858 c 2,14,-1
 481 242 l 2,15,16
 477 225 477 225 477 211 c 0,17,18
 477 172 477 172 503 153 c 0,19,0
 547 120 547 120 626 120 c 128,-1,1
173 -410 m 1,20,-1
 175 -400 l 1,21,-1
 265 -270 l 1,22,-1
 527 -270 l 2,23,24
 622 -270 622 -270 680 -237 c 0,25,26
 726 -211 726 -211 739 -148 c 2,27,-1
 772 11 l 1,28,29
 689 -20 689 -20 606 -20 c 0,30,31
 416 -20 416 -20 292 67 c 0,32,33
 184 142 184 142 184 268 c 0,34,35
 184 302 184 302 192 340 c 2,36,-1
 282 760 l 2,37,38
 326 964 326 964 453 1033 c 0,39,40
 614 1120 614 1120 803 1120 c 128,-1,41
 992 1120 992 1120 1132 1033 c 0,42,43
 1241 965 1241 965 1241 837 c 0,44,45
 1241 801 1241 801 1232 760 c 2,46,-1
 1059 -50 l 2,47,48
 1017 -244 1017 -244 888 -323 c 0,49,50
 746 -410 746 -410 538 -410 c 2,51,-1
 173 -410 l 1,20,-1
EndSplineSet
Validated: 1
EndChar

StartChar: h
Encoding: 104 104 74
Width: 1250
GlyphClass: 2
Flags: W
HStem: -20 21G<156 212.232 806 862.232> 980 140<698.176 975.221> 1510 20G<728.768 785>
VStem: 996 284<791.753 946.402>
DStem2: 156 -20 455.667 -20 0.207912 0.978148<203.387 1058.08 1196 1443.52> 806 -20 1105.67 -20 0.207912 0.978148<203.387 929.158>
LayerCount: 2
Fore
SplineSet
166 -20 m 1,0,-1
 156 -20 l 1,1,-1
 456 1392 l 1,2,-1
 775 1530 l 1,3,-1
 785 1530 l 1,4,-1
 691 1089 l 1,5,6
 772 1120 772 1120 858 1120 c 0,7,8
 1048 1120 1048 1120 1172 1033 c 0,9,10
 1280 958 1280 958 1280 832 c 0,11,12
 1280 798 1280 798 1272 760 c 2,13,-1
 1135 118 l 1,14,-1
 816 -20 l 1,15,-1
 806 -20 l 1,16,-1
 992 858 l 2,17,18
 996 875 996 875 996 890 c 0,19,20
 996 928 996 928 971 947 c 0,21,22
 927 980 927 980 843 980 c 128,-1,23
 759 980 759 980 701 947 c 0,24,25
 655 921 655 921 642 858 c 2,26,-1
 485 118 l 1,27,-1
 166 -20 l 1,0,-1
EndSplineSet
Validated: 1
EndChar

StartChar: i
Encoding: 105 105 75
Width: 620
GlyphClass: 2
Flags: W
HStem: -20 21G<156 212.232> 1100 20G<641.768 698> 1179 365<511.097 687.323>
VStem: 156 628
DStem2: 156 -20 455.667 -20 0.207912 0.978148<203.387 1024.39>
LayerCount: 2
Fore
SplineSet
638 1544 m 0,0,1
 714 1544 714 1544 755 1491 c 0,2,3
 784 1453 784 1453 784 1402 c 0,4,5
 784 1383 784 1383 780 1362 c 0,6,7
 764 1287 764 1287 699.5 1233 c 128,-1,8
 635 1179 635 1179 561 1179 c 0,9,10
 485 1179 485 1179 445 1233 c 0,11,12
 415 1272 415 1272 415 1322 c 0,13,14
 415 1341 415 1341 419 1361 c 0,15,16
 435 1437 435 1437 499 1490 c 0,17,18
 563 1544 563 1544 638 1544 c 0,0,1
166 -20 m 1,19,-1
 156 -20 l 1,20,-1
 369 982 l 1,21,-1
 688 1120 l 1,22,-1
 698 1120 l 1,23,-1
 485 118 l 1,24,-1
 166 -20 l 1,19,-1
EndSplineSet
Validated: 1
EndChar

StartChar: j
Encoding: 106 106 76
Width: 620
GlyphClass: 2
Flags: W
HStem: -410 21G<-162 39.5> 1100 20G<641.768 698> 1179 365<511.097 687.323>
DStem2: 73.1213 -410 372.788 -410 0.207912 0.978148<224.933 1423.1>
LayerCount: 2
Fore
SplineSet
-162 -410 m 1,0,-1
 -160 -400 l 1,1,-1
 -70 -270 l 1,2,3
 14 -261 14 -261 73 -222 c 0,4,5
 120 -191 120 -191 132 -133 c 2,6,-1
 369 982 l 1,7,-1
 688 1120 l 1,8,-1
 698 1120 l 1,9,-1
 449 -50 l 2,10,11
 411 -232 411 -232 278 -323 c 0,12,13
 151 -410 151 -410 -72 -410 c 2,14,-1
 -162 -410 l 1,0,-1
638 1544 m 0,15,16
 714 1544 714 1544 755 1491 c 0,17,18
 784 1453 784 1453 784 1402 c 0,19,20
 784 1383 784 1383 780 1362 c 0,21,22
 764 1287 764 1287 699.5 1233 c 128,-1,23
 635 1179 635 1179 561 1179 c 0,24,25
 485 1179 485 1179 445 1233 c 0,26,27
 415 1272 415 1272 415 1322 c 0,28,29
 415 1341 415 1341 419 1361 c 0,30,31
 435 1437 435 1437 499 1490 c 0,32,33
 563 1544 563 1544 638 1544 c 0,15,16
EndSplineSet
Validated: 1
EndChar

StartChar: k
Encoding: 107 107 77
Width: 1210
GlyphClass: 2
Flags: W
HStem: -20 21G<156 212.232 786 842.232> 1100 20G<1117.47 1199.89> 1510 20G<728.768 785>
VStem: 917 283<511.667 665.402>
DStem2: 156 -20 455.667 -20 0.207912 0.978148<203.387 770.96 921.026 1443.52> 634 820 903 817 0.86535 0.501168<231.276 598.602> 786 -20 1085.67 -20 0.207912 0.978148<203.387 642.092>
LayerCount: 2
Fore
SplineSet
166 -20 m 1,0,-1
 156 -20 l 1,1,-1
 456 1392 l 1,2,-1
 775 1530 l 1,3,-1
 785 1530 l 1,4,-1
 634 820 l 1,5,-1
 1152 1120 l 1,6,-1
 1162 1120 l 1,7,-1
 1306 1044 l 1,8,-1
 903 817 l 1,9,10
 1010 809 1010 809 1092 752 c 0,11,12
 1200 677 1200 677 1200 551 c 0,13,14
 1200 517 1200 517 1192 479 c 2,15,-1
 1115 118 l 1,16,-1
 796 -20 l 1,17,-1
 786 -20 l 1,18,-1
 913 577 l 2,19,20
 917 596 917 596 917 609 c 0,21,22
 917 647 917 647 892 666 c 0,23,24
 848 699 848 699 774 699 c 128,-1,25
 700 699 700 699 642 666 c 0,26,27
 597 640 597 640 583 577 c 2,28,-1
 485 118 l 1,29,-1
 166 -20 l 1,0,-1
EndSplineSet
Validated: 1
EndChar

StartChar: l
Encoding: 108 108 78
Width: 620
GlyphClass: 2
Flags: W
HStem: -20 21G<156 212.232> 1510 20G<728.768 785>
VStem: 156 629
DStem2: 156 -20 455.667 -20 0.207912 0.978148<203.387 1443.52>
LayerCount: 2
Fore
SplineSet
166 -20 m 1,0,-1
 156 -20 l 1,1,-1
 456 1392 l 1,2,-1
 775 1530 l 1,3,-1
 785 1530 l 1,4,-1
 485 118 l 1,5,-1
 166 -20 l 1,0,-1
EndSplineSet
Validated: 1
EndChar

StartChar: m
Encoding: 109 109 79
Width: 1880
GlyphClass: 2
Flags: W
HStem: -20 21G<136 192.232 786 842.232 1436 1492.23> 980 140<675.667 956.024 1324.8 1603.74>
VStem: 1626 285<791.753 946.402>
DStem2: 136 -20 435.667 -20 0.207912 0.978148<203.387 1013.39> 786 -20 1085.67 -20 0.207912 0.978148<203.387 929.158> 1436 -20 1735.67 -20 0.207912 0.978148<203.387 929.158>
LayerCount: 2
Fore
SplineSet
146 -20 m 1,0,-1
 136 -20 l 1,1,-1
 302 760 l 2,2,3
 345 964 345 964 473 1033 c 0,4,5
 634 1120 634 1120 823 1120 c 0,6,7
 1007 1120 1007 1120 1130 1037 c 1,8,9
 1289 1120 1289 1120 1473 1120 c 0,10,11
 1662 1120 1662 1120 1802 1033 c 0,12,13
 1911 965 1911 965 1911 837 c 0,14,15
 1911 801 1911 801 1902 760 c 2,16,-1
 1765 118 l 1,17,-1
 1446 -20 l 1,18,-1
 1436 -20 l 1,19,-1
 1622 858 l 2,20,21
 1626 875 1626 875 1626 890 c 0,22,23
 1626 928 1626 928 1601 947 c 0,24,25
 1557 980 1557 980 1473 980 c 128,-1,26
 1389 980 1389 980 1331 947 c 0,27,28
 1285 921 1285 921 1272 858 c 2,29,-1
 1115 118 l 1,30,-1
 796 -20 l 1,31,-1
 786 -20 l 1,32,-1
 972 858 l 2,33,34
 976 875 976 875 976 890 c 0,35,36
 976 928 976 928 951 947 c 0,37,38
 907 980 907 980 823 980 c 128,-1,39
 739 980 739 980 681 947 c 0,40,41
 635 921 635 921 622 858 c 2,42,-1
 465 118 l 1,43,-1
 146 -20 l 1,0,-1
EndSplineSet
Validated: 1
EndChar

StartChar: n
Encoding: 110 110 80
Width: 1230
GlyphClass: 2
Flags: W
HStem: -20 21G<136 192.232 786 842.232> 980 140<675.667 953.737>
VStem: 976 285<791.753 946.402>
DStem2: 136 -20 435.667 -20 0.207912 0.978148<203.387 1013.39> 786 -20 1085.67 -20 0.207912 0.978148<203.387 929.158>
LayerCount: 2
Fore
SplineSet
146 -20 m 1,0,-1
 136 -20 l 1,1,-1
 302 760 l 2,2,3
 345 964 345 964 473 1033 c 0,4,5
 634 1120 634 1120 823 1120 c 128,-1,6
 1012 1120 1012 1120 1152 1033 c 0,7,8
 1261 965 1261 965 1261 837 c 0,9,10
 1261 801 1261 801 1252 760 c 2,11,-1
 1115 118 l 1,12,-1
 796 -20 l 1,13,-1
 786 -20 l 1,14,-1
 972 858 l 2,15,16
 976 875 976 875 976 890 c 0,17,18
 976 928 976 928 951 947 c 0,19,20
 907 980 907 980 823 980 c 128,-1,21
 739 980 739 980 681 947 c 0,22,23
 635 921 635 921 622 858 c 2,24,-1
 465 118 l 1,25,-1
 146 -20 l 1,0,-1
EndSplineSet
Validated: 1
EndChar

StartChar: o
Encoding: 111 111 81
Width: 1190
GlyphClass: 2
Flags: W
HStem: -20 140<499.786 760.562> 980 140<663.438 926.067>
VStem: 184 293<147.993 433.188> 946 295<666.812 952.729>
DStem2: 115.48 -20 425.31 -20 0.207912 0.978148<301.545 1013.6> 755.375 -20 1066.21 -20 0.207912 0.978148<216.495 929.288>
LayerCount: 2
Fore
SplineSet
621 120 m 128,-1,1
 695 120 695 120 753 153 c 0,2,3
 799 179 799 179 811 242 c 2,4,-1
 942 858 l 2,5,6
 946 875 946 875 946 890 c 0,7,8
 946 928 946 928 921 947 c 0,9,10
 877 980 877 980 803 980 c 128,-1,11
 729 980 729 980 671 947 c 0,12,13
 625 921 625 921 612 858 c 2,14,-1
 481 242 l 2,15,16
 477 225 477 225 477 211 c 0,17,18
 477 172 477 172 503 153 c 0,19,0
 547 120 547 120 621 120 c 128,-1,1
621 -20 m 0,20,21
 416 -20 416 -20 292 67 c 0,22,23
 184 142 184 142 184 268 c 0,24,25
 184 302 184 302 192 340 c 2,26,-1
 282 760 l 2,27,28
 326 964 326 964 453 1033 c 0,29,30
 614 1120 614 1120 803 1120 c 128,-1,31
 992 1120 992 1120 1132 1033 c 0,32,33
 1241 965 1241 965 1241 837 c 0,34,35
 1241 801 1241 801 1232 760 c 2,36,-1
 1142 340 l 2,37,38
 1098 136 1098 136 971 67 c 0,39,40
 810 -20 810 -20 621 -20 c 0,20,21
EndSplineSet
Validated: 1
EndChar

StartChar: p
Encoding: 112 112 82
Width: 1210
GlyphClass: 2
Flags: W
HStem: -430 21G<49 105.232> -20 140<508.079 780.562> 980 140<675.666 946.066>
VStem: 966 295<666.812 952.729>
DStem2: 49 -430 348.667 -430 0.207912 0.978148<203.387 513.072 718.487 1432.52> 688.227 -430 999.058 -430 0.207912 0.978148<635.655 1348.45>
LayerCount: 2
Fore
SplineSet
636 120 m 128,-1,1
 715 120 715 120 773 153 c 0,2,3
 819 179 819 179 831 242 c 2,4,-1
 962 858 l 2,5,6
 966 875 966 875 966 890 c 0,7,8
 966 928 966 928 941 947 c 0,9,10
 897 980 897 980 818 980 c 128,-1,11
 739 980 739 980 681 947 c 0,12,13
 635 921 635 921 622 858 c 2,14,-1
 491 242 l 2,15,16
 487 225 487 225 487 211 c 0,17,18
 487 172 487 172 513 153 c 0,19,0
 557 120 557 120 636 120 c 128,-1,1
641 -20 m 0,20,21
 516 -20 516 -20 442 11 c 1,22,-1
 378 -292 l 1,23,-1
 59 -430 l 1,24,-1
 49 -430 l 1,25,-1
 302 760 l 2,26,27
 345 964 345 964 473 1033 c 0,28,29
 634 1120 634 1120 823 1120 c 128,-1,30
 1012 1120 1012 1120 1152 1033 c 0,31,32
 1261 965 1261 965 1261 837 c 0,33,34
 1261 801 1261 801 1252 760 c 2,35,-1
 1162 340 l 2,36,37
 1118 136 1118 136 991 67 c 0,38,39
 830 -20 830 -20 641 -20 c 0,20,21
EndSplineSet
Validated: 1
EndChar

StartChar: q
Encoding: 113 113 83
Width: 1210
GlyphClass: 2
Flags: W
HStem: -430 21G<679 735.232> -20 140<499.039 765.494> 980 140<663.438 934.98>
VStem: 184 293<147.993 433.188> 956 284<671.656 951.761>
DStem2: 28.3314 -430 338.162 -430 0.207912 0.978148<720.705 1432.76> 679 -430 978.667 -430 0.207912 0.978148<203.387 450.699 588.825 1348.29>
LayerCount: 2
Fore
SplineSet
626 120 m 128,-1,1
 705 120 705 120 763 153 c 0,2,3
 809 179 809 179 821 242 c 2,4,-1
 952 858 l 2,5,6
 956 875 956 875 956 890 c 0,7,8
 956 928 956 928 931 947 c 0,9,10
 887 980 887 980 808 980 c 128,-1,11
 729 980 729 980 671 947 c 0,12,13
 625 921 625 921 612 858 c 2,14,-1
 481 242 l 2,15,16
 477 225 477 225 477 211 c 0,17,18
 477 172 477 172 503 153 c 0,19,0
 547 120 547 120 626 120 c 128,-1,1
606 -20 m 0,20,21
 416 -20 416 -20 292 67 c 0,22,23
 184 142 184 142 184 268 c 0,24,25
 184 302 184 302 192 340 c 2,26,-1
 282 760 l 2,27,28
 326 964 326 964 453 1033 c 0,29,30
 614 1120 614 1120 803 1120 c 0,31,32
 1009 1120 1009 1120 1132 1033 c 0,33,34
 1240 957 1240 957 1240 832 c 0,35,36
 1240 798 1240 798 1232 760 c 2,37,-1
 1008 -292 l 1,38,-1
 689 -430 l 1,39,-1
 679 -430 l 1,40,-1
 772 11 l 1,41,42
 702 -20 702 -20 606 -20 c 0,20,21
EndSplineSet
Validated: 1
EndChar

StartChar: r
Encoding: 114 114 84
Width: 860
GlyphClass: 2
Flags: W
HStem: -20 21G<136 192.232> 960 140<678.822 992>
DStem2: 136 -20 435.667 -20 0.207912 0.978148<203.387 992.798>
LayerCount: 2
Fore
SplineSet
146 -20 m 1,0,-1
 136 -20 l 1,1,-1
 297 740 l 2,2,3
 338 935 338 935 468 1013 c 0,4,5
 614 1100 614 1100 819 1100 c 2,6,-1
 1084 1100 l 1,7,-1
 1082 1090 l 1,8,-1
 992 960 l 1,9,-1
 830 960 l 2,10,11
 735 960 735 960 677 927 c 0,12,13
 631 901 631 901 618 838 c 2,14,-1
 465 118 l 1,15,-1
 146 -20 l 1,0,-1
EndSplineSet
Validated: 1
EndChar

StartChar: t
Encoding: 116 116 85
Width: 890
GlyphClass: 2
Flags: W
HStem: -20 21G<296 352.26> 960 140<306 504 819 1022> 1510 20G<853.74 910>
DStem2: 296 -20 581.155 -20 0.207912 0.978148<193.214 1001.83 1204.26 1450.57>
LayerCount: 2
Fore
SplineSet
306 -20 m 1,0,-1
 296 -20 l 1,1,-1
 504 960 l 1,2,-1
 214 960 l 1,3,-1
 216 970 l 1,4,-1
 306 1100 l 1,5,-1
 534 1100 l 1,6,-1
 597 1399 l 1,7,-1
 900 1530 l 1,8,-1
 910 1530 l 1,9,-1
 819 1100 l 1,10,-1
 1114 1100 l 1,11,-1
 1112 1090 l 1,12,-1
 1022 960 l 1,13,-1
 789 960 l 1,14,-1
 609 111 l 1,15,-1
 306 -20 l 1,0,-1
EndSplineSet
Validated: 1
EndChar

StartChar: u
Encoding: 117 117 86
Width: 1230
GlyphClass: 2
Flags: W
HStem: -20 140<507.603 788.333> 1100 20G<621.768 678 1271.77 1328>
VStem: 203 284<153.599 307.901>
DStem2: 135.48 -20 435.31 -20 0.207912 0.978148<299.466 1024.5> 786.018 -20 1085.69 -20 0.207912 0.978148<214.38 1024.39>
LayerCount: 2
Fore
SplineSet
641 -20 m 128,-1,1
 452 -20 452 -20 312 67 c 0,2,3
 203 135 203 135 203 263 c 0,4,5
 203 299 203 299 212 340 c 2,6,-1
 349 982 l 1,7,-1
 668 1120 l 1,8,-1
 678 1120 l 1,9,-1
 491 242 l 2,10,11
 487 225 487 225 487 211 c 0,12,13
 487 172 487 172 513 153 c 0,14,15
 557 120 557 120 641 120 c 128,-1,16
 725 120 725 120 783 153 c 0,17,18
 827 178 827 178 841 242 c 2,19,-1
 999 982 l 1,20,-1
 1318 1120 l 1,21,-1
 1328 1120 l 1,22,-1
 1162 340 l 2,23,24
 1119 136 1119 136 991 67 c 0,25,0
 830 -20 830 -20 641 -20 c 128,-1,1
EndSplineSet
Validated: 1
EndChar

StartChar: v
Encoding: 118 118 87
Width: 1108
GlyphClass: 2
Flags: W
HStem: -20 21G<408.207 468.25> 1100 20G<441.846 501.774 1177.14 1239.08>
DStem2: 498 1120 218 1003 0.186318 -0.98249<62.7823 846.683> 655 288 718 108 0.540892 0.841092<0 989.166>
LayerCount: 2
Fore
SplineSet
422 -20 m 1,0,-1
 412 -20 l 1,1,-1
 218 1003 l 1,2,-1
 488 1120 l 1,3,-1
 498 1120 l 1,4,-1
 655 288 l 1,5,-1
 1190 1120 l 1,6,-1
 1200 1120 l 1,7,-1
 1327 1055 l 1,8,-1
 718 108 l 1,9,-1
 422 -20 l 1,0,-1
EndSplineSet
Validated: 1
EndChar

StartChar: w
Encoding: 119 119 88
Width: 1880
GlyphClass: 2
Flags: W
HStem: -20 140<507.603 789.102 1157.89 1438.33> 1100 20G<621.768 678 1271.77 1328 1921.77 1978>
VStem: 203 284<153.599 307.901>
DStem2: 135.48 -20 435.31 -20 0.207912 0.978148<299.466 1024.5> 785.31 -20 1085.31 -20 0.207912 0.978148<299.501 1024.53> 1436.02 -20 1735.69 -20 0.207912 0.978148<214.38 1024.39>
LayerCount: 2
Fore
SplineSet
641 -20 m 0,0,1
 452 -20 452 -20 312 67 c 0,2,3
 203 135 203 135 203 263 c 0,4,5
 203 299 203 299 212 340 c 2,6,-1
 349 982 l 1,7,-1
 668 1120 l 1,8,-1
 678 1120 l 1,9,-1
 491 242 l 2,10,11
 487 225 487 225 487 211 c 0,12,13
 487 172 487 172 513 153 c 0,14,15
 557 120 557 120 641 120 c 128,-1,16
 725 120 725 120 783 153 c 0,17,18
 827 178 827 178 841 242 c 2,19,-1
 999 982 l 1,20,-1
 1318 1120 l 1,21,-1
 1328 1120 l 1,22,-1
 1141 242 l 2,23,24
 1137 225 1137 225 1137 211 c 0,25,26
 1137 172 1137 172 1163 153 c 0,27,28
 1207 120 1207 120 1291 120 c 128,-1,29
 1375 120 1375 120 1433 153 c 0,30,31
 1477 178 1477 178 1491 242 c 2,32,-1
 1649 982 l 1,33,-1
 1968 1120 l 1,34,-1
 1978 1120 l 1,35,-1
 1812 340 l 2,36,37
 1769 136 1769 136 1641 67 c 0,38,39
 1480 -20 1480 -20 1291 -20 c 0,40,41
 1107 -20 1107 -20 983 63 c 1,42,43
 825 -20 825 -20 641 -20 c 0,0,1
EndSplineSet
Validated: 1
EndChar

StartChar: x
Encoding: 120 120 89
Width: 984
GlyphClass: 2
Flags: W
HStem: -20 21G<105.846 173.442 720.203 786.667> 1100 20G<430.761 496.798 1046.56 1113.54>
DStem2: 20 45 154 -20 0.697373 0.716708<46.862 596.339 947.609 1499.91> 487 1120 225 1011 0.439538 -0.898224<0 440.967 692.052 1130.78>
LayerCount: 2
Fore
SplineSet
154 -20 m 1,0,-1
 144 -20 l 1,1,-1
 20 45 l 1,2,-1
 471 509 l 1,3,-1
 225 1011 l 1,4,-1
 477 1120 l 1,5,-1
 487 1120 l 1,6,-1
 681 724 l 1,7,-1
 1066 1120 l 1,8,-1
 1076 1120 l 1,9,-1
 1198 1055 l 1,10,-1
 746 590 l 1,11,-1
 992 88 l 1,12,-1
 740 -20 l 1,13,-1
 730 -20 l 1,14,-1
 537 374 l 1,15,-1
 154 -20 l 1,0,-1
EndSplineSet
Validated: 1
EndChar

StartChar: y
Encoding: 121 121 90
Width: 1250
GlyphClass: 2
Flags: W
HStem: -410 140<285 698.178> -20 140<509.456 785.448> 1100 20G<621.768 678 1271.77 1328>
VStem: 204 283<153.599 307.901>
DStem2: 52.5826 -410 352.413 -410 0.207912 0.978148<698.179 1423.21> 702.514 -410 1002.48 -410 0.207912 0.978148<221.196 430.405 568.489 1423.22>
LayerCount: 2
Fore
SplineSet
193 -410 m 1,0,-1
 195 -400 l 1,1,-1
 285 -270 l 1,2,-1
 547 -270 l 2,3,4
 642 -270 642 -270 700 -237 c 0,5,6
 746 -211 746 -211 759 -148 c 2,7,-1
 792 11 l 1,8,9
 719 -20 719 -20 626 -20 c 0,10,11
 439 -20 439 -20 312 67 c 0,12,13
 204 141 204 141 204 268 c 0,14,15
 204 302 204 302 212 340 c 2,16,-1
 349 982 l 1,17,-1
 668 1120 l 1,18,-1
 678 1120 l 1,19,-1
 491 242 l 2,20,21
 487 225 487 225 487 211 c 0,22,23
 487 172 487 172 513 153 c 0,24,25
 557 120 557 120 641 120 c 128,-1,26
 725 120 725 120 783 153 c 0,27,28
 827 178 827 178 841 242 c 2,29,-1
 999 982 l 1,30,-1
 1318 1120 l 1,31,-1
 1328 1120 l 1,32,-1
 1079 -50 l 2,33,34
 1039 -240 1039 -240 908 -323 c 0,35,36
 771 -410 771 -410 558 -410 c 2,37,-1
 193 -410 l 1,0,-1
EndSplineSet
Validated: 1
EndChar

StartChar: z
Encoding: 122 122 91
Width: 974
GlyphClass: 2
Flags: W
HStem: 0 140<454 902> 960 140<338 755>
DStem2: 12 10 454 140 0.616062 0.787697<374.7 1206.05>
LayerCount: 2
Fore
SplineSet
10 0 m 1,0,-1
 12 10 l 1,1,-1
 755 960 l 1,2,-1
 246 960 l 1,3,-1
 248 970 l 1,4,-1
 338 1100 l 1,5,-1
 1198 1100 l 1,6,-1
 1196 1090 l 1,7,-1
 454 140 l 1,8,-1
 994 140 l 1,9,-1
 992 130 l 1,10,-1
 902 0 l 1,11,-1
 10 0 l 1,0,-1
EndSplineSet
Validated: 1
EndChar

StartChar: braceleft
Encoding: 123 123 92
Width: 830
GlyphClass: 2
Flags: W
HStem: -240 151<604.074 749> 680 150<253 379> 1599 151<937.097 1140>
VStem: 263 301<-47.2427 141.994>
DStem2: 183.388 -240 502.832 -240 0.207912 0.978148<343.847 940.566 1093.73 1837.85>
CounterMasks: 1 e0
LayerCount: 2
Fore
SplineSet
749 -240 m 1,0,1
 518 -240 518 -240 372 -138 c 0,2,3
 263 -61 263 -61 263 86 c 0,4,5
 263 135 263 135 275 191 c 2,6,-1
 379 680 l 1,7,-1
 155 680 l 1,8,-1
 157 690 l 1,9,-1
 253 830 l 1,10,-1
 410 830 l 1,11,-1
 514 1319 l 2,12,13
 566 1564 566 1564 722 1648 c 0,14,15
 912 1750 912 1750 1172 1750 c 1,16,-1
 1140 1599 l 1,17,18
 1027 1599 1027 1599 943 1558 c 0,19,20
 879 1526 879 1526 859 1434 c 2,21,-1
 570 76 l 2,22,23
 564 50 564 50 564 30 c 0,24,25
 564 -24 564 -24 602 -48 c 0,26,27
 668 -89 668 -89 781 -89 c 1,28,-1
 749 -240 l 1,0,1
EndSplineSet
Validated: 1
EndChar

StartChar: bar
Encoding: 124 124 93
Width: 690
GlyphClass: 2
Flags: W
VStem: 167 676
DStem2: 167 -200 437.643 -200 0.207912 0.978148<183.04 1825.98>
LayerCount: 2
Fore
SplineSet
167 -200 m 1,0,-1
 547 1586 l 1,1,-1
 833 1710 l 1,2,-1
 843 1710 l 1,3,-1
 464 -76 l 1,4,-1
 177 -200 l 1,5,-1
 167 -200 l 1,0,-1
EndSplineSet
Validated: 1
EndChar

StartChar: braceright
Encoding: 125 125 94
Width: 830
GlyphClass: 2
Flags: W
HStem: -240 151<11 213.903> 680 150<772 898> 1599 151<402 546.926>
VStem: 587 301<1261.06 1558.84>
DStem2: 224.832 -240 545.448 -240 0.207912 0.978148<268.498 1007.21 1160.38 1757.1>
CounterMasks: 1 e0
LayerCount: 2
Fore
SplineSet
-21 -240 m 1,0,-1
 11 -89 l 1,1,2
 124 -89 124 -89 208 -48 c 0,3,4
 272 -16 272 -16 292 76 c 2,5,-1
 581 1434 l 2,6,7
 587 1460 587 1460 587 1480 c 0,8,9
 587 1534 587 1534 549 1558 c 0,10,11
 483 1599 483 1599 370 1599 c 1,12,-1
 402 1750 l 1,13,14
 632 1750 632 1750 778 1648 c 0,15,16
 888 1571 888 1571 888 1424 c 0,17,18
 888 1375 888 1375 876 1319 c 2,19,-1
 772 830 l 1,20,-1
 996 830 l 1,21,-1
 994 820 l 1,22,-1
 898 680 l 1,23,-1
 741 680 l 1,24,-1
 637 191 l 2,25,26
 585 -54 585 -54 429 -138 c 0,27,28
 239 -240 239 -240 -21 -240 c 1,0,-1
EndSplineSet
Validated: 1
EndChar

StartChar: asciitilde
Encoding: 126 126 95
Width: 1178
GlyphClass: 2
Flags: W
HStem: 515 212<789.378 1036.55> 785 212<463.066 709.622>
LayerCount: 2
Fore
SplineSet
628 997 m 0,0,1
 809 997 809 997 855 844 c 0,2,3
 872 787 872 787 888 763 c 0,4,5
 912 727 912 727 961 727 c 0,6,7
 1065 727 1065 727 1108 928 c 1,8,-1
 1270 997 l 1,9,-1
 1280 997 l 1,10,11
 1178 515 1178 515 871 515 c 0,12,13
 690 515 690 515 644 668 c 0,14,15
 627 725 627 725 611 749 c 0,16,17
 587 785 587 785 539 785 c 0,18,19
 435 785 435 785 391 584 c 1,20,-1
 229 515 l 1,21,-1
 219 515 l 1,22,23
 322 997 322 997 628 997 c 0,0,1
EndSplineSet
Validated: 1
EndChar

StartChar: exclamdown
Encoding: 161 161 97
Width: 640
GlyphClass: 2
Flags: W
HStem: -430 21G<69 125.395> 755 365<431.097 607.323>
VStem: 69 635
DStem2: 69 -430 388.754 -430 0.207912 0.978148<216.765 1010.07>
LayerCount: 2
Fore
SplineSet
558 1120 m 0,0,1
 634 1120 634 1120 675 1067 c 0,2,3
 704 1029 704 1029 704 978 c 0,4,5
 704 959 704 959 700 938 c 0,6,7
 684 863 684 863 619.5 809 c 128,-1,8
 555 755 555 755 481 755 c 0,9,10
 405 755 405 755 365 809 c 0,11,12
 335 848 335 848 335 898 c 0,13,14
 335 917 335 917 339 937 c 0,15,16
 355 1013 355 1013 419 1066 c 0,17,18
 483 1120 483 1120 558 1120 c 0,0,1
79 -430 m 1,19,-1
 69 -430 l 1,20,-1
 279 558 l 1,21,-1
 620 705 l 1,22,-1
 630 705 l 1,23,-1
 420 -283 l 1,24,-1
 79 -430 l 1,19,-1
EndSplineSet
Validated: 1
EndChar

StartChar: cent
Encoding: 162 162 98
Width: 1080
GlyphClass: 2
Flags: W
VStem: 183 294<140.944 307.415> 911 289<779.797 959.804>
DStem2: 94.224 -120 404.055 -120 0.207912 0.978148<403.719 1115.83> 509 -120 629.16 -120 0.207912 0.978148<77.122 106.301 285.604 1120.49 1285.48 1317.8>
LayerCount: 2
Fore
SplineSet
640 -69 m 1,0,-1
 519 -120 l 1,1,-1
 509 -120 l 1,2,-1
 531 -16 l 1,3,4
 401 -1 401 -1 292 67 c 128,-1,5
 183 135 183 135 183 263 c 0,6,7
 183 298 183 298 192 340 c 2,8,-1
 282 760 l 2,9,10
 326 964 326 964 453 1033 c 0,11,12
 607 1116 607 1116 773 1120 c 1,13,-1
 783 1169 l 1,14,-1
 904 1220 l 1,15,-1
 914 1220 l 1,16,-1
 891 1113 l 1,17,18
 1010 1095 1010 1095 1102 1033 c 0,19,20
 1200 967 1200 967 1200 831 c 0,21,22
 1200 810 1200 810 1197 787 c 1,23,-1
 872 646 l 1,24,-1
 862 646 l 1,25,-1
 907 858 l 2,26,27
 911 877 911 877 911 889 c 0,28,29
 911 927 911 927 886 947 c 0,30,31
 874 957 874 957 860 964 c 1,32,-1
 683 135 l 1,33,34
 701 142 701 142 718 153 c 0,35,36
 763 183 763 183 776 242 c 2,37,-1
 793 320 l 1,38,-1
 1129 465 l 1,39,-1
 1139 465 l 1,40,-1
 1112 340 l 2,41,42
 1068 136 1068 136 941 67 c 0,43,44
 801 -9 801 -9 651 -19 c 1,45,-1
 640 -69 l 1,0,-1
561 125 m 1,46,-1
 742 976 l 1,47,48
 704 968 704 968 671 947 c 0,49,50
 625 918 625 918 612 858 c 2,51,-1
 481 242 l 2,52,53
 477 223 477 223 477 211 c 0,54,55
 477 173 477 173 503 153 c 0,56,57
 528 133 528 133 561 125 c 1,46,-1
EndSplineSet
Validated: 1
EndChar

StartChar: sterling
Encoding: 163 163 99
Width: 1375
GlyphClass: 2
Flags: W
HStem: 0 150<209 292 612 1198> 625 150<343 393 745 1061> 1400 130<894.93 1131.62>
VStem: 1153 287<1189.3 1373.52>
DStem2: 260.117 0 580.117 0 0.207912 0.978148<219.883 638.97 858.877 1412.1>
LayerCount: 2
Fore
SplineSet
110 0 m 1,0,-1
 112 10 l 1,1,-1
 209 150 l 1,2,-1
 292 150 l 1,3,-1
 393 625 l 1,4,-1
 244 625 l 1,5,-1
 246 635 l 1,6,-1
 343 775 l 1,7,-1
 425 775 l 1,8,-1
 509 1170 l 2,9,10
 552 1374 552 1374 680 1443 c 0,11,12
 842 1530 842 1530 1022 1530 c 0,13,14
 1213 1530 1213 1530 1342 1443 c 0,15,16
 1440 1377 1440 1377 1440 1241 c 0,17,18
 1440 1220 1440 1220 1437 1197 c 1,19,-1
 1112 1056 l 1,20,-1
 1102 1056 l 1,21,-1
 1150 1278 l 2,22,23
 1153 1292 1153 1292 1153 1307 c 0,24,25
 1153 1344 1153 1344 1129 1367 c 0,26,27
 1095 1400 1095 1400 1028 1400 c 0,28,29
 966 1400 966 1400 911 1367 c 0,30,31
 865 1340 865 1340 852 1278 c 2,32,-1
 745 775 l 1,33,-1
 1160 775 l 1,34,-1
 1158 765 l 1,35,-1
 1061 625 l 1,36,-1
 713 625 l 1,37,-1
 612 150 l 1,38,-1
 1297 150 l 1,39,-1
 1295 140 l 1,40,-1
 1198 0 l 1,41,-1
 110 0 l 1,0,-1
EndSplineSet
Validated: 1
EndChar

StartChar: currency
Encoding: 164 164 100
Width: 1535
GlyphClass: 2
Flags: W
HStem: 180 150<659.224 1039.17> 1178 150<816.993 1196.34>
VStem: 320 301<422.114 675.547> 1233 301<832.453 1100.22>
DStem2: 240.388 180 560.045 180 0.207912 0.978148<342.868 924.923> 1050.04 180 1370.39 180 0.207912 0.978148<319.857 898.165>
LayerCount: 2
Fore
SplineSet
837 330 m 128,-1,1
 949 330 949 330 1033 371 c 0,2,3
 1098 403 1098 403 1117 495 c 2,4,-1
 1227 1013 l 2,5,6
 1233 1039 1233 1039 1233 1060 c 0,7,8
 1233 1114 1233 1114 1196 1137 c 0,9,10
 1130 1178 1130 1178 1017.5 1178 c 128,-1,11
 905 1178 905 1178 822 1137 c 0,12,13
 757 1105 757 1105 737 1013 c 2,14,-1
 627 495 l 2,15,16
 621 469 621 469 621 449 c 0,17,18
 621 395 621 395 659 371 c 0,19,0
 725 330 725 330 837 330 c 128,-1,1
1049 1328 m 128,-1,21
 1214 1328 1214 1328 1336 1275 c 1,22,-1
 1394 1323 l 1,23,-1
 1676 1215 l 1,24,-1
 1682 1208 l 1,25,-1
 1525 1079 l 1,26,27
 1534 1042 1534 1042 1534 999 c 0,28,29
 1534 952 1534 952 1523 897 c 2,30,-1
 1462 611 l 2,31,32
 1440 509 1440 509 1390 432 c 1,33,-1
 1490 305 l 1,34,-1
 1481 298 l 1,35,-1
 1152 190 l 1,36,-1
 1118 234 l 1,37,38
 973 180 973 180 805 180 c 0,39,40
 631 180 631 180 506 239 c 1,41,-1
 467 206 l 1,42,-1
 184 314 l 1,43,-1
 178 321 l 1,44,-1
 326 442 l 1,45,46
 320 472 320 472 320 506 c 0,47,48
 320 555 320 555 332 611 c 2,49,-1
 393 897 l 2,50,51
 415 1002 415 1002 468 1080 c 1,52,-1
 367 1209 l 1,53,-1
 375 1216 l 1,54,-1
 702 1323 l 1,55,-1
 740 1275 l 1,56,20
 884 1328 884 1328 1049 1328 c 128,-1,21
EndSplineSet
Validated: 1
EndChar

StartChar: yen
Encoding: 165 165 101
Width: 1270
GlyphClass: 2
Flags: W
HStem: -20 21G<471 527.316> 94 140<321 495 845 1019> 294 140<363 458 1026 1061> 1510 20G<668.605 725 1458.61 1515>
VStem: 243 299<574.757 763.178>
DStem2: 75.7278 -20 395.384 -20 0.207912 0.978148<760.992 1434.36> 865.783 -20 1185.54 -20 0.207912 0.978148<689.967 1434.34>
LayerCount: 2
Fore
SplineSet
481 -20 m 1,0,-1
 471 -20 l 1,1,-1
 495 94 l 1,2,-1
 230 94 l 1,3,-1
 232 104 l 1,4,-1
 321 234 l 1,5,-1
 525 234 l 1,6,-1
 537 294 l 1,7,-1
 272 294 l 1,8,-1
 275 304 l 1,9,-1
 363 434 l 1,10,-1
 458 434 l 1,11,12
 408 455 408 455 366 485 c 0,13,14
 243 573 243 573 243 721 c 0,15,16
 243 767 243 767 253 814 c 2,17,-1
 374 1383 l 1,18,-1
 715 1530 l 1,19,-1
 725 1530 l 1,20,-1
 548 698 l 2,21,22
 542 670 542 670 542 652 c 0,23,24
 542 598 542 598 580 574 c 0,25,26
 646 533 646 533 748 533 c 128,-1,27
 850 533 850 533 934 574 c 0,28,29
 998 605 998 605 1018 698 c 2,30,-1
 1164 1383 l 1,31,-1
 1505 1530 l 1,32,-1
 1515 1530 l 1,33,-1
 1363 814 l 2,34,35
 1313 579 1313 579 1140 485 c 0,36,37
 1084 455 1084 455 1026 434 c 1,38,-1
 1152 434 l 1,39,-1
 1150 424 l 1,40,-1
 1061 294 l 1,41,-1
 857 294 l 1,42,-1
 845 234 l 1,43,-1
 1110 234 l 1,44,-1
 1108 224 l 1,45,-1
 1019 94 l 1,46,-1
 745 94 l 1,47,-1
 481 -20 l 1,0,-1
EndSplineSet
Validated: 1
EndChar

StartChar: brokenbar
Encoding: 166 166 102
Width: 690
GlyphClass: 2
Flags: W
VStem: 167 676
DStem2: 167 -200 437.643 -200 0.207912 0.978148<183.04 806.688 1194.09 1825.98>
LayerCount: 2
Fore
SplineSet
167 -200 m 1,0,-1
 335 589 l 1,1,-1
 622 713 l 1,2,-1
 632 713 l 1,3,-1
 464 -76 l 1,4,-1
 177 -200 l 1,5,-1
 167 -200 l 1,0,-1
833 1710 m 1,6,-1
 843 1710 l 1,7,-1
 674 913 l 1,8,-1
 388 789 l 1,9,-1
 378 789 l 1,10,-1
 547 1586 l 1,11,-1
 833 1710 l 1,6,-1
EndSplineSet
Validated: 1
EndChar

StartChar: section
Encoding: 167 167 103
Width: 1109
GlyphClass: 2
Flags: W
HStem: -20 140<517.788 662.486> 445 140<569.395 712.426> 925 140<716.574 859.605> 1390 140<766.514 911.212>
VStem: 219 287<129.403 244.101> 259 301<594.506 740.376> 415 287<1077.06 1330.2> 727 287<179.805 432.937> 869 301<769.624 915.494> 923 287<1265.9 1380.6>
LayerCount: 2
Fore
SplineSet
575 -20 m 0,0,1
 405 -20 405 -20 308 56 c 0,2,3
 219 126 219 126 219 220 c 0,4,5
 219 228 219 228 220 235 c 1,6,-1
 535 371 l 1,7,-1
 545 371 l 1,8,-1
 508 196 l 2,9,10
 506 187 506 187 506 176 c 0,11,12
 506 148 506 148 526 134 c 128,-1,13
 546 120 546 120 575 120 c 0,14,15
 625 120 625 120 651 138 c 0,16,17
 678 157 678 157 684 186 c 2,18,-1
 725 381 l 2,19,20
 727 391 727 391 727 395 c 0,21,22
 727 413 727 413 713 427 c 0,23,24
 695 445 695 445 630 445 c 0,25,26
 427 445 427 445 340 518 c 0,27,28
 259 586 259 586 259 678 c 0,29,30
 259 703 259 703 264 727 c 2,31,-1
 271 760 l 2,32,33
 294 868 294 868 354 942 c 1,34,-1
 592 816 l 1,35,-1
 563 679 l 2,36,37
 560 665 560 665 560 654 c 0,38,39
 560 585 560 585 665 585 c 0,40,41
 851 585 851 585 939 517 c 0,42,43
 1014 459 1014 459 1014 376 c 0,44,45
 1014 356 1014 356 1009 332 c 2,46,-1
 992 252 l 2,47,48
 963 114 963 114 863 56 c 0,49,50
 731 -20 731 -20 575 -20 c 0,0,1
854 1530 m 0,51,52
 1024 1530 1024 1530 1121 1454 c 0,53,54
 1210 1384 1210 1384 1210 1290 c 0,55,56
 1210 1282 1210 1282 1209 1275 c 1,57,-1
 894 1139 l 1,58,-1
 884 1139 l 1,59,-1
 921 1314 l 2,60,61
 923 1323 923 1323 923 1334 c 0,62,63
 923 1362 923 1362 903 1376 c 128,-1,64
 883 1390 883 1390 854 1390 c 0,65,66
 804 1390 804 1390 778 1372 c 0,67,68
 751 1353 751 1353 745 1324 c 2,69,-1
 704 1129 l 2,70,71
 702 1119 702 1119 702 1115 c 0,72,73
 702 1097 702 1097 716 1083 c 0,74,75
 734 1065 734 1065 799 1065 c 0,76,77
 1002 1065 1002 1065 1089 992 c 0,78,79
 1170 924 1170 924 1170 832 c 0,80,81
 1170 807 1170 807 1165 783 c 2,82,-1
 1158 750 l 2,83,84
 1135 642 1135 642 1075 568 c 1,85,-1
 837 694 l 1,86,-1
 866 831 l 2,87,88
 869 845 869 845 869 856 c 0,89,90
 869 925 869 925 764 925 c 0,91,92
 578 925 578 925 490 993 c 0,93,94
 415 1051 415 1051 415 1134 c 0,95,96
 415 1154 415 1154 420 1178 c 2,97,-1
 437 1258 l 2,98,99
 466 1396 466 1396 566 1454 c 0,100,101
 698 1530 698 1530 854 1530 c 0,51,52
EndSplineSet
Validated: 1
EndChar

StartChar: dieresis
Encoding: 168 168 104
Width: 690
GlyphClass: 2
Flags: W
HStem: 1210 297<383.468 545.489 722.984 883.99>
VStem: 315 300<1278.5 1438.97> 653 300<1278.5 1437.11>
LayerCount: 2
Fore
SplineSet
834 1507 m 128,-1,1
 894 1507 894 1507 928 1463 c 0,2,3
 952 1432 952 1432 953 1391 c 0,4,5
 953 1374 953 1374 949 1358 c 0,6,7
 936 1298 936 1298 884 1254 c 128,-1,8
 832 1210 832 1210 771 1210 c 128,-1,9
 710 1210 710 1210 677 1254 c 0,10,11
 653 1286 653 1286 653 1325 c 0,12,13
 653 1341 653 1341 657 1358 c 0,14,15
 669 1417 669 1417 722 1462 c 0,16,0
 774 1507 774 1507 834 1507 c 128,-1,1
495.5 1507 m 128,-1,18
 556 1507 556 1507 590 1463 c 0,19,20
 615 1431 615 1431 615 1391 c 0,21,22
 615 1376 615 1376 611 1358 c 0,23,24
 598 1298 598 1298 545.5 1254 c 128,-1,25
 493 1210 493 1210 433 1210 c 0,26,27
 372 1210 372 1210 339 1254 c 0,28,29
 315 1286 315 1286 315 1325 c 0,30,31
 315 1341 315 1341 319 1358 c 0,32,33
 332 1419 332 1419 383 1462 c 0,34,17
 435 1507 435 1507 495.5 1507 c 128,-1,18
EndSplineSet
Validated: 1
EndChar

StartChar: copyright
Encoding: 169 169 105
Width: 1340
GlyphClass: 2
Flags: W
HStem: 386 52<604.584 925.646> 544 96<740.729 907.529> 1263 95<859.223 1015.62> 1478 52<824.632 1143.39>
VStem: 302 59<686.575 1015.56> 542 192<650.933 899.953> 1022 195<1137.46 1244.72> 1386 59<900.437 1234>
DStem2: 464.465 386 668.832 386 0.207912 0.978148<348.478 922.206>
LayerCount: 2
Fore
SplineSet
951 1358 m 0,0,1
 1069 1358 1069 1358 1148 1304 c 0,2,3
 1217 1257 1217 1257 1217 1177 c 0,4,5
 1217 1157 1217 1157 1213 1135 c 2,6,-1
 1209 1115 l 1,7,-1
 995 1037 l 1,8,-1
 985 1037 l 1,9,-1
 1020 1201 l 2,10,11
 1022 1210 1022 1210 1022 1218 c 0,12,13
 1022 1236 1022 1236 1011 1245 c 0,14,15
 989 1263 989 1263 944 1263 c 0,16,17
 908 1263 908 1263 870 1245 c 0,18,19
 849 1235 849 1235 842 1201 c 2,20,-1
 736 702 l 2,21,22
 734 692 734 692 734 684 c 0,23,24
 734 666 734 666 745 658 c 0,25,26
 771 640 771 640 813 640 c 0,27,28
 901 640 901 640 914 702 c 2,29,-1
 932 787 l 1,30,-1
 1148 873 l 1,31,-1
 1158 873 l 1,32,-1
 1138 779 l 2,33,34
 1110 646 1110 646 1022 599 c 0,35,36
 919 544 919 544 808 544 c 0,37,38
 700 544 700 544 608 600 c 0,39,40
 542 640 542 640 542 725 c 0,41,42
 542 750 542 750 548 779 c 2,43,-1
 621 1124 l 2,44,45
 649 1257 649 1257 735 1303 c 0,46,47
 838 1358 838 1358 951 1358 c 0,0,1
754 386 m 0,48,49
 528 386 528 386 398 549 c 0,50,51
 302 669 302 669 302 841 c 0,52,53
 302 890 302 890 310 943 c 0,54,55
 345 1183 345 1183 555 1362 c 0,56,57
 752 1530 752 1530 993 1530 c 0,58,59
 1219 1530 1219 1530 1349 1367 c 0,60,61
 1445 1247 1445 1247 1445 1075 c 0,62,63
 1445 1026 1445 1026 1437 973 c 0,64,65
 1402 733 1402 733 1192 554 c 0,66,67
 994 386 994 386 754 386 c 0,48,49
983 1478 m 0,68,69
 783 1478 783 1478 603 1330 c 0,70,71
 421 1181 421 1181 373 953 c 0,72,73
 361 897 361 897 361 843 c 0,74,75
 361 704 361 704 442 587 c 0,76,77
 545 438 545 438 764 438 c 0,78,79
 964 438 964 438 1144 586 c 0,80,81
 1326 735 1326 735 1374 963 c 0,82,83
 1386 1022 1386 1022 1386 1077 c 0,84,85
 1386 1216 1386 1216 1308 1329 c 0,86,87
 1205 1478 1205 1478 983 1478 c 0,68,69
EndSplineSet
Validated: 1
EndChar

StartChar: ordfeminine
Encoding: 170 170 106
Width: 581
GlyphClass: 2
Flags: W
HStem: 733 180<295 626> 969 92<448.854 585.375> 1254 91<478.257 625.199> 1479 91<512 662.522>
VStem: 294 151<1068.67 1241.68> 669 178<1268.23 1470.76>
DStem2: 524.567 733 706.745 733 0.207912 0.978148<351.736 501.622 614.092 730.23>
LayerCount: 2
Fore
SplineSet
512 1570 m 1,0,-1
 612 1570 l 2,1,2
 712 1570 712 1570 788 1521 c 0,3,4
 846 1483 846 1483 847 1413 c 0,5,6
 847 1393 847 1393 842 1370 c 2,7,-1
 772 1040 l 1,8,-1
 577 969 l 1,9,-1
 567 969 l 1,10,-1
 570 984 l 1,11,12
 539 969 539 969 507 969 c 0,13,14
 408 970 408 970 348 1018 c 0,15,16
 295 1061 295 1061 294 1126 c 0,17,18
 294 1144 294 1144 298 1163 c 2,19,-1
 301 1178 l 2,20,21
 318 1261 318 1261 394 1302 c 0,22,23
 473 1345 473 1345 560 1345 c 0,24,25
 618 1345 618 1345 646 1335 c 1,26,-1
 668 1438 l 2,27,28
 669 1444 669 1444 669 1449 c 0,29,30
 669 1460 669 1460 663 1465 c 0,31,32
 648 1479 648 1479 595 1479 c 2,33,-1
 460 1479 l 1,34,-1
 462 1489 l 1,35,-1
 512 1570 l 1,0,-1
515 1061 m 0,36,37
 595 1061 595 1061 603 1102 c 2,38,-1
 627 1213 l 2,39,40
 628 1219 628 1219 628 1224 c 0,41,42
 628 1234 628 1234 623 1240 c 0,43,44
 608 1254 608 1254 555 1254 c 0,45,46
 508 1254 508 1254 486 1241 c 0,47,48
 475 1234 475 1234 470 1214 c 2,49,-1
 446 1103 l 2,50,51
 445 1097 445 1097 445 1092 c 0,52,53
 445 1080 445 1080 451 1074 c 0,54,55
 466 1061 466 1061 515 1061 c 0,36,37
295 913 m 1,56,-1
 745 913 l 1,57,-1
 743 903 l 1,58,-1
 626 733 l 1,59,-1
 176 733 l 1,60,-1
 178 743 l 1,61,-1
 295 913 l 1,56,-1
EndSplineSet
Validated: 1
EndChar

StartChar: guillemotleft
Encoding: 171 171 107
Width: 1292
GlyphClass: 2
Flags: W
DStem2: 544 857 270 755 0.35398 -0.935253<0 525.631> 270 755 544 857 0.626077 0.779761<251.081 793.832> 1025 857 751 755 0.35398 -0.935253<0 525.631> 751 755 1025 857 0.626077 0.779761<251.081 793.832>
LayerCount: 2
Fore
SplineSet
751 755 m 1,0,-1
 1248 1374 l 1,1,-1
 1258 1374 l 1,2,-1
 1384 1307 l 1,3,-1
 1025 857 l 1,4,-1
 1210 365 l 1,5,-1
 951 253 l 1,6,-1
 941 253 l 1,7,-1
 751 755 l 1,0,-1
270 755 m 1,8,-1
 767 1374 l 1,9,-1
 777 1374 l 1,10,-1
 903 1307 l 1,11,-1
 544 857 l 1,12,-1
 729 365 l 1,13,-1
 470 253 l 1,14,-1
 460 253 l 1,15,-1
 270 755 l 1,8,-1
EndSplineSet
Validated: 1
EndChar

StartChar: logicalnot
Encoding: 172 172 108
Width: 1240
GlyphClass: 2
Flags: W
HStem: 620 270<424 891>
VStem: 709 246<358 604>
LayerCount: 2
Fore
SplineSet
424 890 m 1,0,-1
 1319 890 l 1,1,-1
 1317 880 l 1,2,-1
 955 358 l 1,3,-1
 709 358 l 1,4,-1
 891 620 l 1,5,-1
 242 620 l 1,6,-1
 244 630 l 1,7,-1
 424 890 l 1,0,-1
EndSplineSet
Validated: 1
EndChar

StartChar: uni00AD
Encoding: 173 173 109
Width: 1240
GlyphClass: 2
Flags: W
HStem: 620 270<424 1137>
LayerCount: 2
Fore
SplineSet
424 890 m 1,0,-1
 1319 890 l 1,1,-1
 1317 880 l 1,2,-1
 1137 620 l 1,3,-1
 242 620 l 1,4,-1
 244 630 l 1,5,-1
 424 890 l 1,0,-1
EndSplineSet
Validated: 1
EndChar

StartChar: registered
Encoding: 174 174 110
Width: 1340
GlyphClass: 2
Flags: W
HStem: 386 52<604.584 925.646> 778 96<784 837> 1259 96<866 1017.06> 1478 52<824.632 1143.39>
VStem: 302 59<686.575 1015.56> 1029 192<995.043 1247.29> 1386 59<900.437 1234>
DStem2: 479.566 386 679.624 386 0.207912 0.978148<283.889 442.363 540.631 912.101> 854.829 386 1060.2 386 0.207912 0.978148<526.166 837.435>
LayerCount: 2
Fore
SplineSet
866 1259 m 1,0,-1
 784 874 l 1,1,-1
 857 874 l 2,2,3
 913 874 913 874 944 892 c 0,4,5
 966 905 966 905 972 937 c 2,6,-1
 1027 1196 l 2,7,8
 1029 1207 1029 1207 1029 1215 c 0,9,10
 1029 1234 1029 1234 1018 1241 c 0,11,12
 988 1259 988 1259 939 1259 c 2,13,-1
 866 1259 l 1,0,-1
754 386 m 0,14,15
 528 386 528 386 398 549 c 0,16,17
 302 669 302 669 302 841 c 0,18,19
 302 890 302 890 310 943 c 0,20,21
 345 1183 345 1183 555 1362 c 0,22,23
 752 1530 752 1530 993 1530 c 0,24,25
 1219 1530 1219 1530 1349 1367 c 0,26,27
 1445 1247 1445 1247 1445 1075 c 0,28,29
 1445 1026 1445 1026 1437 973 c 0,30,31
 1402 733 1402 733 1192 554 c 0,32,33
 994 386 994 386 754 386 c 0,14,15
983 1478 m 0,34,35
 783 1478 783 1478 603 1330 c 0,36,37
 421 1181 421 1181 373 953 c 0,38,39
 361 897 361 897 361 843 c 0,40,41
 361 704 361 704 442 587 c 0,42,43
 545 438 545 438 764 438 c 0,44,45
 964 438 964 438 1144 586 c 0,46,47
 1326 735 1326 735 1374 963 c 0,48,49
 1386 1022 1386 1022 1386 1077 c 0,50,51
 1386 1216 1386 1216 1308 1329 c 0,52,53
 1205 1478 1205 1478 983 1478 c 0,34,35
860 1355 m 1,54,-1
 949 1355 l 2,55,56
 1068 1355 1068 1355 1148 1299 c 0,57,58
 1221 1247 1221 1247 1221 1165 c 0,59,60
 1221 1143 1221 1143 1216 1119 c 2,61,-1
 1194 1015 l 2,62,63
 1162 863 1162 863 1038 821 c 1,64,-1
 1170 624 l 1,65,-1
 988 558 l 1,66,-1
 978 558 l 1,67,-1
 837 778 l 1,68,-1
 763 778 l 1,69,-1
 730 623 l 1,70,-1
 524 548 l 1,71,-1
 514 548 l 1,72,-1
 670 1278 l 1,73,-1
 860 1355 l 1,54,-1
EndSplineSet
Validated: 1
EndChar

StartChar: macron
Encoding: 175 175 111
Width: 680
GlyphClass: 2
Flags: W
HStem: 1288 190<430 838>
VStem: 304 660
LayerCount: 2
Fore
SplineSet
430 1478 m 1,0,-1
 964 1478 l 1,1,-1
 962 1468 l 1,2,-1
 838 1288 l 1,3,-1
 304 1288 l 1,4,-1
 306 1298 l 1,5,-1
 430 1478 l 1,0,-1
EndSplineSet
Validated: 1
EndChar

StartChar: degree
Encoding: 176 176 112
Width: 724
GlyphClass: 2
Flags: W
HStem: 898 98<484.493 678.949> 1472 98<569.933 764.791>
VStem: 268 205<1012.89 1281.53> 776 204<1186.47 1455.56>
DStem2: 220.436 898 436.102 898 0.207912 0.978148<210.299 596.982> 670.06 898 884.726 898 0.207912 0.978148<134.662 521.553>
LayerCount: 2
Fore
SplineSet
675 1472 m 128,-1,1
 622 1472 622 1472 581 1449 c 0,2,3
 549 1431 549 1431 540 1387 c 2,4,-1
 475 1081 l 2,5,6
 473 1069 473 1069 473 1059 c 0,7,8
 473 1032 473 1032 490 1019 c 0,9,10
 521 996 521 996 574 996 c 128,-1,11
 627 996 627 996 668 1019 c 0,12,13
 700 1037 700 1037 709 1081 c 2,14,-1
 774 1387 l 2,15,16
 776 1399 776 1399 776 1409 c 0,17,18
 776 1436 776 1436 759 1449 c 0,19,0
 728 1472 728 1472 675 1472 c 128,-1,1
681 1570 m 0,20,21
 814 1570 814 1570 908 1509 c 0,22,23
 980 1463 980 1463 980 1374 c 0,24,25
 980 1348 980 1348 974 1318 c 2,26,-1
 938 1150 l 2,27,28
 908 1011 908 1011 812 959 c 0,29,30
 700 898 700 898 568 898 c 0,31,32
 428 898 428 898 341 959 c 0,33,34
 268 1010 268 1010 268 1097 c 0,35,36
 268 1122 268 1122 274 1150 c 2,37,-1
 310 1318 l 2,38,39
 340 1457 340 1457 436 1509 c 0,40,41
 549 1570 549 1570 681 1570 c 0,20,21
EndSplineSet
Validated: 1
EndChar

StartChar: plusminus
Encoding: 177 177 113
Width: 1240
GlyphClass: 2
Flags: W
HStem: 154 270<325 1038> 828 270<468 661 988 1181>
DStem2: 517.446 154 787.876 154 0.207912 0.978148<489.698 689.118 1021.21 1220.83>
LayerCount: 2
Fore
SplineSet
325 424 m 1,0,-1
 1220 424 l 1,1,-1
 1218 414 l 1,2,-1
 1038 154 l 1,3,-1
 143 154 l 1,4,-1
 145 164 l 1,5,-1
 325 424 l 1,0,-1
1058 1473 m 1,6,-1
 1068 1473 l 1,7,-1
 988 1098 l 1,8,-1
 1363 1098 l 1,9,-1
 1361 1088 l 1,10,-1
 1181 828 l 1,11,-1
 931 828 l 1,12,-1
 878 578 l 1,13,-1
 591 453 l 1,14,-1
 581 453 l 1,15,-1
 661 828 l 1,16,-1
 286 828 l 1,17,-1
 288 838 l 1,18,-1
 468 1098 l 1,19,-1
 718 1098 l 1,20,-1
 772 1348 l 1,21,-1
 1058 1473 l 1,6,-1
EndSplineSet
Validated: 1
EndChar

StartChar: uni00B2
Encoding: 178 178 114
Width: 671
GlyphClass: 2
Flags: W
HStem: 764 191<500 731> 1476 94<548.351 723.143>
VStem: 729 193<1235.55 1464.14>
LayerCount: 2
Fore
SplineSet
656 1570 m 0,0,1
 778 1570 778 1570 855 1514 c 0,2,3
 922 1466 922 1466 922 1386 c 0,4,5
 922 1362 922 1362 916 1335 c 2,6,-1
 907 1295 l 2,7,8
 870 1131 870 1131 685 1043 c 2,9,-1
 500 955 l 1,10,-1
 844 955 l 1,11,-1
 842 945 l 1,12,-1
 731 764 l 1,13,-1
 192 764 l 1,14,-1
 195 774 l 1,15,-1
 320 966 l 1,16,-1
 538 1086 l 2,17,18
 675 1161 675 1161 701 1288 c 2,19,-1
 727 1413 l 2,20,21
 729 1423 729 1423 729 1429 c 0,22,23
 729 1446 729 1446 719 1457 c 0,24,25
 701 1476 701 1476 651 1476 c 0,26,27
 555 1476 555 1476 542 1413 c 2,28,-1
 522 1316 l 1,29,-1
 316 1241 l 1,30,-1
 306 1241 l 1,31,-1
 326 1335 l 2,32,33
 354 1469 354 1469 441 1516 c 0,34,35
 542 1570 542 1570 656 1570 c 0,0,1
EndSplineSet
Validated: 1
EndChar

StartChar: uni00B3
Encoding: 179 179 115
Width: 654
GlyphClass: 2
Flags: W
HStem: 753 96<435.398 591.026> 1464 96<459 665>
VStem: 244 185<867.221 975.91> 660 193<1079.22 1189.78>
DStem2: 575.416 753 779.837 753 0.207912 0.978148<116.774 416.876>
LayerCount: 2
Fore
SplineSet
459 1560 m 1,0,-1
 956 1560 l 1,1,-1
 725 1277 l 1,2,3
 765 1267 765 1267 791 1248 c 0,4,5
 853 1202 853 1202 853 1121 c 0,6,7
 853 1095 853 1095 847 1067 c 2,8,-1
 830 989 l 2,9,10
 801 855 801 855 715 808 c 0,11,12
 612 753 612 753 500 753 c 0,13,14
 384 753 384 753 303 808 c 0,15,16
 244 848 244 848 244 942 c 0,17,18
 244 965 244 965 250 991 c 1,19,-1
 455 1074 l 1,20,-1
 465 1074 l 1,21,-1
 431 911 l 2,22,23
 429 901 429 901 429 892 c 0,24,25
 429 874 429 874 439 867 c 0,26,27
 467 849 467 849 508 849 c 128,-1,28
 549 849 549 849 580 867 c 0,29,30
 602 880 602 880 609 911 c 2,31,-1
 658 1145 l 2,32,33
 660 1155 660 1155 660 1164 c 0,34,35
 660 1183 660 1183 649 1190 c 0,36,37
 619 1208 619 1208 580 1208 c 0,38,39
 537 1208 537 1208 498 1192 c 1,40,-1
 474 1228 l 1,41,-1
 665 1464 l 1,42,-1
 397 1464 l 1,43,-1
 399 1474 l 1,44,-1
 459 1560 l 1,0,-1
EndSplineSet
Validated: 1
EndChar

StartChar: acute
Encoding: 180 180 116
Width: 401
GlyphClass: 2
Flags: W
HStem: 1160 410
VStem: 296 389
DStem2: 296 1250 478 1160 0.541289 0.840837<22.8392 380.573>
LayerCount: 2
Fore
SplineSet
512 1570 m 1,0,-1
 685 1478 l 1,1,-1
 478 1160 l 1,2,-1
 468 1160 l 1,3,-1
 296 1250 l 1,4,-1
 502 1570 l 1,5,-1
 512 1570 l 1,0,-1
EndSplineSet
Validated: 1
EndChar

StartChar: uni00B5
Encoding: 181 181 117
Width: 1230
GlyphClass: 2
Flags: W
HStem: -430 21G<49 105.232> -20 140<508.13 788.333> 1100 20G<621.768 678 1271.77 1328>
DStem2: 49 -430 348.667 -430 0.207912 0.978148<203.387 502.875 718.487 1443.52> 698.87 -430 998.537 -430 0.207912 0.978148<633.54 1443.54>
LayerCount: 2
Fore
SplineSet
349 982 m 1,0,-1
 668 1120 l 1,1,-1
 678 1120 l 1,2,-1
 491 242 l 2,3,4
 487 225 487 225 487 211 c 0,5,6
 487 172 487 172 513 153 c 0,7,8
 557 120 557 120 641 120 c 128,-1,9
 725 120 725 120 783 153 c 0,10,11
 827 178 827 178 841 242 c 2,12,-1
 999 982 l 1,13,-1
 1318 1120 l 1,14,-1
 1328 1120 l 1,15,-1
 1162 340 l 2,16,17
 1119 136 1119 136 991 67 c 0,18,19
 830 -20 830 -20 641 -20 c 0,20,21
 518 -20 518 -20 440 1 c 1,22,-1
 378 -292 l 1,23,-1
 59 -430 l 1,24,-1
 49 -430 l 1,25,-1
 349 982 l 1,0,-1
EndSplineSet
Validated: 1
EndChar

StartChar: paragraph
Encoding: 182 182 118
Width: 1220
GlyphClass: 2
Flags: W
HStem: -20 21G<736 792.538> 1510 20G<785.5 974>
DStem2: 736 -20 855.947 -20 0.207912 0.978148<78.1001 481.499> 939.445 -20 1055.75 -20 0.207912 0.978148<174.466 1190.03>
LayerCount: 2
Fore
SplineSet
746 -20 m 1,0,-1
 736 -20 l 1,1,-1
 836 451 l 1,2,3
 759 428 759 428 691 428 c 0,4,5
 502 428 502 428 378 515 c 0,6,7
 269 591 269 591 269 716 c 0,8,9
 269 750 269 750 277 788 c 2,10,-1
 359 1170 l 2,11,12
 403 1374 403 1374 530 1443 c 0,13,14
 691 1530 691 1530 880 1530 c 0,15,16
 1068 1530 1068 1530 1208 1443 c 0,17,18
 1318 1374 1318 1374 1318 1247 c 0,19,20
 1318 1211 1318 1211 1309 1170 c 2,21,-1
 1087 127 l 1,22,-1
 959 72 l 1,23,-1
 1187 1144 l 1,24,-1
 1095 1106 l 1,25,-1
 867 32 l 1,26,-1
 746 -20 l 1,0,-1
EndSplineSet
Validated: 1
EndChar

StartChar: periodcentered
Encoding: 183 183 119
Width: 420
GlyphClass: 2
Flags: W
HStem: 573 365<282.097 458.323>
VStem: 186 369<668.75 842.936>
LayerCount: 2
Fore
SplineSet
409 938 m 0,0,1
 485 938 485 938 526 885 c 0,2,3
 555 847 555 847 555 796 c 0,4,5
 555 777 555 777 551 756 c 0,6,7
 535 681 535 681 470.5 627 c 128,-1,8
 406 573 406 573 332 573 c 0,9,10
 256 573 256 573 216 627 c 0,11,12
 186 666 186 666 186 716 c 0,13,14
 186 735 186 735 190 755 c 0,15,16
 206 831 206 831 270 884 c 0,17,18
 334 938 334 938 409 938 c 0,0,1
EndSplineSet
Validated: 1
EndChar

StartChar: cedilla
Encoding: 184 184 120
Width: 440
GlyphClass: 2
Flags: W
HStem: -410 410 -20 20G<136 294.5>
VStem: 172 199<-200.312 -79.297>
LayerCount: 2
Fore
SplineSet
-57 -410 m 1,0,-1
 -55 -400 l 1,1,-1
 69 -220 l 1,2,3
 158 -204 158 -204 171 -145 c 0,4,5
 172 -139 172 -139 172 -133 c 0,6,7
 172 -97 172 -97 120 -76 c 1,8,-1
 136 0 l 1,9,-1
 299 0 l 1,10,-1
 290 -40 l 1,11,12
 371 -82 371 -82 371 -166 c 0,13,14
 371 -176 371 -176 370 -187 c 0,15,16
 346 -410 346 -410 -57 -410 c 1,0,-1
EndSplineSet
Validated: 1
EndChar

StartChar: uni00B9
Encoding: 185 185 121
Width: 411
GlyphClass: 2
Flags: W
VStem: 312 373
DStem2: 312 756 512.058 756 0.207912 0.978148<118.27 647.236>
LayerCount: 2
Fore
SplineSet
675 1570 m 1,0,-1
 685 1570 l 1,1,-1
 528 831 l 1,2,-1
 322 756 l 1,3,-1
 312 756 l 1,4,-1
 447 1389 l 1,5,-1
 314 1337 l 1,6,-1
 334 1432 l 1,7,-1
 675 1570 l 1,0,-1
EndSplineSet
Validated: 1
EndChar

StartChar: ordmasculine
Encoding: 186 186 122
Width: 594
GlyphClass: 2
Flags: W
HStem: 733 180<295 639> 960 91<474.285 596.918> 1480 90<554.381 680.684>
VStem: 292 179<1058.17 1298.34> 681 179<1232.66 1479.37>
DStem2: 206.238 733 395.905 733 0.207912 0.978148<394.617 791.804> 529.905 733 720.238 733 0.207912 0.978148<336.415 731.646>
LayerCount: 2
Fore
SplineSet
622 1480 m 0,0,1
 585 1480 585 1480 563 1467 c 0,2,3
 550 1459 550 1459 546 1440 c 2,4,-1
 472 1091 l 2,5,6
 471 1085 471 1085 471 1080 c 0,7,8
 471 1070 471 1070 476 1064 c 0,9,10
 489 1051 489 1051 530 1051 c 0,11,12
 570 1051 570 1051 589 1064 c 0,13,14
 602 1073 602 1073 606 1091 c 2,15,-1
 680 1440 l 2,16,17
 681 1445 681 1445 681 1449 c 0,18,19
 681 1480 681 1480 622 1480 c 0,0,1
627 1570 m 0,20,21
 732 1570 732 1570 803 1522 c 0,22,23
 860 1484 860 1484 860 1414 c 0,24,25
 860 1394 860 1394 855 1371 c 2,26,-1
 811 1160 l 2,27,28
 787 1047 787 1047 715 1008 c 0,29,30
 626 960 626 960 526 960 c 0,31,32
 420 960 420 960 349 1009 c 0,33,34
 292 1048 292 1048 292 1117 c 0,35,36
 292 1137 292 1137 297 1160 c 2,37,-1
 341 1371 l 2,38,39
 366 1484 366 1484 438 1522 c 0,40,41
 528 1570 528 1570 627 1570 c 0,20,21
295 913 m 1,42,-1
 758 913 l 1,43,-1
 756 903 l 1,44,-1
 639 733 l 1,45,-1
 176 733 l 1,46,-1
 178 743 l 1,47,-1
 295 913 l 1,42,-1
EndSplineSet
Validated: 1
EndChar

StartChar: guillemotright
Encoding: 187 187 123
Width: 1292
GlyphClass: 2
Flags: W
DStem2: 229 203 365 136 0.626077 0.779761<32.9024 575.654> 672 1257 403 1145 0.35398 -0.935253<9.52766 535.158> 710 203 846 136 0.626077 0.779761<32.9024 575.654> 1153 1257 884 1145 0.35398 -0.935253<9.52766 535.158>
LayerCount: 2
Fore
SplineSet
862 755 m 1,0,-1
 365 136 l 1,1,-1
 355 136 l 1,2,-1
 229 203 l 1,3,-1
 588 653 l 1,4,-1
 403 1145 l 1,5,-1
 662 1257 l 1,6,-1
 672 1257 l 1,7,-1
 862 755 l 1,0,-1
1343 755 m 1,8,-1
 846 136 l 1,9,-1
 836 136 l 1,10,-1
 710 203 l 1,11,-1
 1069 653 l 1,12,-1
 884 1145 l 1,13,-1
 1143 1257 l 1,14,-1
 1153 1257 l 1,15,-1
 1343 755 l 1,8,-1
EndSplineSet
Validated: 1
EndChar

StartChar: onequarter
Encoding: 188 188 124
Width: 1543
GlyphClass: 2
Flags: W
HStem: -20 21G<450.301 511.57 1154 1218.93> 142 96<998 1188 1409 1416> 1510 20G<697.58 757 1237.42 1298.52>
DStem2: 227.558 -20 427.617 -20 0.207912 0.978148<870.713 1399.68> 275 93 498 -20 0.561853 0.827237<31.8155 1737.11> 802 152 998 238 0.669408 0.742895<195.093 607.175> 1154 -20 1354.06 -20 0.207912 0.978148<118.27 165.529 305.38 576.625>
LayerCount: 2
Fore
SplineSet
747 1530 m 1,0,-1
 757 1530 l 1,1,-1
 600 791 l 1,2,-1
 394 716 l 1,3,-1
 384 716 l 1,4,-1
 519 1349 l 1,5,-1
 386 1297 l 1,6,-1
 406 1392 l 1,7,-1
 747 1530 l 1,0,-1
998 238 m 1,8,-1
 1209 238 l 1,9,-1
 1274 544 l 1,10,-1
 998 238 l 1,8,-1
1164 -20 m 1,11,-1
 1154 -20 l 1,12,-1
 1188 142 l 1,13,-1
 800 142 l 1,14,-1
 802 152 l 1,15,-1
 1303 708 l 1,16,-1
 1517 794 l 1,17,-1
 1527 794 l 1,18,-1
 1409 238 l 1,19,-1
 1484 238 l 1,20,-1
 1481 228 l 1,21,-1
 1416 133 l 1,22,-1
 1386 133 l 1,23,-1
 1370 55 l 1,24,-1
 1164 -20 l 1,11,-1
488 -20 m 1,25,-1
 275 93 l 1,26,-1
 1251 1530 l 1,27,-1
 1261 1530 l 1,28,-1
 1473 1417 l 1,29,-1
 498 -20 l 1,30,-1
 488 -20 l 1,25,-1
EndSplineSet
Validated: 1
EndChar

StartChar: onehalf
Encoding: 189 189 125
Width: 1677
GlyphClass: 2
Flags: W
HStem: -20 21G<450.301 511.57> 0 191<1264 1495> 712 94<1312.35 1487.14> 1510 20G<697.58 757 1237.42 1298.52>
VStem: 1493 193<471.549 700.136>
DStem2: 227.558 -20 427.617 -20 0.207912 0.978148<870.713 1399.68> 275 93 498 -20 0.561853 0.827237<31.8155 1737.11>
LayerCount: 2
Fore
SplineSet
1420 806 m 0,0,1
 1542 806 1542 806 1619 750 c 0,2,3
 1686 702 1686 702 1686 622 c 0,4,5
 1686 598 1686 598 1680 571 c 2,6,-1
 1671 531 l 2,7,8
 1634 367 1634 367 1449 279 c 2,9,-1
 1264 191 l 1,10,-1
 1608 191 l 1,11,-1
 1606 181 l 1,12,-1
 1495 0 l 1,13,-1
 956 0 l 1,14,-1
 959 10 l 1,15,-1
 1084 202 l 1,16,-1
 1302 322 l 2,17,18
 1439 397 1439 397 1465 524 c 2,19,-1
 1491 649 l 2,20,21
 1493 659 1493 659 1493 665 c 0,22,23
 1493 682 1493 682 1483 693 c 0,24,25
 1465 712 1465 712 1415 712 c 0,26,27
 1319 712 1319 712 1306 649 c 2,28,-1
 1286 552 l 1,29,-1
 1080 477 l 1,30,-1
 1070 477 l 1,31,-1
 1090 571 l 2,32,33
 1118 705 1118 705 1205 752 c 0,34,35
 1306 806 1306 806 1420 806 c 0,0,1
747 1530 m 1,36,-1
 757 1530 l 1,37,-1
 600 791 l 1,38,-1
 394 716 l 1,39,-1
 384 716 l 1,40,-1
 519 1349 l 1,41,-1
 386 1297 l 1,42,-1
 406 1392 l 1,43,-1
 747 1530 l 1,36,-1
488 -20 m 1,44,-1
 275 93 l 1,45,-1
 1251 1530 l 1,46,-1
 1261 1530 l 1,47,-1
 1473 1417 l 1,48,-1
 498 -20 l 1,49,-1
 488 -20 l 1,44,-1
EndSplineSet
Validated: 1
EndChar

StartChar: threequarters
Encoding: 190 190 126
Width: 1780
GlyphClass: 2
Flags: W
HStem: -20 21G<687.301 748.57 1391 1455.93> 142 96<1235 1425 1646 1653> 723 96<508.398 664.026> 1434 96<532 738>
VStem: 317 185<837.221 945.91> 733 193<1049.22 1159.78>
DStem2: 490.487 -20 694.907 -20 0.207912 0.978148<876.373 1176.47> 512 93 735 -20 0.561853 0.827237<31.8155 1737.11> 1039 152 1235 238 0.669408 0.742895<195.093 607.175> 1391 -20 1591.06 -20 0.207912 0.978148<118.27 165.529 305.38 576.625>
LayerCount: 2
Fore
SplineSet
532 1530 m 1,0,-1
 1029 1530 l 1,1,-1
 798 1247 l 1,2,3
 838 1237 838 1237 864 1218 c 0,4,5
 926 1172 926 1172 926 1091 c 0,6,7
 926 1065 926 1065 920 1037 c 2,8,-1
 903 959 l 2,9,10
 874 825 874 825 788 778 c 0,11,12
 685 723 685 723 573 723 c 0,13,14
 457 723 457 723 376 778 c 0,15,16
 317 818 317 818 317 912 c 0,17,18
 317 935 317 935 323 961 c 1,19,-1
 528 1044 l 1,20,-1
 538 1044 l 1,21,-1
 504 881 l 2,22,23
 502 871 502 871 502 862 c 0,24,25
 502 844 502 844 512 837 c 0,26,27
 540 819 540 819 581 819 c 128,-1,28
 622 819 622 819 653 837 c 0,29,30
 675 850 675 850 682 881 c 2,31,-1
 731 1115 l 2,32,33
 733 1125 733 1125 733 1134 c 0,34,35
 733 1153 733 1153 722 1160 c 0,36,37
 692 1178 692 1178 653 1178 c 0,38,39
 610 1178 610 1178 571 1162 c 1,40,-1
 547 1198 l 1,41,-1
 738 1434 l 1,42,-1
 470 1434 l 1,43,-1
 472 1444 l 1,44,-1
 532 1530 l 1,0,-1
1235 238 m 1,45,-1
 1446 238 l 1,46,-1
 1511 544 l 1,47,-1
 1235 238 l 1,45,-1
1401 -20 m 1,48,-1
 1391 -20 l 1,49,-1
 1425 142 l 1,50,-1
 1037 142 l 1,51,-1
 1039 152 l 1,52,-1
 1540 708 l 1,53,-1
 1754 794 l 1,54,-1
 1764 794 l 1,55,-1
 1646 238 l 1,56,-1
 1721 238 l 1,57,-1
 1718 228 l 1,58,-1
 1653 133 l 1,59,-1
 1623 133 l 1,60,-1
 1607 55 l 1,61,-1
 1401 -20 l 1,48,-1
725 -20 m 1,62,-1
 512 93 l 1,63,-1
 1488 1530 l 1,64,-1
 1498 1530 l 1,65,-1
 1710 1417 l 1,66,-1
 735 -20 l 1,67,-1
 725 -20 l 1,62,-1
EndSplineSet
Validated: 1
EndChar

StartChar: questiondown
Encoding: 191 191 127
Width: 1320
GlyphClass: 2
Flags: W
HStem: -430 150<447.607 783.073> 755 365<806.677 982.903>
VStem: 98 313<-241.487 69.4091>
LayerCount: 2
Fore
SplineSet
599 -430 m 128,-1,1
 386 -430 386 -430 224 -328 c 0,2,3
 98 -248 98 -248 98 -99 c 0,4,5
 98 -52 98 -52 110 1 c 2,6,-1
 120 44 l 2,7,8
 184 318 184 318 532 442 c 0,9,10
 630 477 630 477 655 594 c 1,11,-1
 1000 741 l 1,12,-1
 1010 741 l 1,13,14
 956 488 956 488 690 379 c 0,15,16
 503 302 503 302 453 62 c 2,17,-1
 416 -115 l 2,18,19
 411 -139 411 -139 411 -159 c 0,20,21
 411 -213 411 -213 447 -239 c 0,22,23
 504 -280 504 -280 604.5 -280 c 128,-1,24
 705 -280 705 -280 779 -239 c 0,25,26
 846 -203 846 -203 864 -115 c 2,27,-1
 888 1 l 1,28,-1
 1232 148 l 1,29,-1
 1242 148 l 1,30,-1
 1210 1 l 2,31,32
 1156 -245 1156 -245 1002 -328 c 0,33,0
 812 -430 812 -430 599 -430 c 128,-1,1
933 1120 m 0,34,35
 1009 1120 1009 1120 1049 1066 c 0,36,37
 1079 1027 1079 1027 1079 977 c 0,38,39
 1079 958 1079 958 1075 938 c 0,40,41
 1059 862 1059 862 995 809 c 0,42,43
 931 755 931 755 856 755 c 0,44,45
 780 755 780 755 739 808 c 0,46,47
 710 846 710 846 710 897 c 0,48,49
 710 916 710 916 714 937 c 0,50,51
 730 1012 730 1012 794.5 1066 c 128,-1,52
 859 1120 859 1120 933 1120 c 0,34,35
EndSplineSet
Validated: 1
EndChar

StartChar: endash
Encoding: 8211 8211 128
Width: 1240
GlyphClass: 2
Flags: W
HStem: 620 270<424 1137>
LayerCount: 2
Fore
SplineSet
424 890 m 1,0,-1
 1319 890 l 1,1,-1
 1317 880 l 1,2,-1
 1137 620 l 1,3,-1
 242 620 l 1,4,-1
 244 630 l 1,5,-1
 424 890 l 1,0,-1
EndSplineSet
Validated: 1
EndChar

StartChar: emdash
Encoding: 8212 8212 129
Width: 1570
GlyphClass: 2
Flags: W
HStem: 620 270<424 1467>
LayerCount: 2
Fore
SplineSet
424 890 m 1,0,-1
 1649 890 l 1,1,-1
 1647 880 l 1,2,-1
 1467 620 l 1,3,-1
 242 620 l 1,4,-1
 244 630 l 1,5,-1
 424 890 l 1,0,-1
EndSplineSet
Validated: 1
EndChar

StartChar: afii00208
Encoding: 8213 8213 130
Width: 1570
GlyphClass: 2
Flags: W
HStem: 620 270<424 1467>
LayerCount: 2
Fore
SplineSet
424 890 m 1,0,-1
 1649 890 l 1,1,-1
 1647 880 l 1,2,-1
 1467 620 l 1,3,-1
 242 620 l 1,4,-1
 244 630 l 1,5,-1
 424 890 l 1,0,-1
EndSplineSet
Validated: 1
EndChar

StartChar: quoteleft
Encoding: 8216 8216 131
Width: 496
GlyphClass: 2
Flags: W
HStem: 934 666
VStem: 281 282<1124.94 1316.96>
LayerCount: 2
Fore
SplineSet
706 1600 m 1,0,-1
 712 1593 l 1,1,2
 601 1444 601 1444 569 1296 c 0,3,4
 563 1269 563 1269 563 1244 c 0,5,6
 563 1126 563 1126 691 1060 c 1,7,-1
 396 934 l 1,8,-1
 386 934 l 1,9,10
 281 1014 281 1014 281 1142 c 0,11,12
 281 1178 281 1178 289 1218 c 0,13,14
 343 1475 343 1475 706 1600 c 1,0,-1
EndSplineSet
Validated: 1
EndChar

StartChar: quoteright
Encoding: 8217 8217 132
Width: 496
GlyphClass: 2
Flags: W
HStem: 934 666
VStem: 471 283<1217.04 1409.06>
LayerCount: 2
Fore
SplineSet
343 1474 m 1,0,-1
 639 1600 l 1,1,-1
 649 1600 l 1,2,3
 754 1520 754 1520 754 1392 c 0,4,5
 754 1356 754 1356 746 1316 c 0,6,7
 691 1059 691 1059 329 934 c 1,8,-1
 323 941 l 1,9,10
 434 1090 434 1090 465 1238 c 0,11,12
 471 1265 471 1265 471 1290 c 0,13,14
 471 1408 471 1408 343 1474 c 1,0,-1
EndSplineSet
Validated: 1
EndChar

StartChar: quotesinglbase
Encoding: 8218 8218 133
Width: 496
GlyphClass: 2
Flags: W
HStem: -328 666
VStem: 203 283<-42.5039 147.058>
LayerCount: 2
Fore
SplineSet
75 212 m 1,0,-1
 371 338 l 1,1,-1
 381 338 l 1,2,3
 486 259 486 259 486 132 c 0,4,5
 486 95 486 95 477 54 c 0,6,7
 422 -203 422 -203 60 -328 c 1,8,-1
 55 -321 l 1,9,10
 166 -172 166 -172 197 -24 c 0,11,12
 203 3 203 3 203 28 c 0,13,14
 203 146 203 146 75 212 c 1,0,-1
EndSplineSet
Validated: 1
EndChar

StartChar: quotereversed
Encoding: 8219 8219 134
Width: 496
GlyphClass: 2
Flags: W
HStem: 934 666<475.621 537>
VStem: 302 243<1092.94 1320.7>
LayerCount: 2
Fore
SplineSet
779 1474 m 1,0,1
 590 1394 590 1394 557 1238 c 0,2,3
 545 1179 545 1179 545 1120 c 0,4,5
 545 1031 545 1031 573 941 c 1,6,-1
 565 934 l 1,7,8
 302 1040 302 1040 302 1242 c 0,9,10
 302 1277 302 1277 310 1316 c 0,11,12
 349 1498 349 1498 527 1600 c 1,13,-1
 537 1600 l 1,14,-1
 779 1474 l 1,0,1
EndSplineSet
Validated: 1
EndChar

StartChar: quotedblleft
Encoding: 8220 8220 135
Width: 914
GlyphClass: 2
Flags: W
HStem: 934 666
VStem: 281 282<1124.94 1316.96> 699 282<1124.94 1316.96>
LayerCount: 2
Fore
SplineSet
706 1600 m 1,0,-1
 712 1593 l 1,1,2
 601 1444 601 1444 569 1296 c 0,3,4
 563 1269 563 1269 563 1244 c 0,5,6
 563 1126 563 1126 691 1060 c 1,7,-1
 396 934 l 1,8,-1
 386 934 l 1,9,10
 281 1014 281 1014 281 1142 c 0,11,12
 281 1178 281 1178 289 1218 c 0,13,14
 343 1475 343 1475 706 1600 c 1,0,-1
1124 1600 m 1,15,-1
 1130 1593 l 1,16,17
 1019 1444 1019 1444 987 1296 c 0,18,19
 981 1269 981 1269 981 1244 c 0,20,21
 981 1126 981 1126 1109 1060 c 1,22,-1
 814 934 l 1,23,-1
 804 934 l 1,24,25
 699 1014 699 1014 699 1142 c 0,26,27
 699 1178 699 1178 707 1218 c 0,28,29
 761 1475 761 1475 1124 1600 c 1,15,-1
EndSplineSet
Validated: 1
EndChar

StartChar: quotedblright
Encoding: 8221 8221 136
Width: 914
GlyphClass: 2
Flags: W
HStem: 934 666
VStem: 471 283<1217.04 1409.06> 889 283<1217.04 1409.06>
LayerCount: 2
Fore
SplineSet
761 1474 m 1,0,-1
 1057 1600 l 1,1,-1
 1067 1600 l 1,2,3
 1172 1520 1172 1520 1172 1392 c 0,4,5
 1172 1356 1172 1356 1164 1316 c 0,6,7
 1109 1059 1109 1059 747 934 c 1,8,-1
 741 941 l 1,9,10
 852 1090 852 1090 883 1238 c 0,11,12
 889 1265 889 1265 889 1290 c 0,13,14
 889 1408 889 1408 761 1474 c 1,0,-1
343 1474 m 1,15,-1
 639 1600 l 1,16,-1
 649 1600 l 1,17,18
 754 1520 754 1520 754 1392 c 0,19,20
 754 1356 754 1356 746 1316 c 0,21,22
 691 1059 691 1059 329 934 c 1,23,-1
 323 941 l 1,24,25
 434 1090 434 1090 465 1238 c 0,26,27
 471 1265 471 1265 471 1290 c 0,28,29
 471 1408 471 1408 343 1474 c 1,15,-1
EndSplineSet
Validated: 1
EndChar

StartChar: quotedblbase
Encoding: 8222 8222 137
Width: 914
GlyphClass: 2
Flags: W
HStem: -328 666
VStem: 203 283<-42.5039 147.058> 621 283<-42.5039 147.058>
LayerCount: 2
Fore
SplineSet
493 212 m 1,0,-1
 789 338 l 1,1,-1
 799 338 l 1,2,3
 904 259 904 259 904 132 c 0,4,5
 904 95 904 95 895 54 c 0,6,7
 840 -203 840 -203 478 -328 c 1,8,-1
 473 -321 l 1,9,10
 584 -172 584 -172 615 -24 c 0,11,12
 621 3 621 3 621 28 c 0,13,14
 621 146 621 146 493 212 c 1,0,-1
75 212 m 1,15,-1
 371 338 l 1,16,-1
 381 338 l 1,17,18
 486 259 486 259 486 132 c 0,19,20
 486 95 486 95 477 54 c 0,21,22
 422 -203 422 -203 60 -328 c 1,23,-1
 55 -321 l 1,24,25
 166 -172 166 -172 197 -24 c 0,26,27
 203 3 203 3 203 28 c 0,28,29
 203 146 203 146 75 212 c 1,15,-1
EndSplineSet
Validated: 1
EndChar

StartChar: dagger
Encoding: 8224 8224 138
Width: 1254
GlyphClass: 2
Flags: W
HStem: -20 21G<463 519.395> 964 150<414 672 1024 1282> 1510 20G<1055.92 1112>
DStem2: 463 -20 782.754 -20 0.207912 0.978148<216.765 1005.95 1225.86 1433.32>
LayerCount: 2
Fore
SplineSet
473 -20 m 1,0,-1
 463 -20 l 1,1,-1
 672 964 l 1,2,-1
 315 964 l 1,3,-1
 317 974 l 1,4,-1
 414 1114 l 1,5,-1
 704 1114 l 1,6,-1
 761 1382 l 1,7,-1
 1102 1530 l 1,8,-1
 1112 1530 l 1,9,-1
 1024 1114 l 1,10,-1
 1381 1114 l 1,11,-1
 1379 1104 l 1,12,-1
 1282 964 l 1,13,-1
 992 964 l 1,14,-1
 814 127 l 1,15,-1
 473 -20 l 1,0,-1
EndSplineSet
Validated: 1
EndChar

StartChar: daggerdbl
Encoding: 8225 8225 139
Width: 1254
GlyphClass: 2
Flags: W
HStem: -20 21G<463 519.395> 396 150<293 551 903 1161> 964 150<414 672 1024 1282> 1510 20G<1055.61 1112>
DStem2: 463 -20 782.542 -20 0.207912 0.978148<216.765 425.206 645.113 1005.95 1225.86 1434.3>
LayerCount: 2
Fore
SplineSet
473 -20 m 1,0,-1
 463 -20 l 1,1,-1
 551 396 l 1,2,-1
 194 396 l 1,3,-1
 196 406 l 1,4,-1
 293 546 l 1,5,-1
 583 546 l 1,6,-1
 672 964 l 1,7,-1
 315 964 l 1,8,-1
 317 974 l 1,9,-1
 414 1114 l 1,10,-1
 704 1114 l 1,11,-1
 761 1382 l 1,12,-1
 761 1383 l 1,13,-1
 1102 1530 l 1,14,-1
 1112 1530 l 1,15,-1
 1024 1114 l 1,16,-1
 1381 1114 l 1,17,-1
 1379 1104 l 1,18,-1
 1282 964 l 1,19,-1
 992 964 l 1,20,-1
 903 546 l 1,21,-1
 1260 546 l 1,22,-1
 1258 536 l 1,23,-1
 1161 396 l 1,24,-1
 871 396 l 1,25,-1
 814 128 l 1,26,-1
 814 127 l 1,27,-1
 473 -20 l 1,0,-1
EndSplineSet
Validated: 1
EndChar

StartChar: bullet
Encoding: 8226 8226 140
Width: 950
GlyphClass: 2
Flags: W
HStem: 385 740<478.279 793.843>
VStem: 245 782<605 908>
LayerCount: 2
Fore
SplineSet
572 385 m 0,0,1
 420 385 420 385 324 453 c 0,2,3
 245 508 245 508 245 605 c 0,4,5
 245 632 245 632 251 663 c 2,6,-1
 290 847 l 2,7,8
 322 999 322 999 430 1057 c 0,9,10
 554 1125 554 1125 699 1125 c 128,-1,11
 844 1125 844 1125 948 1057 c 0,12,13
 1027 1005 1027 1005 1027 908 c 0,14,15
 1027 879 1027 879 1020 847 c 2,16,-1
 981 663 l 2,17,18
 950 511 950 511 842 453 c 0,19,20
 718 385 718 385 572 385 c 0,0,1
EndSplineSet
Validated: 1
EndChar

StartChar: ellipsis
Encoding: 8230 8230 141
Width: 1292
GlyphClass: 2
Flags: W
HStem: -20 365<156.097 332.323 592.097 768.323 1028.1 1204.32>
LayerCount: 2
Fore
SplineSet
1078 -20 m 0,0,1
 1002 -20 1002 -20 962 34 c 0,2,3
 932 73 932 73 932 123 c 0,4,5
 932 142 932 142 936 162 c 0,6,7
 952 238 952 238 1016 291 c 0,8,9
 1080 345 1080 345 1155 345 c 0,10,11
 1231 345 1231 345 1272 292 c 0,12,13
 1301 254 1301 254 1301 203 c 0,14,15
 1301 184 1301 184 1297 163 c 0,16,17
 1281 88 1281 88 1216.5 34 c 128,-1,18
 1152 -20 1152 -20 1078 -20 c 0,0,1
642 -20 m 0,19,20
 566 -20 566 -20 526 34 c 0,21,22
 496 73 496 73 496 123 c 0,23,24
 496 142 496 142 500 162 c 0,25,26
 516 238 516 238 580 291 c 0,27,28
 644 345 644 345 719 345 c 0,29,30
 795 345 795 345 836 292 c 0,31,32
 865 254 865 254 865 203 c 0,33,34
 865 184 865 184 861 163 c 0,35,36
 845 88 845 88 780.5 34 c 128,-1,37
 716 -20 716 -20 642 -20 c 0,19,20
206 -20 m 0,38,39
 130 -20 130 -20 90 34 c 0,40,41
 60 73 60 73 60 123 c 0,42,43
 60 142 60 142 64 162 c 0,44,45
 80 238 80 238 144 291 c 0,46,47
 208 345 208 345 283 345 c 0,48,49
 359 345 359 345 400 292 c 0,50,51
 429 254 429 254 429 203 c 0,52,53
 429 184 429 184 425 163 c 0,54,55
 409 88 409 88 344.5 34 c 128,-1,56
 280 -20 280 -20 206 -20 c 0,38,39
EndSplineSet
Validated: 1
EndChar

StartChar: perthousand
Encoding: 8240 8240 142
Width: 2624
GlyphClass: 2
Flags: W
HStem: -20 108<1291.11 1502.83 2069.11 2280.83> 612 108<1388.53 1600.43 2166.53 2378.43> 790 108<567.108 778.831> 1422 108<664.528 876.427>
VStem: 331 223<916.53 1187.5> 889 224<1132.5 1403.32> 1055 223<106.53 377.5> 1613 224<322.5 593.322> 1833 223<106.53 377.5> 2391 224<322.5 593.322>
DStem2: 105.628 -20 341.893 -20 0.207912 0.978148<1058.04 1478.01> 484 93 707 -20 0.561853 0.827237<31.8155 1737.11> 599.474 -20 835.628 -20 0.207912 0.978148<981.515 1402.83> 1001.8 -20 1238.06 -20 0.207912 0.978148<229.947 649.912> 1495.64 -20 1731.8 -20 0.207912 0.978148<153.42 574.729> 1779.8 -20 2016.06 -20 0.207912 0.978148<229.947 649.912> 2273.64 -20 2509.8 -20 0.207912 0.978148<153.42 574.729>
LayerCount: 2
Fore
SplineSet
2168.5 88 m 128,-1,1
 2227 88 2227 88 2271 113 c 0,2,3
 2306 134 2306 134 2317 182 c 2,4,-1
 2388 518 l 2,5,6
 2391 531 2391 531 2391 543 c 0,7,8
 2391 572 2391 572 2372 587 c 0,9,10
 2338 612 2338 612 2279 612 c 128,-1,11
 2220 612 2220 612 2176 587 c 0,12,13
 2141 566 2141 566 2130 518 c 2,14,-1
 2059 182 l 2,15,16
 2056 168 2056 168 2056 156 c 0,17,18
 2056 127 2056 127 2075 113 c 0,19,0
 2110 88 2110 88 2168.5 88 c 128,-1,1
1390.5 88 m 128,-1,21
 1449 88 1449 88 1493 113 c 0,22,23
 1528 134 1528 134 1539 182 c 2,24,-1
 1610 518 l 2,25,26
 1613 531 1613 531 1613 543 c 0,27,28
 1613 572 1613 572 1594 587 c 0,29,30
 1560 612 1560 612 1501 612 c 128,-1,31
 1442 612 1442 612 1398 587 c 0,32,33
 1363 566 1363 566 1352 518 c 2,34,-1
 1281 182 l 2,35,36
 1278 168 1278 168 1278 156 c 0,37,38
 1278 127 1278 127 1297 113 c 0,39,20
 1332 88 1332 88 1390.5 88 c 128,-1,21
777 1422 m 128,-1,41
 718 1422 718 1422 674 1397 c 0,42,43
 639 1376 639 1376 628 1328 c 2,44,-1
 557 992 l 2,45,46
 554 978 554 978 554 966 c 0,47,48
 554 937 554 937 573 923 c 0,49,50
 608 898 608 898 666.5 898 c 128,-1,51
 725 898 725 898 769 923 c 0,52,53
 804 944 804 944 815 992 c 2,54,-1
 886 1328 l 2,55,56
 889 1341 889 1341 889 1353 c 0,57,58
 889 1382 889 1382 870 1397 c 0,59,40
 836 1422 836 1422 777 1422 c 128,-1,41
2160 -20 m 0,60,61
 2008 -20 2008 -20 1912 48 c 0,62,63
 1833 103 1833 103 1833 200 c 0,64,65
 1833 227 1833 227 1839 258 c 2,66,-1
 1878 442 l 2,67,68
 1910 594 1910 594 2018 652 c 0,69,70
 2142 720 2142 720 2287 720 c 128,-1,71
 2432 720 2432 720 2536 652 c 0,72,73
 2615 600 2615 600 2615 503 c 0,74,75
 2615 474 2615 474 2608 442 c 2,76,-1
 2569 258 l 2,77,78
 2538 106 2538 106 2430 48 c 0,79,80
 2306 -20 2306 -20 2160 -20 c 0,60,61
1382 -20 m 0,81,82
 1230 -20 1230 -20 1134 48 c 0,83,84
 1055 103 1055 103 1055 200 c 0,85,86
 1055 227 1055 227 1061 258 c 2,87,-1
 1100 442 l 2,88,89
 1132 594 1132 594 1240 652 c 0,90,91
 1364 720 1364 720 1509 720 c 128,-1,92
 1654 720 1654 720 1758 652 c 0,93,94
 1837 600 1837 600 1837 503 c 0,95,96
 1837 474 1837 474 1830 442 c 2,97,-1
 1791 258 l 2,98,99
 1760 106 1760 106 1652 48 c 0,100,101
 1528 -20 1528 -20 1382 -20 c 0,81,82
785 1530 m 128,-1,103
 930 1530 930 1530 1034 1462 c 0,104,105
 1113 1410 1113 1410 1113 1313 c 0,106,107
 1113 1284 1113 1284 1106 1252 c 2,108,-1
 1067 1068 l 2,109,110
 1036 916 1036 916 928 858 c 0,111,112
 804 790 804 790 658 790 c 0,113,114
 506 790 506 790 410 858 c 0,115,116
 331 913 331 913 331 1010 c 0,117,118
 331 1037 331 1037 337 1068 c 2,119,-1
 376 1252 l 2,120,121
 408 1404 408 1404 516 1462 c 0,122,102
 640 1530 640 1530 785 1530 c 128,-1,103
697 -20 m 1,123,-1
 484 93 l 1,124,-1
 1460 1530 l 1,125,-1
 1470 1530 l 1,126,-1
 1682 1417 l 1,127,-1
 707 -20 l 1,128,-1
 697 -20 l 1,123,-1
EndSplineSet
Validated: 1
EndChar

StartChar: minute
Encoding: 8242 8242 143
Width: 450
GlyphClass: 2
Flags: W
HStem: 1140 460
VStem: 287 452
LayerCount: 2
Fore
SplineSet
543 1600 m 1,0,-1
 553 1600 l 1,1,-1
 739 1501 l 1,2,-1
 430 1140 l 1,3,-1
 420 1140 l 1,4,-1
 287 1210 l 1,5,-1
 543 1600 l 1,0,-1
EndSplineSet
Validated: 1
EndChar

StartChar: second
Encoding: 8243 8243 144
Width: 770
GlyphClass: 2
Flags: W
HStem: 1140 460
LayerCount: 2
Fore
SplineSet
863 1600 m 1,0,-1
 873 1600 l 1,1,-1
 1059 1501 l 1,2,-1
 750 1140 l 1,3,-1
 740 1140 l 1,4,-1
 607 1210 l 1,5,-1
 863 1600 l 1,0,-1
543 1600 m 1,6,-1
 553 1600 l 1,7,-1
 739 1501 l 1,8,-1
 430 1140 l 1,9,-1
 420 1140 l 1,10,-1
 287 1210 l 1,11,-1
 543 1600 l 1,6,-1
EndSplineSet
Validated: 1
EndChar

StartChar: guilsinglleft
Encoding: 8249 8249 145
Width: 811
GlyphClass: 2
Flags: W
VStem: 270 633
DStem2: 544 857 270 755 0.35398 -0.935253<0 525.631> 270 755 544 857 0.626077 0.779761<251.081 793.832>
LayerCount: 2
Fore
SplineSet
270 755 m 1,0,-1
 767 1374 l 1,1,-1
 777 1374 l 1,2,-1
 903 1307 l 1,3,-1
 544 857 l 1,4,-1
 729 365 l 1,5,-1
 470 253 l 1,6,-1
 460 253 l 1,7,-1
 270 755 l 1,0,-1
EndSplineSet
Validated: 1
EndChar

StartChar: guilsinglright
Encoding: 8250 8250 146
Width: 811
GlyphClass: 2
Flags: W
VStem: 229 633
DStem2: 229 203 365 136 0.626077 0.779761<32.9024 575.654> 672 1257 403 1145 0.35398 -0.935253<9.52766 535.158>
LayerCount: 2
Fore
SplineSet
862 755 m 1,0,-1
 365 136 l 1,1,-1
 355 136 l 1,2,-1
 229 203 l 1,3,-1
 588 653 l 1,4,-1
 403 1145 l 1,5,-1
 662 1257 l 1,6,-1
 672 1257 l 1,7,-1
 862 755 l 1,0,-1
EndSplineSet
Validated: 1
EndChar

StartChar: fraction
Encoding: 8260 8260 147
Width: 937
GlyphClass: 2
Flags: W
HStem: -20 21G<205.301 266.57> 1510 20G<992.416 1053.52>
DStem2: 30 93 253 -20 0.561853 0.827237<31.8155 1737.11>
LayerCount: 2
Fore
SplineSet
243 -20 m 1,0,-1
 30 93 l 1,1,-1
 1006 1530 l 1,2,-1
 1016 1530 l 1,3,-1
 1228 1417 l 1,4,-1
 253 -20 l 1,5,-1
 243 -20 l 1,0,-1
EndSplineSet
Validated: 1
EndChar

StartChar: Euro
Encoding: 8364 8364 148
Width: 1425
GlyphClass: 2
Flags: W
HStem: -20 150<639.333 962.544> 586 140<255 339 699 1034> 786 140<298 382 742 1076> 1380 150<887.377 1206.11>
VStem: 291 312<171.788 357.265> 1243 307<1110.91 1341.07>
DStem2: 210.388 -20 541.045 -20 0.207912 0.978148<346.371 619.497 1035.86 1382.94>
LayerCount: 2
Fore
SplineSet
791 -20 m 128,-1,1
 577 -20 577 -20 415 82 c 0,2,3
 291 160 291 160 291 313 c 0,4,5
 291 360 291 360 302 411 c 2,6,-1
 339 586 l 1,7,-1
 165 586 l 1,8,-1
 167 596 l 1,9,-1
 255 726 l 1,10,-1
 369 726 l 1,11,-1
 382 786 l 1,12,-1
 207 786 l 1,13,-1
 209 796 l 1,14,-1
 298 926 l 1,15,-1
 412 926 l 1,16,-1
 449 1099 l 2,17,18
 501 1344 501 1344 657 1428 c 0,19,20
 847 1530 847 1530 1060 1530 c 0,21,22
 1287 1530 1287 1530 1436 1428 c 0,23,24
 1550 1350 1550 1350 1550 1190 c 0,25,26
 1550 1156 1550 1156 1543 1118 c 1,27,-1
 1196 967 l 1,28,-1
 1186 967 l 1,29,-1
 1238 1215 l 2,30,31
 1243 1239 1243 1239 1243 1257 c 0,32,33
 1243 1310 1243 1310 1207 1339 c 0,34,35
 1155 1380 1155 1380 1059.5 1380 c 128,-1,36
 964 1380 964 1380 888 1339 c 0,37,38
 822 1303 822 1303 803 1215 c 2,39,-1
 742 926 l 1,40,-1
 1167 926 l 1,41,-1
 1165 916 l 1,42,-1
 1076 786 l 1,43,-1
 712 786 l 1,44,-1
 699 726 l 1,45,-1
 1124 726 l 1,46,-1
 1122 716 l 1,47,-1
 1034 586 l 1,48,-1
 670 586 l 1,49,-1
 608 295 l 2,50,51
 603 271 603 271 603 250 c 0,52,53
 603 196 603 196 639 171 c 0,54,55
 698 130 698 130 793.5 130 c 128,-1,56
 889 130 889 130 958 171 c 0,57,58
 1025 211 1025 211 1043 295 c 2,59,-1
 1066 405 l 1,60,-1
 1424 558 l 1,61,-1
 1434 558 l 1,62,-1
 1402 411 l 2,63,64
 1348 165 1348 165 1195 82 c 0,65,0
 1005 -20 1005 -20 791 -20 c 128,-1,1
EndSplineSet
Validated: 1
EndChar

StartChar: afii61248
Encoding: 8453 8453 149
Width: 1700
GlyphClass: 2
Flags: W
HStem: -20 95<1223.54 1395.96> 700 95<1343 1515.57> 716 96<505.729 672.529> 1435 95<624.223 780.624>
VStem: 307 192<822.933 1071.95> 787 195<1309.46 1416.72> 1024 192<86.098 333.148> 1523 192<441.852 688.365>
DStem2: 106.608 -20 310.974 -20 0.207912 0.978148<939.391 1513.12> 404 93 627 -20 0.561853 0.827237<31.8155 1737.11> 980.049 -20 1184.63 -20 0.207912 0.978148<187.926 759.315> 1381.14 -20 1585.72 -20 0.207912 0.978148<116.502 686.868>
LayerCount: 2
Fore
SplineSet
1304 75 m 0,0,1
 1359 75 1359 75 1386 93 c 0,2,3
 1408 107 1408 107 1414 137 c 2,4,-1
 1521 638 l 2,5,6
 1523 647 1523 647 1523 655 c 0,7,8
 1523 673 1523 673 1511 682 c 0,9,10
 1489 700 1489 700 1435 700 c 0,11,12
 1384 700 1384 700 1353 682 c 0,13,14
 1331 669 1331 669 1325 638 c 2,15,-1
 1218 137 l 2,16,17
 1216 128 1216 128 1216 120 c 0,18,19
 1216 102 1216 102 1228 93 c 0,20,21
 1250 75 1250 75 1304 75 c 0,0,1
716 1530 m 0,22,23
 834 1530 834 1530 913 1476 c 0,24,25
 982 1429 982 1429 982 1349 c 0,26,27
 982 1329 982 1329 978 1307 c 2,28,-1
 974 1287 l 1,29,-1
 760 1209 l 1,30,-1
 750 1209 l 1,31,-1
 785 1373 l 2,32,33
 787 1382 787 1382 787 1390 c 0,34,35
 787 1408 787 1408 776 1417 c 0,36,37
 754 1435 754 1435 709 1435 c 0,38,39
 673 1435 673 1435 635 1417 c 0,40,41
 614 1407 614 1407 607 1373 c 2,42,-1
 501 874 l 2,43,44
 499 864 499 864 499 856 c 0,45,46
 499 838 499 838 510 830 c 0,47,48
 536 812 536 812 578 812 c 0,49,50
 666 812 666 812 679 874 c 2,51,-1
 697 959 l 1,52,-1
 913 1045 l 1,53,-1
 923 1045 l 1,54,-1
 903 951 l 2,55,56
 875 818 875 818 787 771 c 0,57,58
 684 716 684 716 573 716 c 0,59,60
 465 716 465 716 373 772 c 0,61,62
 307 812 307 812 307 897 c 0,63,64
 307 922 307 922 313 951 c 2,65,-1
 386 1296 l 2,66,67
 414 1429 414 1429 500 1475 c 0,68,69
 603 1530 603 1530 716 1530 c 0,22,23
1298 -20 m 0,70,71
 1176 -20 1176 -20 1090 36 c 0,72,73
 1024 78 1024 78 1024 162 c 0,74,75
 1024 187 1024 187 1030 215 c 2,76,-1
 1103 560 l 2,77,78
 1132 694 1132 694 1218 740 c 0,79,80
 1320 795 1320 795 1442 795 c 0,81,82
 1570 795 1570 795 1650 738 c 0,83,84
 1715 692 1715 692 1715 612 c 0,85,86
 1715 588 1715 588 1709 560 c 2,87,-1
 1636 215 l 2,88,89
 1608 81 1608 81 1521 35 c 0,90,91
 1418 -20 1418 -20 1298 -20 c 0,70,71
617 -20 m 1,92,-1
 404 93 l 1,93,-1
 1380 1530 l 1,94,-1
 1390 1530 l 1,95,-1
 1602 1417 l 1,96,-1
 627 -20 l 1,97,-1
 617 -20 l 1,92,-1
EndSplineSet
Validated: 1
EndChar

StartChar: afii61289
Encoding: 8467 8467 150
Width: 1247
GlyphClass: 2
Flags: W
HStem: -20 236<632 800.645> 0 21G<110 490.364> 1510 20G<1129.5 1227>
LayerCount: 2
Fore
SplineSet
686 -20 m 0,0,1
 578 -20 578 -20 510 44 c 1,2,-1
 474 0 l 1,3,-1
 110 0 l 1,4,5
 306 162 306 162 444 325 c 1,6,7
 453 420 453 420 475 524 c 0,8,9
 509 686 509 686 595 865 c 0,10,11
 773 1240 773 1240 963 1423 c 0,12,13
 1074 1530 1074 1530 1185 1530 c 0,14,15
 1269 1530 1269 1530 1309 1480 c 0,16,17
 1341 1439 1341 1439 1341 1371 c 0,18,19
 1341 1331 1341 1331 1330 1281 c 0,20,21
 1310 1186 1310 1186 1250 1041 c 0,22,23
 1105 688 1105 688 734 272 c 1,24,25
 731 254 731 254 731 242 c 0,26,27
 731 216 731 216 745 216 c 0,28,29
 766 216 766 216 800 260 c 0,30,31
 821 286 821 286 839 319 c 1,32,-1
 1155 319 l 1,33,34
 1025 144 1025 144 910.5 62 c 128,-1,35
 796 -20 796 -20 686 -20 c 0,0,1
EndSplineSet
Validated: 1
EndChar

StartChar: trademark
Encoding: 8482 8482 151
Width: 1791
GlyphClass: 2
Flags: W
HStem: 1435 95<426 578 778 950 1181.11 1365.87 1585.67 1771.01>
VStem: 1777 187<1314.57 1424.69>
DStem2: 427 723 627.058 723 0.207912 0.978148<118.27 727.836> 825 723 1025.06 723 0.207912 0.978148<118.27 760.517> 1230 723 1430.06 723 0.207912 0.978148<118.27 690.506> 1635 723 1835.06 723 0.207912 0.978148<118.27 684.879>
LayerCount: 2
Fore
SplineSet
1283 1538 m 128,-1,1
 1400 1538 1400 1538 1477 1488 c 1,2,3
 1574 1537 1574 1537 1692 1537 c 0,4,5
 1818 1537 1818 1537 1898 1482 c 0,6,7
 1964 1436 1964 1436 1964 1354 c 0,8,9
 1964 1330 1964 1330 1958 1303 c 2,10,-1
 1851 798 l 1,11,-1
 1645 723 l 1,12,-1
 1635 723 l 1,13,-1
 1775 1381 l 2,14,15
 1777 1390 1777 1390 1777 1397 c 0,16,17
 1777 1415 1777 1415 1766 1425 c 0,18,19
 1747 1443 1747 1443 1685 1443 c 128,-1,20
 1623 1443 1623 1443 1598 1425 c 0,21,22
 1576 1410 1576 1410 1570 1381 c 2,23,-1
 1446 798 l 1,24,-1
 1240 723 l 1,25,-1
 1230 723 l 1,26,-1
 1370 1381 l 2,27,28
 1372 1391 1372 1391 1372 1399 c 0,29,30
 1372 1417 1372 1417 1361 1425 c 0,31,32
 1338 1443 1338 1443 1281 1443 c 0,33,34
 1223 1443 1223 1443 1192 1425 c 0,35,36
 1172 1414 1172 1414 1165 1381 c 2,37,-1
 1041 798 l 1,38,-1
 835 723 l 1,39,-1
 825 723 l 1,40,-1
 948 1303 l 2,41,42
 976 1436 976 1436 1062 1482 c 0,43,0
 1166 1538 1166 1538 1283 1538 c 128,-1,1
426 1530 m 1,44,-1
 1011 1530 l 1,45,-1
 1009 1520 l 1,46,-1
 950 1435 l 1,47,-1
 778 1435 l 1,48,-1
 643 798 l 1,49,-1
 437 723 l 1,50,-1
 427 723 l 1,51,-1
 578 1435 l 1,52,-1
 365 1435 l 1,53,-1
 367 1445 l 1,54,-1
 426 1530 l 1,44,-1
EndSplineSet
Validated: 1
EndChar

StartChar: uni2126
Encoding: 8486 8486 152
Width: 1450
GlyphClass: 2
Flags: W
HStem: 0 150<259 484 1029 1223> 1380 150<819.091 1197.78>
VStem: 291 306<422.108 640.071> 1234 301<1150.39 1338.27>
DStem2: 160.375 0 479.78 0 0.207912 0.978148<609.841 1362.34> 969.78 0 1290.37 0 0.207912 0.978148<538.969 1286.95>
LayerCount: 2
Fore
SplineSet
688 0 m 1,0,-1
 160 0 l 1,1,-1
 162 10 l 1,2,-1
 259 150 l 1,3,-1
 484 150 l 1,4,-1
 516 300 l 1,5,6
 291 358 291 358 291 567 c 0,7,8
 291 615 291 615 303 671 c 2,9,-1
 394 1099 l 2,10,11
 446 1344 446 1344 602 1428 c 0,12,13
 792 1530 792 1530 1020 1530 c 128,-1,14
 1248 1530 1248 1530 1410 1428 c 0,15,16
 1535 1349 1535 1349 1535 1197 c 0,17,18
 1535 1151 1535 1151 1524 1099 c 2,19,-1
 1433 671 l 2,20,21
 1369 370 1369 370 1061 300 c 1,22,-1
 1029 150 l 1,23,-1
 1322 150 l 1,24,-1
 1320 140 l 1,25,-1
 1223 0 l 1,26,-1
 762 0 l 1,27,-1
 837 352 l 1,28,29
 1057 408 1057 408 1092 575 c 2,30,-1
 1228 1215 l 2,31,32
 1234 1241 1234 1241 1234 1262 c 0,33,34
 1234 1316 1234 1316 1197 1339 c 0,35,36
 1131 1380 1131 1380 1018.5 1380 c 128,-1,37
 906 1380 906 1380 823 1339 c 0,38,39
 758 1307 758 1307 738 1215 c 2,40,-1
 602 575 l 2,41,42
 597 551 597 551 597 530 c 0,43,44
 597 407 597 407 763 353 c 1,45,-1
 688 0 l 1,0,-1
EndSplineSet
Validated: 1
EndChar

StartChar: estimated
Encoding: 8494 8494 153
Width: 1241
GlyphClass: 2
Flags: W
HStem: -20 183<484.071 844.178> 491 189<538 990> 935 185<629.618 988.502>
LayerCount: 2
Fore
SplineSet
615 -20 m 0,0,1
 364 -20 364 -20 245 145 c 0,2,3
 162 260 162 260 162 412 c 0,4,5
 162 479 162 479 178 553 c 0,6,7
 231 802 231 802 420 960 c 0,8,9
 612 1120 612 1120 854 1120 c 0,10,11
 1097 1120 1097 1120 1214 974 c 0,12,13
 1306 858 1306 858 1306 679 c 0,14,15
 1306 593 1306 593 1285 491 c 1,16,-1
 497 491 l 1,17,-1
 444 239 l 1,18,19
 523 163 523 163 654 163 c 0,20,21
 862 163 862 163 1020 351 c 1,22,-1
 1163 255 l 1,23,24
 1003 85 1003 85 873 32.5 c 128,-1,25
 743 -20 743 -20 615 -20 c 0,0,1
990 680 m 1,26,-1
 1028 862 l 1,27,28
 946 935 946 935 816 935 c 0,29,30
 684 935 684 935 576 861 c 1,31,-1
 538 680 l 1,32,-1
 990 680 l 1,26,-1
EndSplineSet
Validated: 1
EndChar

StartChar: partialdiff
Encoding: 8706 8706 154
Width: 1325
GlyphClass: 2
Flags: W
HStem: -20 273<518.171 730.08> 823 260<742.537 985.899> 1257 273<781.982 1086.06>
VStem: 183 317<275.435 519.417> 1130 310<1024.77 1213.04>
LayerCount: 2
Fore
SplineSet
528 -20 m 0,0,1
 258 -20 258 -20 199 171 c 0,2,3
 183 223 183 223 183 285 c 0,4,5
 183 345 183 345 198 416 c 0,6,7
 253 673 253 673 450.5 878 c 128,-1,8
 648 1083 648 1083 920 1083 c 0,9,10
 1039 1083 1039 1083 1124 1024 c 1,11,12
 1130 1059 1130 1059 1130 1089 c 0,13,14
 1130 1138 1130 1138 1114 1173 c 0,15,16
 1075 1257 1075 1257 953 1257 c 0,17,18
 798 1257 798 1257 621 1132 c 1,19,-1
 687 1443 l 1,20,21
 851 1530 851 1530 1048 1530 c 0,22,23
 1365 1530 1365 1530 1426 1271 c 0,24,25
 1440 1213 1440 1213 1440 1145 c 0,26,27
 1440 1057 1440 1057 1417 950 c 0,28,29
 1335 563 1335 563 1090 272 c 0,30,31
 847 -20 847 -20 528 -20 c 0,0,1
1028 699 m 1,32,33
 1019 756 1019 756 982 788 c 0,34,35
 942 823 942 823 875 823 c 0,36,37
 766 823 766 823 660 706 c 0,38,39
 535 567 535 567 507 431 c 0,40,41
 500 396 500 396 500 367 c 0,42,43
 500 324 500 324 516 295 c 0,44,45
 539 253 539 253 599 253 c 0,46,47
 706 253 706 253 827 376 c 128,-1,48
 948 499 948 499 1028 699 c 1,32,33
EndSplineSet
Validated: 1
EndChar

StartChar: uni2206
Encoding: 8710 8710 155
Width: 1505
GlyphClass: 2
Flags: W
HStem: 0 150<273 1150> 1510 20G<1143.69 1203.92>
DStem2: 5 0 273 150 0.533902 0.845546<269.918 1521.69> 1200 1530 942 1208 0.192414 -0.981314<266.34 1344.59>
LayerCount: 2
Fore
SplineSet
5 0 m 1,0,-1
 889 1400 l 1,1,-1
 1190 1530 l 1,2,-1
 1200 1530 l 1,3,-1
 1500 0 l 1,4,-1
 5 0 l 1,0,-1
273 150 m 1,5,-1
 1150 150 l 1,6,-1
 942 1208 l 1,7,-1
 273 150 l 1,5,-1
EndSplineSet
Validated: 1
EndChar

StartChar: product
Encoding: 8719 8719 156
Width: 1440
GlyphClass: 2
Flags: W
HStem: -430 21G<69 125.395 869 925.395> 1360 150<769 1249>
DStem2: 69 -430 388.754 -430 0.207912 0.978148<216.765 1854.41> 869 -430 1188.75 -430 0.207912 0.978148<216.765 1829.89>
LayerCount: 2
Fore
SplineSet
79 -430 m 1,0,-1
 69 -430 l 1,1,-1
 454 1384 l 1,2,-1
 749 1510 l 1,3,-1
 1601 1510 l 1,4,-1
 1220 -283 l 1,5,-1
 879 -430 l 1,6,-1
 869 -430 l 1,7,-1
 1249 1360 l 1,8,-1
 769 1360 l 1,9,-1
 420 -283 l 1,10,-1
 79 -430 l 1,0,-1
EndSplineSet
Validated: 1
EndChar

StartChar: summation
Encoding: 8721 8721 157
Width: 1284
GlyphClass: 2
Flags: W
HStem: -410 150<454 1020> 1360 150<754 1390>
DStem2: -27 -410 454 -260 0.591399 0.806379<405.42 1232.67> 754 1360 377 1427 0.359721 -0.93306<0 705.349>
LayerCount: 2
Fore
SplineSet
-27 -410 m 1,0,-1
 702 584 l 1,1,-1
 377 1427 l 1,2,-1
 571 1510 l 1,3,-1
 1489 1510 l 1,4,-1
 1487 1500 l 1,5,-1
 1390 1360 l 1,6,-1
 754 1360 l 1,7,-1
 1070 562 l 1,8,-1
 454 -260 l 1,9,-1
 1119 -260 l 1,10,-1
 1117 -270 l 1,11,-1
 1020 -410 l 1,12,-1
 -27 -410 l 1,0,-1
EndSplineSet
Validated: 1
EndChar

StartChar: minus
Encoding: 8722 8722 158
Width: 1240
GlyphClass: 2
Flags: W
HStem: 620 270<424 1137>
LayerCount: 2
Fore
SplineSet
424 890 m 1,0,-1
 1319 890 l 1,1,-1
 1317 880 l 1,2,-1
 1137 620 l 1,3,-1
 242 620 l 1,4,-1
 244 630 l 1,5,-1
 424 890 l 1,0,-1
EndSplineSet
Validated: 1
EndChar

StartChar: uni2215
Encoding: 8725 8725 159
Width: 937
GlyphClass: 2
Flags: W
HStem: -20 21G<205.301 266.57> 1510 20G<992.416 1053.52>
DStem2: 30 93 253 -20 0.561853 0.827237<31.8155 1737.11>
LayerCount: 2
Fore
SplineSet
243 -20 m 1,0,-1
 30 93 l 1,1,-1
 1006 1530 l 1,2,-1
 1016 1530 l 1,3,-1
 1228 1417 l 1,4,-1
 253 -20 l 1,5,-1
 243 -20 l 1,0,-1
EndSplineSet
Validated: 1
EndChar

StartChar: uni2219
Encoding: 8729 8729 160
Width: 420
GlyphClass: 2
Flags: W
HStem: 573 365<282.097 458.323>
VStem: 186 369<668.75 842.936>
LayerCount: 2
Fore
SplineSet
409 938 m 0,0,1
 485 938 485 938 526 885 c 0,2,3
 555 847 555 847 555 796 c 0,4,5
 555 777 555 777 551 756 c 0,6,7
 535 681 535 681 470.5 627 c 128,-1,8
 406 573 406 573 332 573 c 0,9,10
 256 573 256 573 216 627 c 0,11,12
 186 666 186 666 186 716 c 0,13,14
 186 735 186 735 190 755 c 0,15,16
 206 831 206 831 270 884 c 0,17,18
 334 938 334 938 409 938 c 0,0,1
EndSplineSet
Validated: 1
EndChar

StartChar: radical
Encoding: 8730 8730 161
Width: 1176
GlyphClass: 2
Flags: W
HStem: -20 21G<296.505 356.508> 1510 20G<1328.13 1390.08>
DStem2: 447 858 167 741 0.172161 -0.985069<67.0481 565.603> 551 302 603 106 0.541352 0.840796<0 1460.17>
LayerCount: 2
Fore
SplineSet
310 -20 m 1,0,-1
 300 -20 l 1,1,-1
 167 741 l 1,2,-1
 437 858 l 1,3,-1
 447 858 l 1,4,-1
 551 302 l 1,5,-1
 1341 1530 l 1,6,-1
 1351 1530 l 1,7,-1
 1478 1465 l 1,8,-1
 603 106 l 1,9,-1
 310 -20 l 1,0,-1
EndSplineSet
Validated: 1
EndChar

StartChar: infinity
Encoding: 8734 8734 162
Width: 1449
GlyphClass: 2
Flags: W
HStem: 385 108<480.657 692.512 979.339 1192.22> 1017 108<577.781 790.606 1077.12 1289.82>
VStem: 244 224<511.271 782.5> 1302 224<727.5 998.733>
DStem2: 191.909 385 428.064 385 0.207912 0.978148<229.924 649.931> 686.064 385 927.064 385 0.207912 0.978148<230.931 574.642> 1184.64 385 1420.8 385 0.207912 0.978148<155.7 574.729>
LayerCount: 2
Fore
SplineSet
1079.5 493 m 128,-1,1
 1138 493 1138 493 1182 518 c 0,2,3
 1217 539 1217 539 1228 587 c 2,4,-1
 1299 923 l 2,5,6
 1302 936 1302 936 1302 948 c 0,7,8
 1302 977 1302 977 1283 992 c 0,9,10
 1249 1017 1249 1017 1190 1017 c 128,-1,11
 1131 1017 1131 1017 1087 992 c 0,12,13
 1052 971 1052 971 1041 923 c 2,14,-1
 970 587 l 2,15,16
 967 573 967 573 967 561 c 0,17,18
 967 532 967 532 986 518 c 0,19,0
 1021 493 1021 493 1079.5 493 c 128,-1,1
580.5 493 m 128,-1,21
 639 493 639 493 683 518 c 0,22,23
 718 539 718 539 729 587 c 2,24,-1
 800 923 l 2,25,26
 803 936 803 936 803 948 c 0,27,28
 803 977 803 977 784 992 c 0,29,30
 750 1017 750 1017 691 1017 c 128,-1,31
 632 1017 632 1017 588 992 c 0,32,33
 553 971 553 971 542 923 c 2,34,-1
 471 587 l 2,35,36
 468 573 468 573 468 561 c 0,37,38
 468 532 468 532 487 518 c 0,39,20
 522 493 522 493 580.5 493 c 128,-1,21
699 1125 m 0,40,41
 840 1125 840 1125 935 1061 c 1,42,43
 1057 1125 1057 1125 1198 1125 c 0,44,45
 1345 1125 1345 1125 1446 1058 c 0,46,47
 1526 1006 1526 1006 1526 908 c 0,48,49
 1526 879 1526 879 1519 847 c 2,50,-1
 1480 663 l 2,51,52
 1448 512 1448 512 1340 452 c 0,53,54
 1219 385 1219 385 1071 385 c 0,55,56
 930 385 930 385 834 449 c 1,57,58
 712 385 712 385 572 385 c 0,59,60
 418 385 418 385 324 452 c 0,61,62
 245 508 245 508 244 604 c 0,63,64
 244 632 244 632 251 663 c 2,65,-1
 290 847 l 2,66,67
 322 998 322 998 430 1058 c 0,68,69
 551 1125 551 1125 699 1125 c 0,40,41
EndSplineSet
Validated: 1
EndChar

StartChar: approxequal
Encoding: 8776 8776 163
Width: 1178
GlyphClass: 2
Flags: W
HStem: 265 212<736.378 983.553> 535 212<410.066 656.622> 765 212<842.378 1089.55> 1035 212<516.066 762.622>
LayerCount: 2
Fore
SplineSet
575 747 m 0,0,1
 756 747 756 747 802 594 c 0,2,3
 819 537 819 537 835 513 c 0,4,5
 859 477 859 477 908 477 c 0,6,7
 1012 477 1012 477 1055 678 c 1,8,-1
 1217 747 l 1,9,-1
 1227 747 l 1,10,11
 1125 265 1125 265 818 265 c 0,12,13
 637 265 637 265 591 418 c 0,14,15
 574 475 574 475 558 499 c 0,16,17
 534 535 534 535 486 535 c 0,18,19
 382 535 382 535 338 334 c 1,20,-1
 176 265 l 1,21,-1
 166 265 l 1,22,23
 269 747 269 747 575 747 c 0,0,1
681 1247 m 0,24,25
 862 1247 862 1247 908 1094 c 0,26,27
 925 1037 925 1037 941 1013 c 0,28,29
 965 977 965 977 1014 977 c 0,30,31
 1118 977 1118 977 1161 1178 c 1,32,-1
 1323 1247 l 1,33,-1
 1333 1247 l 1,34,35
 1231 765 1231 765 924 765 c 0,36,37
 743 765 743 765 697 918 c 0,38,39
 680 975 680 975 664 999 c 0,40,41
 640 1035 640 1035 592 1035 c 0,42,43
 488 1035 488 1035 444 834 c 1,44,-1
 282 765 l 1,45,-1
 272 765 l 1,46,47
 375 1247 375 1247 681 1247 c 0,24,25
EndSplineSet
Validated: 1
EndChar

StartChar: notequal
Encoding: 8800 8800 164
Width: 1240
GlyphClass: 2
Flags: W
HStem: 390 270<375 448 617 631 800 1088> 850 270<473 760 930 943 1113 1186>
DStem2: 298 170 465 166 0.561828 0.827254<90.5163 266.27 687.392 822.097 1243.78 1420.36>
LayerCount: 2
Fore
SplineSet
473 1120 m 1,0,-1
 943 1120 l 1,1,-1
 1096 1345 l 1,2,-1
 1255 1345 l 1,3,-1
 1263 1341 l 1,4,-1
 1113 1120 l 1,5,-1
 1368 1120 l 1,6,-1
 1366 1110 l 1,7,-1
 1186 850 l 1,8,-1
 930 850 l 1,9,-1
 800 660 l 1,10,-1
 1270 660 l 1,11,-1
 1268 650 l 1,12,-1
 1088 390 l 1,13,-1
 617 390 l 1,14,-1
 465 166 l 1,15,-1
 306 166 l 1,16,-1
 298 170 l 1,17,-1
 448 390 l 1,18,-1
 193 390 l 1,19,-1
 195 400 l 1,20,-1
 375 660 l 1,21,-1
 631 660 l 1,22,-1
 760 850 l 1,23,-1
 291 850 l 1,24,-1
 293 860 l 1,25,-1
 473 1120 l 1,0,-1
EndSplineSet
Validated: 1
EndChar

StartChar: lessequal
Encoding: 8804 8804 165
Width: 1355
GlyphClass: 2
Flags: W
HStem: 154 270<325 1103>
DStem2: 647 968 282 806 0.933479 -0.358631<0 679.37> 452 1059 647 968 0.945835 0.324646<154.895 1017.63>
LayerCount: 2
Fore
SplineSet
452 1059 m 1,0,-1
 1428 1394 l 1,1,-1
 1464 1261 l 1,2,-1
 1462 1251 l 1,3,-1
 647 968 l 1,4,-1
 1346 707 l 1,5,-1
 1343 697 l 1,6,-1
 1180 461 l 1,7,-1
 282 806 l 1,8,-1
 284 816 l 1,9,-1
 452 1059 l 1,0,-1
325 424 m 1,10,-1
 1285 424 l 1,11,-1
 1283 414 l 1,12,-1
 1103 154 l 1,13,-1
 143 154 l 1,14,-1
 145 164 l 1,15,-1
 325 424 l 1,10,-1
EndSplineSet
Validated: 1
EndChar

StartChar: greaterequal
Encoding: 8805 8805 166
Width: 1355
GlyphClass: 2
Flags: W
HStem: 154 270<375 1153>
DStem2: 284 587 318 444 0.945835 0.324646<0 862.731> 566 1377 400 1131 0.933479 -0.358631<0 679.37>
LayerCount: 2
Fore
SplineSet
1294 779 m 1,0,-1
 318 444 l 1,1,-1
 282 577 l 1,2,-1
 284 587 l 1,3,-1
 1099 870 l 1,4,-1
 400 1131 l 1,5,-1
 403 1141 l 1,6,-1
 566 1377 l 1,7,-1
 1464 1032 l 1,8,-1
 1462 1022 l 1,9,-1
 1294 779 l 1,0,-1
375 424 m 1,10,-1
 1335 424 l 1,11,-1
 1333 414 l 1,12,-1
 1153 154 l 1,13,-1
 193 154 l 1,14,-1
 195 164 l 1,15,-1
 375 424 l 1,10,-1
EndSplineSet
Validated: 1
EndChar

StartChar: lozenge
Encoding: 9674 9674 167
Width: 1178
GlyphClass: 2
Flags: W
HStem: -20 21G<575.29 603.16> 1510 20G<896.399 923.176>
DStem2: 217 738 476 830 0.660649 0.750695<240.172 683.724> 476 830 217 738 0.436739 -0.899588<0 572.01> 727 316 585 -20 0.672237 0.740336<0 436.366> 914 1530 769 1163 0.417012 -0.908901<273.1 848.73>
LayerCount: 2
Fore
SplineSet
727 316 m 1,0,-1
 1016 643 l 1,1,-1
 769 1163 l 1,2,-1
 476 830 l 1,3,-1
 727 316 l 1,0,-1
585 -20 m 1,4,-1
 217 738 l 1,5,-1
 914 1530 l 1,6,-1
 1276 741 l 1,7,-1
 585 -20 l 1,4,-1
EndSplineSet
Validated: 1
EndChar

StartChar: Oslash
Encoding: 216 216 168
Width: 1370
Flags: W
HStem: -40 21G<242 384.623> -20 150<532.869 912.259> 1380 150<779.091 1157.34>
DStem2: 111.137 -40 431.639 -40 0.207912 0.978148<486.818 1403.38> 242 -36 371 -40 0.562139 0.827043<69.2077 144.214 492.319 1494.56 1845.15 1917.11> 921.396 -40 1241.9 -40 0.207912 0.978148<288.257 1205.34>
LayerCount: 2
Fore
SplineSet
521 181 m 1,0,1
 605 130 605 130 717 130 c 0,2,3
 825 130 825 130 908 171 c 0,4,5
 973 203 973 203 993 295 c 2,6,-1
 1172 1139 l 1,7,-1
 521 181 l 1,0,1
1169 1329 m 1,8,9
 1085 1380 1085 1380 974 1380 c 0,10,11
 866 1380 866 1380 783 1339 c 0,12,13
 718 1307 718 1307 698 1215 c 2,14,-1
 519 371 l 1,15,-1
 1169 1329 l 1,8,9
371 -40 m 1,16,-1
 250 -40 l 1,17,-1
 242 -36 l 1,18,-1
 321 81 l 1,19,20
 197 168 197 168 197 318 c 0,21,22
 197 364 197 364 207 411 c 2,23,-1
 354 1099 l 2,24,25
 406 1344 406 1344 562 1428 c 0,26,27
 752 1530 752 1530 980 1530 c 0,28,29
 1142 1530 1142 1530 1271 1479 c 1,30,-1
 1319 1550 l 1,31,-1
 1440 1550 l 1,32,-1
 1449 1546 l 1,33,-1
 1369 1429 l 1,34,35
 1495 1349 1495 1349 1495 1197 c 0,36,37
 1495 1150 1495 1150 1484 1099 c 2,38,-1
 1337 411 l 2,39,40
 1284 165 1284 165 1130 82 c 0,41,42
 940 -20 940 -20 711 -20 c 0,43,44
 540 -20 540 -20 418 29 c 1,45,-1
 371 -40 l 1,16,-1
EndSplineSet
Validated: 1
EndChar

StartChar: oslash
Encoding: 248 248 169
Width: 1190
Flags: W
HStem: -40 21G<247 390.469> -20 140<505.406 768.333> 980 140<655.667 918.331>
DStem2: 111.229 -40 411.117 -40 0.207912 0.978148<427.326 1034.05> 309 56 377 -40 0.561983 0.827149<-41.1914 0 315.919 953.7 1269.06 1310.81> 761.066 -40 1061.95 -40 0.207912 0.978148<234.875 841.386>
LayerCount: 2
Fore
SplineSet
621 120 m 0,0,1
 705 120 705 120 763 153 c 0,2,3
 809 179 809 179 821 242 c 2,4,-1
 936 783 l 1,5,-1
 504 146 l 1,6,7
 547 120 547 120 621 120 c 0,0,1
487 317 m 1,8,-1
 920 954 l 1,9,10
 878 980 878 980 803 980 c 0,11,12
 719 980 719 980 661 947 c 0,13,14
 615 921 615 921 602 858 c 2,15,-1
 487 317 l 1,8,-1
377 -40 m 1,16,-1
 256 -40 l 1,17,-1
 247 -36 l 1,18,-1
 309 56 l 1,19,20
 300 62 300 62 292 67 c 0,21,22
 184 142 184 142 184 268 c 0,23,24
 184 302 184 302 192 340 c 2,25,-1
 282 760 l 2,26,27
 326 964 326 964 453 1033 c 0,28,29
 614 1120 614 1120 803 1120 c 0,30,31
 916 1120 916 1120 1011 1089 c 1,32,-1
 1046 1140 l 1,33,-1
 1167 1140 l 1,34,-1
 1176 1136 l 1,35,-1
 1113 1044 l 1,36,37
 1122 1039 1122 1039 1132 1033 c 0,38,39
 1241 965 1241 965 1241 837 c 0,40,41
 1241 801 1241 801 1232 760 c 2,42,-1
 1142 340 l 2,43,44
 1098 136 1098 136 971 67 c 0,45,46
 810 -20 810 -20 621 -20 c 0,47,48
 502 -20 502 -20 410 9 c 1,49,-1
 377 -40 l 1,16,-1
EndSplineSet
Validated: 19457
EndChar

StartChar: multiply
Encoding: 215 215 170
Width: 1232
Flags: W
DStem2: 264 490 521 387 0.771669 0.636024<132.808 411.294 716.76 995.245> 678 1123 377 1020 0.618315 -0.78593<0 225.055 475.197 700.253>
LayerCount: 2
Fore
SplineSet
1283 1027 m 1,0,-1
 1289 1020 l 1,1,-1
 967 755 l 1,2,-1
 1176 490 l 1,3,-1
 1168 483 l 1,4,-1
 875 387 l 1,5,-1
 736 564 l 1,6,-1
 521 387 l 1,7,-1
 270 483 l 1,8,-1
 264 490 l 1,9,-1
 585 755 l 1,10,-1
 377 1020 l 1,11,-1
 385 1027 l 1,12,-1
 678 1123 l 1,13,-1
 817 946 l 1,14,-1
 1032 1123 l 1,15,-1
 1283 1027 l 1,0,-1
EndSplineSet
Validated: 1
EndChar

StartChar: divide
Encoding: 247 247 171
Width: 1240
Flags: W
HStem: 155 365<604.097 780.323> 620 270<424 1137> 990 365<781.097 957.323>
CounterMasks: 1 e0
LayerCount: 2
Fore
SplineSet
654 155 m 0,0,1
 578 155 578 155 538 209 c 0,2,3
 508 248 508 248 508 298 c 0,4,5
 508 317 508 317 512 337 c 0,6,7
 528 413 528 413 592 466 c 0,8,9
 656 520 656 520 731 520 c 0,10,11
 807 520 807 520 848 467 c 0,12,13
 877 429 877 429 877 378 c 0,14,15
 877 359 877 359 873 338 c 0,16,17
 857 263 857 263 792.5 209 c 128,-1,18
 728 155 728 155 654 155 c 0,0,1
908 1355 m 0,19,20
 984 1355 984 1355 1025 1302 c 0,21,22
 1054 1264 1054 1264 1054 1213 c 0,23,24
 1054 1194 1054 1194 1050 1173 c 0,25,26
 1034 1098 1034 1098 969.5 1044 c 128,-1,27
 905 990 905 990 831 990 c 0,28,29
 755 990 755 990 715 1044 c 0,30,31
 685 1083 685 1083 685 1133 c 0,32,33
 685 1152 685 1152 689 1172 c 0,34,35
 705 1248 705 1248 769 1301 c 0,36,37
 833 1355 833 1355 908 1355 c 0,19,20
424 890 m 1,38,-1
 1319 890 l 1,39,-1
 1317 880 l 1,40,-1
 1137 620 l 1,41,-1
 242 620 l 1,42,-1
 244 630 l 1,43,-1
 424 890 l 1,38,-1
EndSplineSet
Validated: 1
EndChar

StartChar: uni1E02
Encoding: 7682 7682 172
Width: 1290
Flags: W
HStem: 0 150<512 888.43> 748 150<671 1000.86> 1360 150<769 1082.46> 1589 365<939.097 1115.32>
VStem: 1043 322<414.781 713.001 944.174 1052.65> 1112 290<1069.4 1336.15>
DStem2: 160 0 480.117 0 0.207912 0.978148<219.907 831.244 984.619 1414.88>
LayerCount: 2
Fore
SplineSet
639 748 m 1,0,-1
 512 150 l 1,1,-1
 697 150 l 2,2,3
 809 150 809 150 891 185 c 0,4,5
 955 212 955 212 972 292 c 2,6,-1
 1039 606 l 2,7,8
 1043 625 1043 625 1043 641 c 0,9,10
 1043 691 1043 691 1003 713 c 0,11,12
 935 748 935 748 824 748 c 2,13,-1
 639 748 l 1,0,-1
769 1360 m 1,14,-1
 671 898 l 1,15,-1
 856 898 l 2,16,17
 941 898 941 898 996 924 c 24,18,19
 1040 944 1040 944 1051 994 c 2,20,-1
 1109 1264 l 2,21,22
 1112 1276 1112 1276 1112 1286 c 0,23,24
 1112 1320 1112 1320 1084 1334 c 0,25,26
 1035 1360 1035 1360 954 1360 c 2,27,-1
 769 1360 l 1,14,-1
160 0 m 1,28,-1
 454 1384 l 1,29,-1
 749 1510 l 1,30,-1
 966 1510 l 2,31,32
 1175 1510 1175 1510 1290 1425 c 16,33,34
 1402 1344 1402 1344 1402 1216 c 0,35,36
 1402 1180 1402 1180 1393 1141 c 2,37,-1
 1375 1060 l 2,38,39
 1350 950 1350 950 1239 855 c 1,40,41
 1365 770 1365 770 1365 625 c 0,42,43
 1365 584 1365 584 1355 539 c 2,44,-1
 1331 430 l 2,45,46
 1276 186 1276 186 1122 102 c 0,47,48
 932 0 932 0 705 0 c 2,49,-1
 160 0 l 1,28,-1
1066 1954 m 0,50,51
 1142 1954 1142 1954 1183 1901 c 0,52,53
 1212 1863 1212 1863 1212 1812 c 0,54,55
 1212 1793 1212 1793 1208 1772 c 0,56,57
 1192 1697 1192 1697 1127.5 1643 c 128,-1,58
 1063 1589 1063 1589 989 1589 c 0,59,60
 913 1589 913 1589 873 1643 c 0,61,62
 843 1682 843 1682 843 1732 c 0,63,64
 843 1751 843 1751 847 1771 c 0,65,66
 863 1847 863 1847 927 1900 c 0,67,68
 991 1954 991 1954 1066 1954 c 0,50,51
EndSplineSet
Validated: 1
EndChar

StartChar: uni1E03
Encoding: 7683 7683 173
Width: 1210
Flags: W
HStem: -20 140<509.02 780.562> 980 140<678.067 944.961> 1179 365<893.097 1069.32> 1510 20G<708.768 765>
VStem: 204 283<148.239 428.344> 966 294<666.812 952.007>
DStem2: 135.48 -20 435.31 -20 0.207912 0.978148<299.466 1058.19 1196.11 1443.63> 775.375 -20 1086.21 -20 0.207912 0.978148<216.495 929.288>
LayerCount: 2
Fore
SplineSet
636 120 m 128,-1,1
 715 120 715 120 773 153 c 0,2,3
 819 179 819 179 831 242 c 2,4,-1
 962 858 l 2,5,6
 966 875 966 875 966 890 c 0,7,8
 966 928 966 928 941 947 c 0,9,10
 897 980 897 980 818 980 c 128,-1,11
 739 980 739 980 681 947 c 0,12,13
 635 921 635 921 622 858 c 2,14,-1
 491 242 l 2,15,16
 487 225 487 225 487 211 c 0,17,18
 487 172 487 172 513 153 c 0,19,0
 557 120 557 120 636 120 c 128,-1,1
641 -20 m 0,20,21
 435 -20 435 -20 312 67 c 0,22,23
 204 143 204 143 204 268 c 0,24,25
 204 302 204 302 212 340 c 2,26,-1
 436 1392 l 1,27,-1
 755 1530 l 1,28,-1
 765 1530 l 1,29,-1
 671 1089 l 1,30,31
 745 1120 745 1120 838 1120 c 0,32,33
 1028 1120 1028 1120 1152 1033 c 0,34,35
 1260 958 1260 958 1260 832 c 0,36,37
 1260 798 1260 798 1252 760 c 2,38,-1
 1162 340 l 2,39,40
 1118 136 1118 136 991 67 c 0,41,42
 830 -20 830 -20 641 -20 c 0,20,21
1020 1544 m 0,43,44
 1096 1544 1096 1544 1137 1491 c 0,45,46
 1166 1453 1166 1453 1166 1402 c 0,47,48
 1166 1383 1166 1383 1162 1362 c 0,49,50
 1146 1287 1146 1287 1081.5 1233 c 128,-1,51
 1017 1179 1017 1179 943 1179 c 0,52,53
 867 1179 867 1179 827 1233 c 0,54,55
 797 1272 797 1272 797 1322 c 0,56,57
 797 1341 797 1341 801 1361 c 0,58,59
 817 1437 817 1437 881 1490 c 0,60,61
 945 1544 945 1544 1020 1544 c 0,43,44
EndSplineSet
Validated: 19457
EndChar

StartChar: uni1E0A
Encoding: 7690 7690 174
Width: 1390
Flags: W
HStem: 0 150<512 927.91> 1360 150<769 1159.93> 1589 365<974.097 1150.32>
VStem: 1200 310<1017.25 1320.08>
DStem2: 160 0 480.117 0 0.207912 0.978148<219.907 1413.9> 939.995 0 1269.65 0 0.207912 0.978148<265.689 1267.33>
LayerCount: 2
Fore
SplineSet
512 150 m 1,0,-1
 727 150 l 2,1,2
 840 150 840 150 923 191 c 0,3,4
 988 223 988 223 1007 315 c 2,5,-1
 1194 1195 l 2,6,7
 1200 1221 1200 1221 1200 1241 c 0,8,9
 1200 1295 1200 1295 1162 1319 c 0,10,11
 1096 1360 1096 1360 984 1360 c 2,12,-1
 769 1360 l 1,13,-1
 512 150 l 1,0,-1
160 0 m 1,14,-1
 454 1383 l 1,15,-1
 749 1510 l 1,16,-1
 996 1510 l 2,17,18
 1224 1510 1224 1510 1386 1408 c 0,19,20
 1510 1330 1510 1330 1510 1177 c 0,21,22
 1510 1131 1510 1131 1499 1079 c 2,23,-1
 1362 431 l 2,24,25
 1310 186 1310 186 1154 102 c 0,26,27
 964 0 964 0 735 0 c 2,28,-1
 160 0 l 1,14,-1
1101 1954 m 0,29,30
 1177 1954 1177 1954 1218 1901 c 0,31,32
 1247 1863 1247 1863 1247 1812 c 0,33,34
 1247 1793 1247 1793 1243 1772 c 0,35,36
 1227 1697 1227 1697 1162.5 1643 c 128,-1,37
 1098 1589 1098 1589 1024 1589 c 0,38,39
 948 1589 948 1589 908 1643 c 0,40,41
 878 1682 878 1682 878 1732 c 0,42,43
 878 1751 878 1751 882 1771 c 0,44,45
 898 1847 898 1847 962 1900 c 0,46,47
 1026 1954 1026 1954 1101 1954 c 0,29,30
EndSplineSet
Validated: 1
EndChar

StartChar: uni1E0B
Encoding: 7691 7691 175
Width: 1210
Flags: W
HStem: -20 140<497.934 768.334> 980 140<663.438 935.716> 1179 365<709.097 885.323>
VStem: 183 294<148.766 433.188>
DStem2: 115.48 -20 425.31 -20 0.207912 0.978148<301.545 1013.6> 765.375 -20 1065.48 -20 0.207912 0.978148<214.514 929.288 1133.75 1443.65>
LayerCount: 2
Fore
SplineSet
626 120 m 128,-1,1
 705 120 705 120 763 153 c 0,2,3
 809 179 809 179 821 242 c 2,4,-1
 952 858 l 2,5,6
 956 875 956 875 956 890 c 0,7,8
 956 928 956 928 931 947 c 0,9,10
 887 980 887 980 808 980 c 128,-1,11
 729 980 729 980 671 947 c 0,12,13
 625 921 625 921 612 858 c 2,14,-1
 481 242 l 2,15,16
 477 225 477 225 477 211 c 0,17,18
 477 172 477 172 503 153 c 0,19,0
 547 120 547 120 626 120 c 128,-1,1
621 -20 m 128,-1,21
 432 -20 432 -20 292 67 c 0,22,23
 183 135 183 135 183 263 c 0,24,25
 183 299 183 299 192 340 c 2,26,-1
 282 760 l 2,27,28
 326 964 326 964 453 1033 c 0,29,30
 614 1120 614 1120 803 1120 c 0,31,32
 928 1120 928 1120 1001 1089 c 1,33,-1
 1066 1392 l 1,34,-1
 1385 1530 l 1,35,-1
 1395 1530 l 1,36,-1
 1142 340 l 2,37,38
 1099 136 1099 136 971 67 c 0,39,20
 810 -20 810 -20 621 -20 c 128,-1,21
836 1544 m 0,40,41
 912 1544 912 1544 953 1491 c 0,42,43
 982 1453 982 1453 982 1402 c 0,44,45
 982 1383 982 1383 978 1362 c 0,46,47
 962 1287 962 1287 897.5 1233 c 128,-1,48
 833 1179 833 1179 759 1179 c 0,49,50
 683 1179 683 1179 643 1233 c 0,51,52
 613 1272 613 1272 613 1322 c 0,53,54
 613 1341 613 1341 617 1361 c 0,55,56
 633 1437 633 1437 697 1490 c 0,57,58
 761 1544 761 1544 836 1544 c 0,40,41
EndSplineSet
Validated: 19457
EndChar

StartChar: uni1E1E
Encoding: 7710 7710 176
Width: 1050
Flags: W
HStem: -20 21G<156 212.395> 680 150<656 1118> 1360 150<769 1262> 1589 365<897.097 1073.32>
DStem2: 156 -20 475.754 -20 0.207912 0.978148<216.765 782.214 935.381 1435.28>
LayerCount: 2
Fore
SplineSet
166 -20 m 1,0,-1
 156 -20 l 1,1,-1
 454 1384 l 1,2,-1
 749 1510 l 1,3,-1
 1361 1510 l 1,4,-1
 1359 1500 l 1,5,-1
 1262 1360 l 1,6,-1
 769 1360 l 1,7,-1
 656 830 l 1,8,-1
 1216 830 l 1,9,-1
 1214 820 l 1,10,-1
 1118 680 l 1,11,-1
 625 680 l 1,12,-1
 507 127 l 1,13,-1
 166 -20 l 1,0,-1
1024 1954 m 0,14,15
 1100 1954 1100 1954 1141 1901 c 0,16,17
 1170 1863 1170 1863 1170 1812 c 0,18,19
 1170 1793 1170 1793 1166 1772 c 0,20,21
 1150 1697 1150 1697 1085.5 1643 c 128,-1,22
 1021 1589 1021 1589 947 1589 c 0,23,24
 871 1589 871 1589 831 1643 c 0,25,26
 801 1682 801 1682 801 1732 c 0,27,28
 801 1751 801 1751 805 1771 c 0,29,30
 821 1847 821 1847 885 1900 c 0,31,32
 949 1954 949 1954 1024 1954 c 0,14,15
EndSplineSet
Validated: 1
EndChar

StartChar: uni1E1F
Encoding: 7711 7711 177
Width: 860
Flags: W
HStem: -20 21G<136 192.232> 802 140<640 919> 1370 140<765.822 1079> 1589 365<754.097 930.323>
DStem2: 136 -20 435.667 -20 0.207912 0.978148<203.387 902.587 1045.77 1412.45>
LayerCount: 2
Fore
SplineSet
146 -20 m 1,0,-1
 136 -20 l 1,1,-1
 384 1150 l 2,2,3
 425 1346 425 1346 556 1423 c 0,4,5
 703 1510 703 1510 906 1510 c 2,6,-1
 1171 1510 l 1,7,-1
 1169 1500 l 1,8,-1
 1079 1370 l 1,9,-1
 917 1370 l 2,10,11
 822 1370 822 1370 764 1337 c 0,12,13
 718 1311 718 1311 705 1248 c 2,14,-1
 640 942 l 1,15,-1
 1011 942 l 1,16,-1
 1009 932 l 1,17,-1
 919 802 l 1,18,-1
 610 802 l 1,19,-1
 465 118 l 1,20,-1
 146 -20 l 1,0,-1
881 1954 m 0,21,22
 957 1954 957 1954 998 1901 c 0,23,24
 1027 1863 1027 1863 1027 1812 c 0,25,26
 1027 1793 1027 1793 1023 1772 c 0,27,28
 1007 1697 1007 1697 942.5 1643 c 128,-1,29
 878 1589 878 1589 804 1589 c 0,30,31
 728 1589 728 1589 688 1643 c 0,32,33
 658 1682 658 1682 658 1732 c 0,34,35
 658 1751 658 1751 662 1771 c 0,36,37
 678 1847 678 1847 742 1900 c 0,38,39
 806 1954 806 1954 881 1954 c 0,21,22
EndSplineSet
Validated: 19457
EndChar

StartChar: uni1E40
Encoding: 7744 7744 178
Width: 2220
Flags: W
HStem: -20 21G<136 192.395 946 1002.39 1756 1812.39> 1380 150<799.465 1178.7 1607.17 1987.61> 1589 365<1392.1 1568.32>
VStem: 2024 301<1148.94 1338.27>
DStem2: 136 -20 455.754 -20 0.207912 0.978148<216.765 1382.81> 946 -20 1265.75 -20 0.207912 0.978148<216.765 1309.06> 1756 -20 2075.75 -20 0.207912 0.978148<216.765 1307.3>
LayerCount: 2
Fore
SplineSet
146 -20 m 1,0,-1
 136 -20 l 1,1,-1
 374 1099 l 2,2,3
 426 1344 426 1344 582 1428 c 0,4,5
 772 1530 772 1530 1002.5 1530 c 128,-1,6
 1233 1530 1233 1530 1382 1423 c 1,7,8
 1579 1530 1579 1530 1809 1530 c 0,9,10
 2038 1530 2038 1530 2200 1428 c 0,11,12
 2325 1349 2325 1349 2325 1197 c 0,13,14
 2325 1151 2325 1151 2314 1099 c 2,15,-1
 2107 127 l 1,16,-1
 1766 -20 l 1,17,-1
 1756 -20 l 1,18,-1
 2018 1215 l 2,19,20
 2024 1241 2024 1241 2024 1262 c 0,21,22
 2024 1316 2024 1316 1987 1339 c 0,23,24
 1921 1380 1921 1380 1808.5 1380 c 128,-1,25
 1696 1380 1696 1380 1613 1339 c 0,26,27
 1548 1307 1548 1307 1528 1215 c 2,28,-1
 1297 127 l 1,29,-1
 956 -20 l 1,30,-1
 946 -20 l 1,31,-1
 1208 1215 l 2,32,33
 1214 1241 1214 1241 1214 1262 c 0,34,35
 1214 1316 1214 1316 1177 1339 c 0,36,37
 1111 1380 1111 1380 998.5 1380 c 128,-1,38
 886 1380 886 1380 803 1339 c 0,39,40
 738 1307 738 1307 718 1215 c 2,41,-1
 487 127 l 1,42,-1
 146 -20 l 1,0,-1
1519 1954 m 0,43,44
 1595 1954 1595 1954 1636 1901 c 0,45,46
 1665 1863 1665 1863 1665 1812 c 0,47,48
 1665 1793 1665 1793 1661 1772 c 0,49,50
 1645 1697 1645 1697 1580.5 1643 c 128,-1,51
 1516 1589 1516 1589 1442 1589 c 0,52,53
 1366 1589 1366 1589 1326 1643 c 0,54,55
 1296 1682 1296 1682 1296 1732 c 0,56,57
 1296 1751 1296 1751 1300 1771 c 0,58,59
 1316 1847 1316 1847 1380 1900 c 0,60,61
 1444 1954 1444 1954 1519 1954 c 0,43,44
EndSplineSet
Validated: 1
EndChar

StartChar: uni1E41
Encoding: 7745 7745 179
Width: 1880
Flags: W
HStem: -20 21G<136 192.232 786 842.232 1436 1492.23> 980 140<675.667 956.024 1324.8 1603.74> 1179 365<1133.1 1309.32>
VStem: 1626 285<791.753 946.402>
DStem2: 136 -20 435.667 -20 0.207912 0.978148<203.387 1013.39> 786 -20 1085.67 -20 0.207912 0.978148<203.387 929.158> 1436 -20 1735.67 -20 0.207912 0.978148<203.387 929.158>
LayerCount: 2
Fore
SplineSet
146 -20 m 1,0,-1
 136 -20 l 1,1,-1
 302 760 l 2,2,3
 345 964 345 964 473 1033 c 0,4,5
 634 1120 634 1120 823 1120 c 0,6,7
 1007 1120 1007 1120 1130 1037 c 1,8,9
 1289 1120 1289 1120 1473 1120 c 0,10,11
 1662 1120 1662 1120 1802 1033 c 0,12,13
 1911 965 1911 965 1911 837 c 0,14,15
 1911 801 1911 801 1902 760 c 2,16,-1
 1765 118 l 1,17,-1
 1446 -20 l 1,18,-1
 1436 -20 l 1,19,-1
 1622 858 l 2,20,21
 1626 875 1626 875 1626 890 c 0,22,23
 1626 928 1626 928 1601 947 c 0,24,25
 1557 980 1557 980 1473 980 c 128,-1,26
 1389 980 1389 980 1331 947 c 0,27,28
 1285 921 1285 921 1272 858 c 2,29,-1
 1115 118 l 1,30,-1
 796 -20 l 1,31,-1
 786 -20 l 1,32,-1
 972 858 l 2,33,34
 976 875 976 875 976 890 c 0,35,36
 976 928 976 928 951 947 c 0,37,38
 907 980 907 980 823 980 c 128,-1,39
 739 980 739 980 681 947 c 0,40,41
 635 921 635 921 622 858 c 2,42,-1
 465 118 l 1,43,-1
 146 -20 l 1,0,-1
1260 1544 m 0,44,45
 1336 1544 1336 1544 1377 1491 c 0,46,47
 1406 1453 1406 1453 1406 1402 c 0,48,49
 1406 1383 1406 1383 1402 1362 c 0,50,51
 1386 1287 1386 1287 1321.5 1233 c 128,-1,52
 1257 1179 1257 1179 1183 1179 c 0,53,54
 1107 1179 1107 1179 1067 1233 c 0,55,56
 1037 1272 1037 1272 1037 1322 c 0,57,58
 1037 1341 1037 1341 1041 1361 c 0,59,60
 1057 1437 1057 1437 1121 1490 c 0,61,62
 1185 1544 1185 1544 1260 1544 c 0,44,45
EndSplineSet
Validated: 19457
EndChar

StartChar: uni1E56
Encoding: 7766 7766 180
Width: 1270
Flags: W
HStem: -20 21G<156 212.395> 440 150<605 991.91> 1360 150<769 1129.93> 1589 365<930.097 1106.32>
VStem: 1170 310<1015.12 1320.08>
DStem2: 156 -20 475.754 -20 0.207912 0.978148<216.765 536.855 690.022 1434.3> 905.744 -20 1235.4 -20 0.207912 0.978148<735.476 1287.77>
LayerCount: 2
Fore
SplineSet
769 1360 m 1,0,-1
 605 590 l 1,1,-1
 790 590 l 2,2,3
 903 590 903 590 986 631 c 0,4,5
 1051 663 1051 663 1070 755 c 2,6,-1
 1164 1195 l 2,7,8
 1170 1221 1170 1221 1170 1241 c 0,9,10
 1170 1295 1170 1295 1132 1319 c 0,11,12
 1066 1360 1066 1360 954 1360 c 2,13,-1
 769 1360 l 1,0,-1
166 -20 m 1,14,-1
 156 -20 l 1,15,-1
 454 1383 l 1,16,-1
 749 1510 l 1,17,-1
 966 1510 l 2,18,19
 1194 1510 1194 1510 1356 1408 c 0,20,21
 1480 1330 1480 1330 1480 1177 c 0,22,23
 1480 1131 1480 1131 1469 1079 c 2,24,-1
 1425 871 l 2,25,26
 1374 626 1374 626 1218 542 c 0,27,28
 1028 440 1028 440 799 440 c 2,29,-1
 574 440 l 1,30,-1
 507 127 l 1,31,-1
 166 -20 l 1,14,-1
1057 1954 m 0,32,33
 1133 1954 1133 1954 1174 1901 c 0,34,35
 1203 1863 1203 1863 1203 1812 c 0,36,37
 1203 1793 1203 1793 1199 1772 c 0,38,39
 1183 1697 1183 1697 1118.5 1643 c 128,-1,40
 1054 1589 1054 1589 980 1589 c 0,41,42
 904 1589 904 1589 864 1643 c 0,43,44
 834 1682 834 1682 834 1732 c 0,45,46
 834 1751 834 1751 838 1771 c 0,47,48
 854 1847 854 1847 918 1900 c 0,49,50
 982 1954 982 1954 1057 1954 c 0,32,33
EndSplineSet
Validated: 1
EndChar

StartChar: uni1E57
Encoding: 7767 7767 181
Width: 1210
Flags: W
HStem: -430 21G<49 105.232> -20 140<508.079 780.562> 980 140<675.666 946.066> 1179 365<814.097 990.323>
VStem: 966 295<666.812 952.729>
DStem2: 49 -430 348.667 -430 0.207912 0.978148<203.387 513.072 718.487 1432.52> 688.227 -430 999.058 -430 0.207912 0.978148<635.655 1348.45>
LayerCount: 2
Fore
SplineSet
636 120 m 128,-1,1
 715 120 715 120 773 153 c 0,2,3
 819 179 819 179 831 242 c 2,4,-1
 962 858 l 2,5,6
 966 875 966 875 966 890 c 0,7,8
 966 928 966 928 941 947 c 0,9,10
 897 980 897 980 818 980 c 128,-1,11
 739 980 739 980 681 947 c 0,12,13
 635 921 635 921 622 858 c 2,14,-1
 491 242 l 2,15,16
 487 225 487 225 487 211 c 0,17,18
 487 172 487 172 513 153 c 0,19,0
 557 120 557 120 636 120 c 128,-1,1
641 -20 m 0,20,21
 516 -20 516 -20 442 11 c 1,22,-1
 378 -292 l 1,23,-1
 59 -430 l 1,24,-1
 49 -430 l 1,25,-1
 302 760 l 2,26,27
 345 964 345 964 473 1033 c 0,28,29
 634 1120 634 1120 823 1120 c 128,-1,30
 1012 1120 1012 1120 1152 1033 c 0,31,32
 1261 965 1261 965 1261 837 c 0,33,34
 1261 801 1261 801 1252 760 c 2,35,-1
 1162 340 l 2,36,37
 1118 136 1118 136 991 67 c 0,38,39
 830 -20 830 -20 641 -20 c 0,20,21
941 1544 m 0,40,41
 1017 1544 1017 1544 1058 1491 c 0,42,43
 1087 1453 1087 1453 1087 1402 c 0,44,45
 1087 1383 1087 1383 1083 1362 c 0,46,47
 1067 1287 1067 1287 1002.5 1233 c 128,-1,48
 938 1179 938 1179 864 1179 c 0,49,50
 788 1179 788 1179 748 1233 c 0,51,52
 718 1272 718 1272 718 1322 c 0,53,54
 718 1341 718 1341 722 1361 c 0,55,56
 738 1437 738 1437 802 1490 c 0,57,58
 866 1544 866 1544 941 1544 c 0,40,41
EndSplineSet
Validated: 19457
EndChar

StartChar: uni1E6A
Encoding: 7786 7786 182
Width: 1190
Flags: W
HStem: -20 21G<431 487.712> 1360 150<398 724 1044 1402> 1589 365<877.097 1053.32>
DStem2: 431 -20 750.967 -20 0.207912 0.978148<215.787 1410.76>
LayerCount: 2
Fore
SplineSet
441 -20 m 1,0,-1
 431 -20 l 1,1,-1
 724 1360 l 1,2,-1
 299 1360 l 1,3,-1
 301 1370 l 1,4,-1
 398 1510 l 1,5,-1
 1501 1510 l 1,6,-1
 1499 1500 l 1,7,-1
 1402 1360 l 1,8,-1
 1044 1360 l 1,9,-1
 782 126 l 1,10,-1
 441 -20 l 1,0,-1
1004 1954 m 0,11,12
 1080 1954 1080 1954 1121 1901 c 0,13,14
 1150 1863 1150 1863 1150 1812 c 0,15,16
 1150 1793 1150 1793 1146 1772 c 0,17,18
 1130 1697 1130 1697 1065.5 1643 c 128,-1,19
 1001 1589 1001 1589 927 1589 c 0,20,21
 851 1589 851 1589 811 1643 c 0,22,23
 781 1682 781 1682 781 1732 c 0,24,25
 781 1751 781 1751 785 1771 c 0,26,27
 801 1847 801 1847 865 1900 c 0,28,29
 929 1954 929 1954 1004 1954 c 0,11,12
EndSplineSet
Validated: 1
EndChar

StartChar: uni1E6B
Encoding: 7787 7787 183
Width: 890
Flags: W
HStem: -20 21G<296 352.26> 960 140<306 504 819 1022> 1510 20G<853.74 910> 1589 365<733.097 909.323>
DStem2: 296 -20 581.155 -20 0.207912 0.978148<193.214 1001.83 1204.26 1450.57>
LayerCount: 2
Fore
SplineSet
306 -20 m 1,0,-1
 296 -20 l 1,1,-1
 504 960 l 1,2,-1
 214 960 l 1,3,-1
 216 970 l 1,4,-1
 306 1100 l 1,5,-1
 534 1100 l 1,6,-1
 597 1399 l 1,7,-1
 900 1530 l 1,8,-1
 910 1530 l 1,9,-1
 819 1100 l 1,10,-1
 1114 1100 l 1,11,-1
 1112 1090 l 1,12,-1
 1022 960 l 1,13,-1
 789 960 l 1,14,-1
 609 111 l 1,15,-1
 306 -20 l 1,0,-1
860 1954 m 0,16,17
 936 1954 936 1954 977 1901 c 0,18,19
 1006 1863 1006 1863 1006 1812 c 0,20,21
 1006 1793 1006 1793 1002 1772 c 0,22,23
 986 1697 986 1697 921.5 1643 c 128,-1,24
 857 1589 857 1589 783 1589 c 0,25,26
 707 1589 707 1589 667 1643 c 0,27,28
 637 1682 637 1682 637 1732 c 0,29,30
 637 1751 637 1751 641 1771 c 0,31,32
 657 1847 657 1847 721 1900 c 0,33,34
 785 1954 785 1954 860 1954 c 0,16,17
EndSplineSet
Validated: 1
EndChar

StartChar: uni1E60
Encoding: 7776 7776 184
Width: 1160
Flags: W
HStem: -20 129<440.61 752.175> 751 167<676.348 866.119> 1390 140<755.487 969.805> 1589 365<847.097 1023.32>
VStem: 106 299<155.597 389.516> 902 325<413.164 714.871> 988 298<1191.26 1366.04>
LayerCount: 2
Fore
SplineSet
590 -20 m 0,0,1
 369 -20 369 -20 226 79 c 0,2,3
 106 162 106 162 106 323 c 0,4,5
 106 352 106 352 111 383 c 1,6,-1
 458 533 l 1,7,-1
 468 533 l 1,8,-1
 410 261 l 2,9,10
 405 238 405 238 405 221 c 0,11,12
 405 169 405 169 444 147 c 0,13,14
 508 109 508 109 580 109 c 0,15,16
 664 109 664 109 743 147 c 0,17,18
 807 178 807 178 825 261 c 2,19,-1
 897 598 l 2,20,21
 902 621 902 621 902 641 c 0,22,23
 902 691 902 691 868 713 c 0,24,25
 808 751 808 751 723 751 c 0,26,27
 560 751 560 751 428 844 c 0,28,29
 336 909 336 909 336 1033 c 0,30,31
 336 1077 336 1077 348 1130 c 2,32,-1
 367 1214 l 2,33,34
 402 1370 402 1370 526 1440 c 0,35,36
 688 1530 688 1530 868 1530 c 0,37,38
 1061 1530 1061 1530 1179 1446 c 0,39,40
 1286 1370 1286 1370 1286 1236 c 0,41,42
 1286 1218 1286 1218 1283 1199 c 1,43,-1
 947 1054 l 1,44,-1
 937 1054 l 1,45,-1
 984 1277 l 2,46,47
 988 1296 988 1296 988 1310 c 0,48,49
 988 1346 988 1346 965 1361 c 0,50,51
 921 1390 921 1390 881 1390 c 0,52,53
 814 1390 814 1390 763 1361 c 0,54,55
 722 1338 722 1338 709 1277 c 2,56,-1
 657 1031 l 2,57,58
 653 1012 653 1012 653 997 c 0,59,60
 653 961 653 961 675 947 c 0,61,62
 718 918 718 918 777 918 c 0,63,64
 990 918 990 918 1121 820 c 0,65,66
 1227 741 1227 741 1227 596 c 0,67,68
 1227 546 1227 546 1214 487 c 2,69,-1
 1183 347 l 2,70,71
 1143 165 1143 165 988 82 c 0,72,73
 798 -20 798 -20 590 -20 c 0,0,1
974 1954 m 0,74,75
 1050 1954 1050 1954 1091 1901 c 0,76,77
 1120 1863 1120 1863 1120 1812 c 0,78,79
 1120 1793 1120 1793 1116 1772 c 0,80,81
 1100 1697 1100 1697 1035.5 1643 c 128,-1,82
 971 1589 971 1589 897 1589 c 0,83,84
 821 1589 821 1589 781 1643 c 0,85,86
 751 1682 751 1682 751 1732 c 0,87,88
 751 1751 751 1751 755 1771 c 0,89,90
 771 1847 771 1847 835 1900 c 0,91,92
 899 1954 899 1954 974 1954 c 0,74,75
EndSplineSet
Validated: 1
EndChar

StartChar: uni1E61
Encoding: 7777 7777 185
Width: 949
Flags: W
HStem: -20 140<385.011 607.505> 515 140<539.574 683.396> 980 140<589.97 734.374> 1179 365<652.097 828.323>
VStem: 80 289<141.566 299.844> 691 302<222.581 505.794> 746 286<855.899 970.845>
LayerCount: 2
Fore
SplineSet
487 -20 m 128,-1,1
 293 -20 293 -20 180 68 c 0,2,3
 80 145 80 145 80 264 c 0,4,5
 80 278 80 278 82 292 c 1,6,-1
 404 430 l 1,7,-1
 414 430 l 1,8,-1
 372 230 l 2,9,10
 369 216 369 216 369 200 c 0,11,12
 369 166 369 166 390 148 c 0,13,14
 424 120 424 120 491.5 120 c 128,-1,15
 559 120 559 120 597 145 c 0,16,17
 636 170 636 170 648 230 c 2,18,-1
 688 421 l 2,19,20
 691 435 691 435 691 446 c 0,21,22
 691 515 691 515 586 515 c 0,23,24
 399 515 399 515 313 583 c 0,25,26
 238 642 238 642 238 725 c 0,27,28
 238 744 238 744 243 768 c 2,29,-1
 259 844 l 2,30,31
 289 986 289 986 389 1044 c 0,32,33
 523 1120 523 1120 677 1120 c 0,34,35
 848 1120 848 1120 944 1044 c 0,36,37
 1032 975 1032 975 1032 880 c 0,38,39
 1032 872 1032 872 1031 865 c 1,40,-1
 717 729 l 1,41,-1
 707 729 l 1,42,-1
 744 904 l 2,43,44
 746 913 746 913 746 924 c 0,45,46
 746 952 746 952 726 966 c 128,-1,47
 706 980 706 980 677 980 c 0,48,49
 628 980 628 980 601 962 c 0,50,51
 574 943 574 943 568 914 c 2,52,-1
 527 719 l 2,53,54
 525 709 525 709 525 705 c 0,55,56
 525 687 525 687 539 673 c 0,57,58
 557 655 557 655 622 655 c 0,59,60
 828 655 828 655 912 582 c 0,61,62
 993 510 993 510 993 420 c 0,63,64
 993 396 993 396 988 373 c 2,65,-1
 968 281 l 2,66,67
 938 145 938 145 819 68 c 0,68,0
 681 -20 681 -20 487 -20 c 128,-1,1
779 1544 m 0,69,70
 855 1544 855 1544 896 1491 c 0,71,72
 925 1453 925 1453 925 1402 c 0,73,74
 925 1383 925 1383 921 1362 c 0,75,76
 905 1287 905 1287 840.5 1233 c 128,-1,77
 776 1179 776 1179 702 1179 c 0,78,79
 626 1179 626 1179 586 1233 c 0,80,81
 556 1272 556 1272 556 1322 c 0,82,83
 556 1341 556 1341 560 1361 c 0,84,85
 576 1437 576 1437 640 1490 c 0,86,87
 704 1544 704 1544 779 1544 c 0,69,70
EndSplineSet
Validated: 19457
EndChar

StartChar: Wgrave
Encoding: 7808 7808 186
Width: 2220
Flags: W
HStem: -20 150<553.057 933.726 1362.29 1741.96> 1510 20G<728.605 785 1538.61 1595 2348.61 2405>
VStem: 216 301<171.726 361.063>
DStem2: 135.388 -20 456.045 -20 0.207912 0.978148<343.891 1434.43> 946.045 -20 1266.04 -20 0.207912 0.978148<341.992 1434.29> 1511 1980 1303 1895 0.255077 -0.966921<29.1322 337.153> 1755.78 -20 2075.54 -20 0.207912 0.978148<263.194 1434.34>
LayerCount: 2
Fore
SplineSet
732 -20 m 128,-1,1
 502 -20 502 -20 340 82 c 0,2,3
 216 160 216 160 216 313 c 0,4,5
 216 359 216 359 227 411 c 2,6,-1
 434 1383 l 1,7,-1
 775 1530 l 1,8,-1
 785 1530 l 1,9,-1
 523 295 l 2,10,11
 517 269 517 269 517 248 c 0,12,13
 517 194 517 194 554 171 c 0,14,15
 620 130 620 130 732.5 130 c 128,-1,16
 845 130 845 130 928 171 c 0,17,18
 993 203 993 203 1013 295 c 2,19,-1
 1244 1383 l 1,20,-1
 1585 1530 l 1,21,-1
 1595 1530 l 1,22,-1
 1333 295 l 2,23,24
 1327 269 1327 269 1327 248 c 0,25,26
 1327 194 1327 194 1364 171 c 0,27,28
 1430 130 1430 130 1542.5 130 c 128,-1,29
 1655 130 1655 130 1738 171 c 0,30,31
 1803 203 1803 203 1823 295 c 2,32,-1
 2054 1383 l 1,33,-1
 2395 1530 l 1,34,-1
 2405 1530 l 1,35,-1
 2167 411 l 2,36,37
 2116 166 2116 166 1960 82 c 0,38,39
 1770 -20 1770 -20 1539 -20 c 128,-1,40
 1308 -20 1308 -20 1158 87 c 1,41,0
 962 -20 962 -20 732 -20 c 128,-1,1
1501 1980 m 1,42,-1
 1511 1980 l 1,43,-1
 1597 1654 l 1,44,-1
 1401 1570 l 1,45,-1
 1391 1570 l 1,46,-1
 1303 1895 l 1,47,-1
 1501 1980 l 1,42,-1
EndSplineSet
Validated: 1
EndChar

StartChar: wgrave
Encoding: 7809 7809 187
Width: 1880
Flags: W
HStem: -20 140<507.603 789.102 1157.89 1438.33> 1100 20G<621.768 678 1271.77 1328 1921.77 1978>
VStem: 203 284<153.599 307.901>
DStem2: 135.48 -20 435.31 -20 0.207912 0.978148<299.466 1024.5> 785.31 -20 1085.31 -20 0.207912 0.978148<299.501 1024.53> 1243 1570 1035 1485 0.252301 -0.967649<29.7715 336.899> 1436.02 -20 1735.69 -20 0.207912 0.978148<214.38 1024.39>
LayerCount: 2
Fore
SplineSet
641 -20 m 0,0,1
 452 -20 452 -20 312 67 c 0,2,3
 203 135 203 135 203 263 c 0,4,5
 203 299 203 299 212 340 c 2,6,-1
 349 982 l 1,7,-1
 668 1120 l 1,8,-1
 678 1120 l 1,9,-1
 491 242 l 2,10,11
 487 225 487 225 487 211 c 0,12,13
 487 172 487 172 513 153 c 0,14,15
 557 120 557 120 641 120 c 128,-1,16
 725 120 725 120 783 153 c 0,17,18
 827 178 827 178 841 242 c 2,19,-1
 999 982 l 1,20,-1
 1318 1120 l 1,21,-1
 1328 1120 l 1,22,-1
 1141 242 l 2,23,24
 1137 225 1137 225 1137 211 c 0,25,26
 1137 172 1137 172 1163 153 c 0,27,28
 1207 120 1207 120 1291 120 c 128,-1,29
 1375 120 1375 120 1433 153 c 0,30,31
 1477 178 1477 178 1491 242 c 2,32,-1
 1649 982 l 1,33,-1
 1968 1120 l 1,34,-1
 1978 1120 l 1,35,-1
 1812 340 l 2,36,37
 1769 136 1769 136 1641 67 c 0,38,39
 1480 -20 1480 -20 1291 -20 c 0,40,41
 1107 -20 1107 -20 983 63 c 1,42,43
 825 -20 825 -20 641 -20 c 0,0,1
1233 1570 m 1,44,-1
 1243 1570 l 1,45,-1
 1328 1244 l 1,46,-1
 1133 1160 l 1,47,-1
 1123 1160 l 1,48,-1
 1035 1485 l 1,49,-1
 1233 1570 l 1,44,-1
EndSplineSet
Validated: 19457
EndChar

StartChar: Wacute
Encoding: 7810 7810 188
Width: 2220
Flags: W
HStem: -20 150<553.057 933.726 1362.29 1741.96> 1510 20G<728.605 785 1538.61 1595 2348.61 2405>
VStem: 216 301<171.726 361.063>
DStem2: 135.388 -20 456.045 -20 0.207912 0.978148<343.891 1434.43> 946.045 -20 1266.04 -20 0.207912 0.978148<341.992 1434.29> 1286 1660 1468 1570 0.541289 0.840837<22.8392 380.573> 1755.78 -20 2075.54 -20 0.207912 0.978148<263.194 1434.34>
LayerCount: 2
Fore
SplineSet
732 -20 m 128,-1,1
 502 -20 502 -20 340 82 c 0,2,3
 216 160 216 160 216 313 c 0,4,5
 216 359 216 359 227 411 c 2,6,-1
 434 1383 l 1,7,-1
 775 1530 l 1,8,-1
 785 1530 l 1,9,-1
 523 295 l 2,10,11
 517 269 517 269 517 248 c 0,12,13
 517 194 517 194 554 171 c 0,14,15
 620 130 620 130 732.5 130 c 128,-1,16
 845 130 845 130 928 171 c 0,17,18
 993 203 993 203 1013 295 c 2,19,-1
 1244 1383 l 1,20,-1
 1585 1530 l 1,21,-1
 1595 1530 l 1,22,-1
 1333 295 l 2,23,24
 1327 269 1327 269 1327 248 c 0,25,26
 1327 194 1327 194 1364 171 c 0,27,28
 1430 130 1430 130 1542.5 130 c 128,-1,29
 1655 130 1655 130 1738 171 c 0,30,31
 1803 203 1803 203 1823 295 c 2,32,-1
 2054 1383 l 1,33,-1
 2395 1530 l 1,34,-1
 2405 1530 l 1,35,-1
 2167 411 l 2,36,37
 2116 166 2116 166 1960 82 c 0,38,39
 1770 -20 1770 -20 1539 -20 c 128,-1,40
 1308 -20 1308 -20 1158 87 c 1,41,0
 962 -20 962 -20 732 -20 c 128,-1,1
1502 1980 m 1,42,-1
 1675 1888 l 1,43,-1
 1468 1570 l 1,44,-1
 1458 1570 l 1,45,-1
 1286 1660 l 1,46,-1
 1492 1980 l 1,47,-1
 1502 1980 l 1,42,-1
EndSplineSet
Validated: 1
EndChar

StartChar: wacute
Encoding: 7811 7811 189
Width: 1880
Flags: W
HStem: -20 140<507.603 789.102 1157.89 1438.33> 1100 20G<621.768 678 1271.77 1328 1921.77 1978>
VStem: 203 284<153.599 307.901>
DStem2: 135.48 -20 435.31 -20 0.207912 0.978148<299.466 1024.5> 785.31 -20 1085.31 -20 0.207912 0.978148<299.501 1024.53> 1019 1250 1201 1160 0.541289 0.840837<22.8392 380.573> 1436.02 -20 1735.69 -20 0.207912 0.978148<214.38 1024.39>
LayerCount: 2
Fore
SplineSet
641 -20 m 0,0,1
 452 -20 452 -20 312 67 c 0,2,3
 203 135 203 135 203 263 c 0,4,5
 203 299 203 299 212 340 c 2,6,-1
 349 982 l 1,7,-1
 668 1120 l 1,8,-1
 678 1120 l 1,9,-1
 491 242 l 2,10,11
 487 225 487 225 487 211 c 0,12,13
 487 172 487 172 513 153 c 0,14,15
 557 120 557 120 641 120 c 128,-1,16
 725 120 725 120 783 153 c 0,17,18
 827 178 827 178 841 242 c 2,19,-1
 999 982 l 1,20,-1
 1318 1120 l 1,21,-1
 1328 1120 l 1,22,-1
 1141 242 l 2,23,24
 1137 225 1137 225 1137 211 c 0,25,26
 1137 172 1137 172 1163 153 c 0,27,28
 1207 120 1207 120 1291 120 c 128,-1,29
 1375 120 1375 120 1433 153 c 0,30,31
 1477 178 1477 178 1491 242 c 2,32,-1
 1649 982 l 1,33,-1
 1968 1120 l 1,34,-1
 1978 1120 l 1,35,-1
 1812 340 l 2,36,37
 1769 136 1769 136 1641 67 c 0,38,39
 1480 -20 1480 -20 1291 -20 c 0,40,41
 1107 -20 1107 -20 983 63 c 1,42,43
 825 -20 825 -20 641 -20 c 0,0,1
1235 1570 m 1,44,-1
 1408 1478 l 1,45,-1
 1201 1160 l 1,46,-1
 1191 1160 l 1,47,-1
 1019 1250 l 1,48,-1
 1225 1570 l 1,49,-1
 1235 1570 l 1,44,-1
EndSplineSet
Validated: 19457
EndChar

StartChar: Wdieresis
Encoding: 7812 7812 190
Width: 2220
Flags: W
HStem: -20 150<553.057 933.726 1362.29 1741.96> 1510 20G<728.605 785 1538.61 1595 2348.61 2405> 1620 297<1218.47 1380.49 1557.98 1718.99>
VStem: 216 301<171.726 361.063> 1150 300<1688.5 1848.97> 1488 300<1688.5 1847.11>
DStem2: 135.388 -20 456.045 -20 0.207912 0.978148<343.891 1434.43> 946.045 -20 1266.04 -20 0.207912 0.978148<341.992 1434.29> 1755.78 -20 2075.54 -20 0.207912 0.978148<263.194 1434.34>
LayerCount: 2
Fore
SplineSet
732 -20 m 128,-1,1
 502 -20 502 -20 340 82 c 0,2,3
 216 160 216 160 216 313 c 0,4,5
 216 359 216 359 227 411 c 2,6,-1
 434 1383 l 1,7,-1
 775 1530 l 1,8,-1
 785 1530 l 1,9,-1
 523 295 l 2,10,11
 517 269 517 269 517 248 c 0,12,13
 517 194 517 194 554 171 c 0,14,15
 620 130 620 130 732.5 130 c 128,-1,16
 845 130 845 130 928 171 c 0,17,18
 993 203 993 203 1013 295 c 2,19,-1
 1244 1383 l 1,20,-1
 1585 1530 l 1,21,-1
 1595 1530 l 1,22,-1
 1333 295 l 2,23,24
 1327 269 1327 269 1327 248 c 0,25,26
 1327 194 1327 194 1364 171 c 0,27,28
 1430 130 1430 130 1542.5 130 c 128,-1,29
 1655 130 1655 130 1738 171 c 0,30,31
 1803 203 1803 203 1823 295 c 2,32,-1
 2054 1383 l 1,33,-1
 2395 1530 l 1,34,-1
 2405 1530 l 1,35,-1
 2167 411 l 2,36,37
 2116 166 2116 166 1960 82 c 0,38,39
 1770 -20 1770 -20 1539 -20 c 128,-1,40
 1308 -20 1308 -20 1158 87 c 1,41,0
 962 -20 962 -20 732 -20 c 128,-1,1
1669 1917 m 128,-1,43
 1729 1917 1729 1917 1763 1873 c 0,44,45
 1787 1842 1787 1842 1788 1801 c 0,46,47
 1788 1784 1788 1784 1784 1768 c 0,48,49
 1771 1708 1771 1708 1719 1664 c 128,-1,50
 1667 1620 1667 1620 1606 1620 c 128,-1,51
 1545 1620 1545 1620 1512 1664 c 0,52,53
 1488 1696 1488 1696 1488 1735 c 0,54,55
 1488 1751 1488 1751 1492 1768 c 0,56,57
 1504 1827 1504 1827 1557 1872 c 0,58,42
 1609 1917 1609 1917 1669 1917 c 128,-1,43
1330.5 1917 m 128,-1,60
 1391 1917 1391 1917 1425 1873 c 0,61,62
 1450 1841 1450 1841 1450 1801 c 0,63,64
 1450 1786 1450 1786 1446 1768 c 0,65,66
 1433 1708 1433 1708 1380.5 1664 c 128,-1,67
 1328 1620 1328 1620 1268 1620 c 0,68,69
 1207 1620 1207 1620 1174 1664 c 0,70,71
 1150 1696 1150 1696 1150 1735 c 0,72,73
 1150 1751 1150 1751 1154 1768 c 0,74,75
 1167 1829 1167 1829 1218 1872 c 0,76,59
 1270 1917 1270 1917 1330.5 1917 c 128,-1,60
EndSplineSet
Validated: 1
EndChar

StartChar: wdieresis
Encoding: 7813 7813 191
Width: 1880
Flags: W
HStem: -20 140<507.603 789.102 1157.89 1438.33> 1100 20G<621.768 678 1271.77 1328 1921.77 1978> 1210 297<967.468 1129.49 1306.98 1467.99>
VStem: 203 284<153.599 307.901> 899 300<1278.5 1438.97> 1237 300<1278.5 1437.11>
DStem2: 135.48 -20 435.31 -20 0.207912 0.978148<299.466 1024.5> 785.31 -20 1085.31 -20 0.207912 0.978148<299.501 1024.53> 1436.02 -20 1735.69 -20 0.207912 0.978148<214.38 1024.39>
LayerCount: 2
Fore
SplineSet
641 -20 m 0,0,1
 452 -20 452 -20 312 67 c 0,2,3
 203 135 203 135 203 263 c 0,4,5
 203 299 203 299 212 340 c 2,6,-1
 349 982 l 1,7,-1
 668 1120 l 1,8,-1
 678 1120 l 1,9,-1
 491 242 l 2,10,11
 487 225 487 225 487 211 c 0,12,13
 487 172 487 172 513 153 c 0,14,15
 557 120 557 120 641 120 c 128,-1,16
 725 120 725 120 783 153 c 0,17,18
 827 178 827 178 841 242 c 2,19,-1
 999 982 l 1,20,-1
 1318 1120 l 1,21,-1
 1328 1120 l 1,22,-1
 1141 242 l 2,23,24
 1137 225 1137 225 1137 211 c 0,25,26
 1137 172 1137 172 1163 153 c 0,27,28
 1207 120 1207 120 1291 120 c 128,-1,29
 1375 120 1375 120 1433 153 c 0,30,31
 1477 178 1477 178 1491 242 c 2,32,-1
 1649 982 l 1,33,-1
 1968 1120 l 1,34,-1
 1978 1120 l 1,35,-1
 1812 340 l 2,36,37
 1769 136 1769 136 1641 67 c 0,38,39
 1480 -20 1480 -20 1291 -20 c 0,40,41
 1107 -20 1107 -20 983 63 c 1,42,43
 825 -20 825 -20 641 -20 c 0,0,1
1418 1507 m 128,-1,45
 1478 1507 1478 1507 1512 1463 c 0,46,47
 1536 1432 1536 1432 1537 1391 c 0,48,49
 1537 1374 1537 1374 1533 1358 c 0,50,51
 1520 1298 1520 1298 1468 1254 c 128,-1,52
 1416 1210 1416 1210 1355 1210 c 128,-1,53
 1294 1210 1294 1210 1261 1254 c 0,54,55
 1237 1286 1237 1286 1237 1325 c 0,56,57
 1237 1341 1237 1341 1241 1358 c 0,58,59
 1253 1417 1253 1417 1306 1462 c 0,60,44
 1358 1507 1358 1507 1418 1507 c 128,-1,45
1079.5 1507 m 128,-1,62
 1140 1507 1140 1507 1174 1463 c 0,63,64
 1199 1431 1199 1431 1199 1391 c 0,65,66
 1199 1376 1199 1376 1195 1358 c 0,67,68
 1182 1298 1182 1298 1129.5 1254 c 128,-1,69
 1077 1210 1077 1210 1017 1210 c 0,70,71
 956 1210 956 1210 923 1254 c 0,72,73
 899 1286 899 1286 899 1325 c 0,74,75
 899 1341 899 1341 903 1358 c 0,76,77
 916 1419 916 1419 967 1462 c 0,78,61
 1019 1507 1019 1507 1079.5 1507 c 128,-1,62
EndSplineSet
Validated: 19457
EndChar

StartChar: Ygrave
Encoding: 7922 7922 192
Width: 1270
Flags: W
HStem: -20 21G<471 527.395> 1510 20G<668.605 725 1458.61 1515>
VStem: 243 299<574.757 763.178>
DStem2: 75.7278 -20 395.384 -20 0.207912 0.978148<760.932 1434.36> 865.783 -20 1185.54 -20 0.207912 0.978148<675.085 1434.34> 1109 1980 901 1895 0.255077 -0.966921<29.1322 337.153>
LayerCount: 2
Fore
SplineSet
481 -20 m 1,0,-1
 471 -20 l 1,1,-1
 560 398 l 1,2,3
 463 418 463 418 366 485 c 0,4,5
 243 571 243 571 243 721 c 0,6,7
 243 765 243 765 253 814 c 2,8,-1
 374 1383 l 1,9,-1
 715 1530 l 1,10,-1
 725 1530 l 1,11,-1
 548 698 l 2,12,13
 542 672 542 672 542 652 c 0,14,15
 542 598 542 598 580 574 c 0,16,17
 646 533 646 533 748 533 c 128,-1,18
 850 533 850 533 934 574 c 0,19,20
 998 606 998 606 1018 698 c 2,21,-1
 1164 1383 l 1,22,-1
 1505 1530 l 1,23,-1
 1515 1530 l 1,24,-1
 1363 814 l 2,25,26
 1311 567 1311 567 1155 485 c 0,27,28
 1030 418 1030 418 880 398 c 1,29,-1
 822 127 l 1,30,-1
 481 -20 l 1,0,-1
1099 1980 m 1,31,-1
 1109 1980 l 1,32,-1
 1195 1654 l 1,33,-1
 999 1570 l 1,34,-1
 989 1570 l 1,35,-1
 901 1895 l 1,36,-1
 1099 1980 l 1,31,-1
EndSplineSet
Validated: 1
EndChar

StartChar: ygrave
Encoding: 7923 7923 193
Width: 1250
Flags: W
HStem: -410 140<285 698.178> -20 140<509.456 785.448> 1100 20G<621.768 678 1271.77 1328>
VStem: 204 283<153.599 307.901>
DStem2: 52.5826 -410 352.413 -410 0.207912 0.978148<698.179 1423.21> 702.514 -410 1002.48 -410 0.207912 0.978148<221.196 430.405 568.489 1423.22> 983 1570 775 1485 0.252301 -0.967649<29.7715 336.899>
LayerCount: 2
Fore
SplineSet
193 -410 m 1,0,-1
 195 -400 l 1,1,-1
 285 -270 l 1,2,-1
 547 -270 l 2,3,4
 642 -270 642 -270 700 -237 c 0,5,6
 746 -211 746 -211 759 -148 c 2,7,-1
 792 11 l 1,8,9
 719 -20 719 -20 626 -20 c 0,10,11
 439 -20 439 -20 312 67 c 0,12,13
 204 141 204 141 204 268 c 0,14,15
 204 302 204 302 212 340 c 2,16,-1
 349 982 l 1,17,-1
 668 1120 l 1,18,-1
 678 1120 l 1,19,-1
 491 242 l 2,20,21
 487 225 487 225 487 211 c 0,22,23
 487 172 487 172 513 153 c 0,24,25
 557 120 557 120 641 120 c 128,-1,26
 725 120 725 120 783 153 c 0,27,28
 827 178 827 178 841 242 c 2,29,-1
 999 982 l 1,30,-1
 1318 1120 l 1,31,-1
 1328 1120 l 1,32,-1
 1079 -50 l 2,33,34
 1039 -240 1039 -240 908 -323 c 0,35,36
 771 -410 771 -410 558 -410 c 2,37,-1
 193 -410 l 1,0,-1
973 1570 m 1,38,-1
 983 1570 l 1,39,-1
 1068 1244 l 1,40,-1
 873 1160 l 1,41,-1
 863 1160 l 1,42,-1
 775 1485 l 1,43,-1
 973 1570 l 1,38,-1
EndSplineSet
Validated: 19457
EndChar

StartChar: AE
Encoding: 198 198 194
Width: 1728
Flags: W
HStem: -20 21G<136 192.395> 0 150<1140 1651> 680 150<636 933 1284 1746> 1360 150<1397 1890> 1380 150<798.843 1079.1>
DStem2: 136 -20 455.754 -20 0.207912 0.978148<216.765 782.214 935.381 1382.81> 783.749 -20 1103.87 -20 0.207912 0.978148<240.354 715.734 935.434 1425.13>
LayerCount: 2
Fore
SplineSet
1651 0 m 1,0,-1
 788 0 l 1,1,-1
 933 680 l 1,2,-1
 605 680 l 1,3,-1
 487 127 l 1,4,-1
 146 -20 l 1,5,-1
 136 -20 l 1,6,-1
 374 1099 l 2,7,8
 426 1344 426 1344 582 1428 c 0,9,10
 771 1530 771 1530 1000 1530 c 0,11,12
 1135 1530 1135 1530 1219 1510 c 1,13,-1
 1989 1510 l 1,14,-1
 1987 1500 l 1,15,-1
 1890 1360 l 1,16,-1
 1397 1360 l 1,17,-1
 1284 830 l 1,18,-1
 1844 830 l 1,19,-1
 1842 820 l 1,20,-1
 1746 680 l 1,21,-1
 1253 680 l 1,22,-1
 1140 150 l 1,23,-1
 1750 150 l 1,24,-1
 1748 140 l 1,25,-1
 1651 0 l 1,0,-1
1080 1374 m 1,26,27
 1042 1380 1042 1380 998 1380 c 0,28,29
 886 1380 886 1380 803 1339 c 0,30,31
 738 1307 738 1307 718 1215 c 2,32,-1
 636 830 l 1,33,-1
 964 830 l 1,34,-1
 1080 1374 l 1,26,27
EndSplineSet
Validated: 1
EndChar

StartChar: Eth
Encoding: 208 208 195
Width: 1390
Flags: W
HStem: 0 150<512 927.91> 680 150<243 305 656 883> 1360 150<769 1159.93>
VStem: 1200 310<1017.25 1320.08>
DStem2: 160 0 480.117 0 0.207912 0.978148<219.907 695.288 914.987 1413.9> 939.995 0 1269.65 0 0.207912 0.978148<265.689 1267.33>
CounterMasks: 1 e0
LayerCount: 2
Fore
SplineSet
512 150 m 1,0,-1
 727 150 l 2,1,2
 840 150 840 150 923 191 c 0,3,4
 988 223 988 223 1007 315 c 2,5,-1
 1194 1195 l 2,6,7
 1200 1221 1200 1221 1200 1241 c 0,8,9
 1200 1295 1200 1295 1162 1319 c 0,10,11
 1096 1360 1096 1360 984 1360 c 2,12,-1
 769 1360 l 1,13,-1
 656 830 l 1,14,-1
 981 830 l 1,15,-1
 979 820 l 1,16,-1
 883 680 l 1,17,-1
 625 680 l 1,18,-1
 512 150 l 1,0,-1
160 0 m 1,19,-1
 305 680 l 1,20,-1
 145 680 l 1,21,-1
 147 690 l 1,22,-1
 243 830 l 1,23,-1
 336 830 l 1,24,-1
 454 1383 l 1,25,-1
 749 1510 l 1,26,-1
 996 1510 l 2,27,28
 1224 1510 1224 1510 1386 1408 c 0,29,30
 1510 1330 1510 1330 1510 1177 c 0,31,32
 1510 1131 1510 1131 1499 1079 c 2,33,-1
 1362 431 l 2,34,35
 1310 186 1310 186 1154 102 c 0,36,37
 964 0 964 0 735 0 c 2,38,-1
 160 0 l 1,19,-1
EndSplineSet
Validated: 1
EndChar

StartChar: Dcroat
Encoding: 272 272 196
Width: 1390
Flags: W
HStem: 0 150<512 927.91> 680 150<243 305 656 883> 1360 150<769 1159.93>
VStem: 1200 310<1017.25 1320.08>
DStem2: 160 0 480.117 0 0.207912 0.978148<219.907 695.288 914.987 1413.9> 939.995 0 1269.65 0 0.207912 0.978148<265.689 1267.33>
CounterMasks: 1 e0
LayerCount: 2
Fore
SplineSet
512 150 m 1,0,-1
 727 150 l 2,1,2
 840 150 840 150 923 191 c 0,3,4
 988 223 988 223 1007 315 c 2,5,-1
 1194 1195 l 2,6,7
 1200 1221 1200 1221 1200 1241 c 0,8,9
 1200 1295 1200 1295 1162 1319 c 0,10,11
 1096 1360 1096 1360 984 1360 c 2,12,-1
 769 1360 l 1,13,-1
 656 830 l 1,14,-1
 981 830 l 1,15,-1
 979 820 l 1,16,-1
 883 680 l 1,17,-1
 625 680 l 1,18,-1
 512 150 l 1,0,-1
160 0 m 1,19,-1
 305 680 l 1,20,-1
 145 680 l 1,21,-1
 147 690 l 1,22,-1
 243 830 l 1,23,-1
 336 830 l 1,24,-1
 454 1383 l 1,25,-1
 749 1510 l 1,26,-1
 996 1510 l 2,27,28
 1224 1510 1224 1510 1386 1408 c 0,29,30
 1510 1330 1510 1330 1510 1177 c 0,31,32
 1510 1131 1510 1131 1499 1079 c 2,33,-1
 1362 431 l 2,34,35
 1310 186 1310 186 1154 102 c 0,36,37
 964 0 964 0 735 0 c 2,38,-1
 160 0 l 1,19,-1
EndSplineSet
Validated: 1
EndChar

StartChar: Hbar
Encoding: 294 294 197
Width: 1440
Flags: W
HStem: -20 21G<156 212.395 956 1012.39> 680 150<656 1105> 1212 150<387 418 770 1218 1570 1601> 1510 20G<748.605 805 1548.61 1605>
DStem2: 156 -20 475.754 -20 0.207912 0.978148<216.765 782.214 935.381 1259.55> 956 -20 1275.75 -20 0.207912 0.978148<216.765 715.682 868.85 1259.55>
LayerCount: 2
Fore
SplineSet
166 -20 m 1,0,-1
 156 -20 l 1,1,-1
 418 1212 l 1,2,-1
 288 1212 l 1,3,-1
 290 1222 l 1,4,-1
 387 1362 l 1,5,-1
 450 1362 l 1,6,-1
 454 1383 l 1,7,-1
 795 1530 l 1,8,-1
 805 1530 l 1,9,-1
 770 1362 l 1,10,-1
 1250 1362 l 1,11,-1
 1254 1383 l 1,12,-1
 1595 1530 l 1,13,-1
 1605 1530 l 1,14,-1
 1570 1362 l 1,15,-1
 1700 1362 l 1,16,-1
 1697 1352 l 1,17,-1
 1601 1212 l 1,18,-1
 1538 1212 l 1,19,-1
 1307 127 l 1,20,-1
 966 -20 l 1,21,-1
 956 -20 l 1,22,-1
 1105 680 l 1,23,-1
 625 680 l 1,24,-1
 507 127 l 1,25,-1
 166 -20 l 1,0,-1
738 1212 m 1,26,-1
 656 830 l 1,27,-1
 1136 830 l 1,28,-1
 1218 1212 l 1,29,-1
 738 1212 l 1,26,-1
EndSplineSet
Validated: 19457
EndChar

StartChar: IJ
Encoding: 306 306 198
Width: 1831
Flags: W
HStem: -20 150<1070.86 1374.74> 1360 150<1134 1680> 1510 20G<748.605 805>
VStem: 728 306<168.862 399.383>
DStem2: 156 -20 475.754 -20 0.207912 0.978148<216.765 1434.3> 1386.67 -20 1706.79 -20 0.207912 0.978148<267.908 1410.83>
LayerCount: 2
Fore
SplineSet
1202 -20 m 0,0,1
 990 -20 990 -20 841 82 c 0,2,3
 728 159 728 159 728 323 c 0,4,5
 728 356 728 356 734 393 c 1,6,-1
 1081 542 l 1,7,-1
 1091 542 l 1,8,-1
 1039 295 l 2,9,10
 1034 271 1034 271 1034 249 c 0,11,12
 1034 193 1034 193 1070 171 c 0,13,14
 1136 130 1136 130 1211 130 c 128,-1,15
 1286 130 1286 130 1369 171 c 0,16,17
 1435 203 1435 203 1454 295 c 2,18,-1
 1680 1360 l 1,19,-1
 1035 1360 l 1,20,-1
 1037 1370 l 1,21,-1
 1134 1510 l 1,22,-1
 2032 1510 l 1,23,-1
 1798 411 l 2,24,25
 1746 165 1746 165 1591 82 c 0,26,27
 1401 -20 1401 -20 1202 -20 c 0,0,1
166 -20 m 1,28,-1
 156 -20 l 1,29,-1
 454 1383 l 1,30,-1
 795 1530 l 1,31,-1
 805 1530 l 1,32,-1
 507 127 l 1,33,-1
 166 -20 l 1,28,-1
EndSplineSet
Validated: 1
EndChar

StartChar: lslash
Encoding: 322 322 199
Width: 766
Flags: W
HStem: -20 21G<229 285.232> 1510 20G<801.768 858>
DStem2: 199 701 170 546 0.920967 0.38964<0 126.668 576.703 703.371> 229 -20 528.667 -20 0.207912 0.978148<203.387 663.51 823.94 868.853 1029.49 1443.52>
LayerCount: 2
Fore
SplineSet
239 -20 m 1,0,-1
 229 -20 l 1,1,-1
 367 629 l 1,2,-1
 170 546 l 1,3,-1
 168 555 l 1,4,-1
 199 701 l 1,5,-1
 400 786 l 1,6,-1
 529 1392 l 1,7,-1
 848 1530 l 1,8,-1
 858 1530 l 1,9,-1
 730 926 l 1,10,-1
 926 1009 l 1,11,-1
 929 1000 l 1,12,-1
 898 854 l 1,13,-1
 696 769 l 1,14,-1
 558 118 l 1,15,-1
 239 -20 l 1,0,-1
EndSplineSet
Validated: 1
EndChar

StartChar: Lslash
Encoding: 321 321 200
Width: 1100
Flags: W
HStem: 0 150<512 1023> 1510 20G<748.288 805>
DStem2: 160 0 480.117 0 0.207912 0.978148<219.907 585.844 754.515 804.565 973.444 1414.88> 669 887 633 722 0.920967 0.38964<0 220.713>
LayerCount: 2
Fore
SplineSet
160 0 m 1,0,-1
 282 573 l 1,1,-1
 198 538 l 1,2,-1
 196 547 l 1,3,-1
 229 701 l 1,4,-1
 317 738 l 1,5,-1
 454 1384 l 1,6,-1
 795 1530 l 1,7,-1
 805 1530 l 1,8,-1
 669 887 l 1,9,-1
 956 1009 l 1,10,-1
 959 1000 l 1,11,-1
 926 846 l 1,12,-1
 633 722 l 1,13,-1
 512 150 l 1,14,-1
 1122 150 l 1,15,-1
 1120 140 l 1,16,-1
 1023 0 l 1,17,-1
 160 0 l 1,0,-1
EndSplineSet
Validated: 1
EndChar

StartChar: Eng
Encoding: 330 330 201
Width: 1410
Flags: W
HStem: -410 21G<559 771> -20 21G<136 192.395> 1380 150<799.047 1177.78>
VStem: 1214 301<1148.87 1338.27>
DStem2: 53.1029 -410 372.857 -410 0.207912 0.978148<615.478 1781.52> 863.045 -410 1182.39 -410 0.207912 0.978148<272.783 1706.02>
LayerCount: 2
Fore
SplineSet
146 -20 m 1,0,-1
 136 -20 l 1,1,-1
 374 1099 l 2,2,3
 426 1344 426 1344 582 1428 c 0,4,5
 772 1530 772 1530 1000 1530 c 128,-1,6
 1228 1530 1228 1530 1390 1428 c 0,7,8
 1515 1349 1515 1349 1515 1197 c 0,9,10
 1515 1151 1515 1151 1504 1099 c 2,11,-1
 1274 21 l 2,12,13
 1224 -215 1224 -215 1066 -308 c 0,14,15
 894 -410 894 -410 648 -410 c 2,16,-1
 559 -410 l 1,17,-1
 561 -400 l 1,18,-1
 655 -264 l 1,19,20
 777 -253 777 -253 845 -219 c 0,21,22
 911 -187 911 -187 930 -95 c 2,23,-1
 1208 1215 l 2,24,25
 1214 1241 1214 1241 1214 1262 c 0,26,27
 1214 1316 1214 1316 1177 1339 c 0,28,29
 1111 1380 1111 1380 998.5 1380 c 128,-1,30
 886 1380 886 1380 803 1339 c 0,31,32
 737 1307 737 1307 718 1215 c 2,33,-1
 487 127 l 1,34,-1
 146 -20 l 1,0,-1
EndSplineSet
Validated: 1
EndChar

